<svg width="1269" height="1174" viewBox="0 0 1269 1174" fill="none" xmlns="http://www.w3.org/2000/svg">
<path fill-rule="evenodd" clip-rule="evenodd" d="M766.952 5.885C665.739 -20.0843 571.398 63.7437 468.904 84.0808C358.894 105.909 198.197 33.3173 141.376 130.014C76.9251 239.694 255.101 371.028 227.334 495.176C201.951 608.669 -19.4679 639.302 1.90155 753.619C22.508 863.854 207.759 831.938 301.727 893.146C369.724 937.437 403.534 1018.24 472.875 1060.4C557.574 1111.89 655.44 1202.87 746.398 1163.47C842.817 1121.72 856.271 1017.75 937.459 951.053C1031.7 873.629 1154.28 873.934 1222.18 772.613C1283.23 681.511 1355.11 655.144 1312.88 553.933C1274.33 461.531 1057.61 292.516 990.762 217.979C920.95 140.137 868.233 31.8718 766.952 5.885Z" fill="white"/>
</svg>
