<?xml version="1.0" standalone="no"?>
<!DOCTYPE svg PUBLIC "-//W3C//DTD SVG 20010904//EN"
 "http://www.w3.org/TR/2001/REC-SVG-20010904/DTD/svg10.dtd">
<svg version="1.0" xmlns="http://www.w3.org/2000/svg"
 width="165.000000pt" height="165.000000pt" viewBox="0 0 165.000000 165.000000"
 preserveAspectRatio="xMidYMid meet">
<metadata>
Created by potrace 1.14, written by Peter Selinger 2001-2017
</metadata>
<g transform="translate(0.000000,165.000000) scale(0.100000,-0.100000)"
fill="#000000" stroke="none">
<path d="M322 1604 c-37 -18 -59 -38 -77 -68 -25 -42 -29 -62 -40 -171 -11
-116 -14 -132 -30 -181 -19 -55 -40 -85 -114 -161 -65 -68 -64 -74 24 -179 37
-44 40 -52 40 -108 0 -54 -7 -76 -60 -186 -57 -119 -60 -129 -60 -200 1 -110
42 -172 135 -203 27 -8 140 -10 179 -2 89 18 195 22 256 11 45 -8 130 -33 160
-47 70 -32 227 -66 311 -68 107 -2 124 8 121 76 -2 57 28 81 146 117 214 65
326 152 332 259 3 53 -11 93 -67 187 -55 93 -77 148 -71 179 2 14 21 73 43
132 79 215 70 244 -100 304 -88 32 -135 59 -145 83 -4 9 -13 48 -21 85 -31
157 -105 187 -299 121 -118 -40 -191 -38 -326 9 -92 32 -118 37 -195 37 -77 0
-98 -4 -142 -26z"/>
</g>
</svg>
