<svg width="28" height="28" viewBox="0 0 28 28" fill="none" xmlns="http://www.w3.org/2000/svg">
<path fill-rule="evenodd" clip-rule="evenodd" d="M18.53 14.1464C18.4363 14.2326 18.3716 14.2809 18.3361 14.2914L18.1949 14.4213C18.0296 14.5288 17.8647 14.6583 17.7 14.8097L17.3996 15.0526C17.3761 15.0742 17.323 15.1119 17.2403 15.1657C17.1576 15.2195 17.0928 15.268 17.0457 15.3112L14.8228 17.3554L14.3288 17.8096C14.0815 18.0148 13.9108 18.1607 13.8167 18.2471L13.1815 18.8312L13.0223 18.9443L12.1049 19.7879L11.5403 20.307C11.2695 20.5338 11.0752 20.7013 10.9576 20.8095L8.13476 23.4051C8.15898 23.4273 8.05346 23.5466 7.81821 23.7629L7.69518 23.9093C7.53049 24.0607 7.4663 24.1531 7.50255 24.1864L7.3976 24.3495C7.36265 24.4039 7.31598 24.4691 7.25745 24.5451C7.23396 24.5667 7.21644 24.5939 7.20498 24.6267C7.18148 24.6483 7.17575 24.6646 7.18786 24.6758L7.15355 24.774L7.11916 24.8722L7.10204 24.9213C7.09058 24.954 7.07306 24.9812 7.04957 25.0029L7 25.2817L7.00194 25.4132L7.21935 25.6132C7.3758 25.7138 7.43078 25.8076 7.38436 25.8947L7.45589 25.8956L7.68961 25.9807L7.76114 25.9816L7.83266 25.9825L7.92228 26L8.33239 25.9228C8.34442 25.934 8.40392 25.9237 8.51073 25.8921C8.60542 25.8495 8.71796 25.8016 8.84835 25.7484C8.94304 25.7057 9.00819 25.6791 9.0438 25.6686L9.18597 25.6046L9.36333 25.5081C9.47014 25.4765 9.54708 25.4392 9.59414 25.3959L9.73623 25.3319C9.80743 25.3108 9.86653 25.2787 9.9136 25.2354L10.215 25.0583C10.3688 24.9834 10.4811 24.9136 10.5516 24.8487L11.1352 24.412L11.1877 24.3305C11.1992 24.2977 11.2284 24.2598 11.2755 24.2165L11.84 23.6973C11.9106 23.6325 11.999 23.5623 12.1051 23.4869C12.1877 23.4331 12.2526 23.3845 12.2997 23.3413L12.7937 22.8871L13.0406 22.66C13.1697 22.5191 13.246 22.4378 13.2695 22.4162L13.6577 22.0593L13.8875 21.8812L14.1345 21.6541L16.5692 19.4154L16.8515 19.1558L17.1519 18.9129L17.2577 18.8156C17.2812 18.794 17.3696 18.7238 17.5229 18.6052L17.8051 18.3456L17.8757 18.2807L18.1227 18.0536L18.3173 17.908L18.6177 17.6651L18.8646 17.438L19.0592 17.2925L20.5412 15.9297C20.5647 15.9081 20.5822 15.8809 20.5936 15.8482L20.7348 15.7184C20.8053 15.6535 20.8813 15.5503 20.9627 15.4088C21.044 15.2673 21.1318 15.1533 21.2258 15.0669L21.2421 14.952L21.2955 14.9362L21.2573 14.7713L21.2745 14.7222C21.2739 14.6784 21.2557 14.6617 21.2201 14.6722L21.2191 14.6065C21.2153 14.6052 21.2116 14.604 21.2079 14.6027L21.2463 14.5139L21.2475 14.4481L21.2486 14.3822L21.2679 14.2995L21.1847 13.9218C21.1968 13.9106 21.1858 13.8559 21.1517 13.7575C21.1053 13.6703 21.0533 13.5667 20.9956 13.4467C20.9493 13.3596 20.9204 13.2995 20.9091 13.2667L20.8396 13.1359L20.7348 12.9727C20.7007 12.8744 20.6601 12.8035 20.613 12.7603L20.5436 12.6294C20.5208 12.5639 20.4859 12.5095 20.4388 12.4662L20.2464 12.1889C20.1652 12.0473 20.0893 11.944 20.0187 11.8791L19.544 11.3422L19.4553 11.294C19.4196 11.2836 19.3783 11.2567 19.3312 11.2135L18.7667 10.6944C18.6961 10.6295 18.6198 10.5482 18.5379 10.4505C18.4794 10.3744 18.4267 10.3148 18.3797 10.2715L17.8857 9.81731L17.6386 9.59021C17.4854 9.47153 17.397 9.40146 17.3734 9.37982L16.9853 9.02291L16.7918 8.81147L16.5448 8.58437L14.1101 6.34561L13.8279 6.08606L13.5638 5.8098L13.4579 5.71244C13.4344 5.6908 13.3581 5.6095 13.2291 5.46854L12.9468 5.20899L12.8763 5.14417L12.6292 4.91699L12.471 4.73809L12.2069 4.46174L11.96 4.23465L11.8017 4.05566L10.3198 2.693C10.2962 2.67136 10.2666 2.6553 10.231 2.6448L10.0898 2.51499C10.0193 2.45016 9.90698 2.38033 9.75294 2.30565C9.59891 2.23097 9.4749 2.1504 9.38077 2.06386L9.25564 2.04917L9.23852 2L9.05873 2.03552L9.00529 2.01978C8.95749 2.02043 8.93933 2.03722 8.95071 2.06999L8.87902 2.07104C8.854 2.13724 8.82978 2.15961 8.8062 2.13797L8.78691 2.22056C8.76261 2.24292 8.73266 2.24881 8.69706 2.23832L8.51057 2.66935L8.50839 2.80118L8.45268 2.91727C8.42838 2.93955 8.40448 2.93996 8.38099 2.91832L8.3617 3.00091C8.32601 2.99049 8.30212 2.99082 8.29001 3.00196L8.21719 3.06889C8.1815 3.05839 8.12661 3.13056 8.05233 3.28541L7.90451 3.55109L7.9888 3.86296C7.97669 3.8741 7.97629 3.89606 7.98767 3.92884L8.16189 4.22286C8.23099 4.37568 8.30083 4.48451 8.37138 4.54942C8.46552 4.63588 8.51823 4.69554 8.52962 4.72832L8.67074 4.85813C8.78764 5.01023 8.92843 5.16201 9.09304 5.31338L9.3572 5.58972C9.38069 5.61128 9.4217 5.66012 9.48007 5.73617C9.53852 5.81222 9.59132 5.87188 9.6383 5.91515L11.8613 7.95919L12.3553 8.41347C12.5784 8.64089 12.737 8.79791 12.8311 8.88445L13.4663 9.46846L13.5891 9.61499L14.5066 10.4586L15.0711 10.9777C15.3178 11.2268 15.4999 11.4054 15.6175 11.5136L18.4404 14.1091C18.4508 14.0996 18.4807 14.1121 18.53 14.1464Z" fill="currentColor"/>
</svg>
