<svg width="28" height="28" viewBox="0 0 28 28" fill="none" xmlns="http://www.w3.org/2000/svg">
<path fill-rule="evenodd" clip-rule="evenodd" d="M9.47002 14.1464C9.56375 14.2326 9.62842 14.2809 9.66394 14.2914L9.80505 14.4213C9.97039 14.5288 10.1353 14.6583 10.3 14.8097L10.6004 15.0526C10.6239 15.0742 10.677 15.1119 10.7597 15.1657C10.8424 15.2195 10.9072 15.268 10.9543 15.3112L13.1772 17.3554L13.6712 17.8096C13.9185 18.0148 14.0892 18.1607 14.1833 18.2471L14.8185 18.8312L14.9777 18.9443L15.8951 19.7879L16.4597 20.307C16.7305 20.5338 16.9248 20.7013 17.0424 20.8095L19.8652 23.4051C19.841 23.4273 19.9465 23.5466 20.1818 23.7629L20.3048 23.9093C20.4695 24.0607 20.5337 24.1531 20.4974 24.1864L20.6024 24.3495C20.6374 24.4039 20.684 24.4691 20.7425 24.5451C20.766 24.5667 20.7836 24.5939 20.795 24.6267C20.8185 24.6483 20.8242 24.6646 20.8121 24.6758L20.8464 24.774L20.8808 24.8722L20.898 24.9213C20.9094 24.954 20.9269 24.9812 20.9504 25.0029L21 25.2817L20.9981 25.4132L20.7807 25.6132C20.6242 25.7138 20.5692 25.8076 20.6156 25.8947L20.5441 25.8956L20.3104 25.9807L20.2389 25.9816L20.1673 25.9825L20.0777 26L19.6676 25.9228C19.6556 25.934 19.5961 25.9237 19.4893 25.8921C19.3946 25.8495 19.282 25.8016 19.1517 25.7484C19.057 25.7057 18.9918 25.6791 18.9562 25.6686L18.814 25.6046L18.6367 25.5081C18.5299 25.4765 18.4529 25.4392 18.4059 25.3959L18.2638 25.3319C18.1926 25.3108 18.1335 25.2787 18.0864 25.2354L17.785 25.0583C17.6312 24.9834 17.5189 24.9136 17.4484 24.8487L16.8648 24.412L16.8123 24.3305C16.8008 24.2977 16.7716 24.2598 16.7245 24.2165L16.16 23.6973C16.0894 23.6325 16.001 23.5623 15.8949 23.4869C15.8123 23.4331 15.7474 23.3845 15.7003 23.3413L15.2063 22.8871L14.9594 22.66C14.8303 22.5191 14.754 22.4378 14.7305 22.4162L14.3423 22.0593L14.1125 21.8812L13.8655 21.6541L11.4308 19.4154L11.1485 19.1558L10.8481 18.9129L10.7423 18.8156C10.7188 18.794 10.6304 18.7238 10.4771 18.6052L10.1949 18.3456L10.1243 18.2807L9.87731 18.0536L9.68275 17.908L9.38235 17.6651L9.13539 17.438L8.94082 17.2925L7.45884 15.9297C7.43534 15.9081 7.41783 15.8809 7.40636 15.8482L7.26524 15.7184C7.19468 15.6535 7.11872 15.5503 7.03734 15.4088C6.95596 15.2673 6.86821 15.1533 6.77416 15.0669L6.75793 14.952L6.70448 14.9362L6.74267 14.7713L6.72548 14.7222C6.72612 14.6784 6.74428 14.6617 6.77989 14.6722L6.78086 14.6065C6.78473 14.6052 6.78845 14.604 6.79208 14.6027L6.75365 14.5139L6.75252 14.4481L6.75139 14.3822L6.73209 14.2995L6.81533 13.9218C6.80322 13.9106 6.8142 13.8559 6.84835 13.7575C6.89469 13.6703 6.94668 13.5667 7.0044 13.4467C7.05066 13.3596 7.07956 13.2995 7.09094 13.2667L7.16038 13.1359L7.26516 12.9727C7.29931 12.8744 7.33992 12.8035 7.38699 12.7603L7.45642 12.6294C7.47918 12.5639 7.51414 12.5095 7.5612 12.4662L7.75359 12.1889C7.8348 12.0473 7.91069 11.944 7.98125 11.8791L8.45595 11.3422L8.54468 11.294C8.58036 11.2836 8.62169 11.2567 8.66876 11.2135L9.23332 10.6944C9.30387 10.6295 9.38017 10.5482 9.46211 10.4505C9.52056 10.3744 9.57328 10.3148 9.62034 10.2715L10.1143 9.81731L10.3614 9.59021C10.5146 9.47153 10.603 9.40146 10.6266 9.37982L11.0147 9.02291L11.2082 8.81147L11.4552 8.58437L13.8899 6.34561L14.1721 6.08606L14.4362 5.8098L14.5421 5.71244C14.5656 5.6908 14.6419 5.6095 14.7709 5.46854L15.0532 5.20899L15.1237 5.14417L15.3708 4.91699L15.529 4.73809L15.7931 4.46174L16.04 4.23465L16.1983 4.05566L17.6802 2.693C17.7038 2.67136 17.7334 2.6553 17.769 2.6448L17.9102 2.51499C17.9807 2.45016 18.093 2.38033 18.2471 2.30565C18.4011 2.23097 18.5251 2.1504 18.6192 2.06386L18.7444 2.04917L18.7615 2L18.9413 2.03552L18.9947 2.01978C19.0425 2.02043 19.0607 2.03722 19.0493 2.06999L19.121 2.07104C19.146 2.13724 19.1702 2.15961 19.1938 2.13797L19.2131 2.22056C19.2374 2.24292 19.2673 2.24881 19.3029 2.23832L19.4894 2.66935L19.4916 2.80118L19.5473 2.91727C19.5716 2.93955 19.5955 2.93996 19.619 2.91832L19.6383 3.00091C19.674 2.99049 19.6979 2.99082 19.71 3.00196L19.7828 3.06889C19.8185 3.05839 19.8734 3.13056 19.9477 3.28541L20.0955 3.55109L20.0112 3.86296C20.0233 3.8741 20.0237 3.89606 20.0123 3.92884L19.8381 4.22286C19.769 4.37568 19.6992 4.48451 19.6286 4.54942C19.5345 4.63588 19.4818 4.69554 19.4704 4.72832L19.3293 4.85813C19.2124 5.01023 19.0716 5.16201 18.907 5.31338L18.6428 5.58972C18.6193 5.61128 18.5783 5.66012 18.5199 5.73617C18.4615 5.81222 18.4087 5.87188 18.3617 5.91515L16.1387 7.95919L15.6447 8.41347C15.4216 8.64089 15.263 8.79791 15.1689 8.88445L14.5337 9.46846L14.4109 9.61499L13.4934 10.4586L12.9289 10.9777C12.6822 11.2268 12.5001 11.4054 12.3825 11.5136L9.55963 14.1091C9.54922 14.0996 9.51935 14.1121 9.47002 14.1464Z" fill="currentColor"/>
</svg>
