<svg width="28" height="28" viewBox="0 0 28 28" fill="none" xmlns="http://www.w3.org/2000/svg">
<path fill-rule="evenodd" clip-rule="evenodd" d="M14.1464 18.53C14.2326 18.4363 14.2809 18.3716 14.2914 18.3361L14.4213 18.1949C14.5288 18.0296 14.6583 17.8647 14.8097 17.7L15.0526 17.3996C15.0742 17.3761 15.1119 17.323 15.1657 17.2403C15.2195 17.1576 15.268 17.0928 15.3112 17.0457L17.3554 14.8228L17.8096 14.3288C18.0148 14.0815 18.1607 13.9108 18.2471 13.8167L18.8312 13.1815L18.9443 13.0223L19.7879 12.1049L20.307 11.5403C20.5338 11.2695 20.7013 11.0752 20.8095 10.9576L23.4051 8.13476C23.4273 8.15898 23.5466 8.05347 23.7629 7.81821L23.9093 7.69518C24.0607 7.53049 24.1531 7.46631 24.1864 7.50255L24.3495 7.3976C24.4039 7.36265 24.4691 7.31598 24.5451 7.25745C24.5667 7.23396 24.5939 7.21644 24.6267 7.20498C24.6483 7.18149 24.6646 7.17575 24.6758 7.18786L24.774 7.15355L24.8722 7.11916L24.9213 7.10205C24.954 7.09058 24.9812 7.07306 25.0029 7.04957L25.2817 7L25.4132 7.00194L25.6132 7.21935C25.7138 7.37581 25.8076 7.43078 25.8947 7.38436L25.8956 7.45589L25.9807 7.68961L25.9816 7.76114L25.9825 7.83267L26 7.92228L25.9228 8.33239C25.934 8.34442 25.9237 8.40392 25.8921 8.51073C25.8495 8.60543 25.8016 8.71796 25.7484 8.84835C25.7057 8.94304 25.6791 9.0082 25.6686 9.0438L25.6046 9.18597L25.5081 9.36333C25.4765 9.47014 25.4392 9.54708 25.3959 9.59414L25.3319 9.73623C25.3108 9.80744 25.2787 9.86653 25.2354 9.9136L25.0583 10.215C24.9834 10.3688 24.9136 10.4811 24.8487 10.5516L24.412 11.1352L24.3305 11.1877C24.2977 11.1992 24.2598 11.2284 24.2165 11.2755L23.6973 11.84C23.6325 11.9106 23.5623 11.999 23.4869 12.1051C23.4331 12.1877 23.3845 12.2526 23.3413 12.2997L22.8871 12.7937L22.66 13.0406C22.5191 13.1697 22.4378 13.246 22.4162 13.2695L22.0593 13.6577L21.8812 13.8875L21.6541 14.1345L19.4154 16.5692L19.1558 16.8515L18.9129 17.1519L18.8156 17.2577C18.794 17.2812 18.7238 17.3696 18.6052 17.5229L18.3456 17.8051L18.2807 17.8757L18.0536 18.1227L17.908 18.3173L17.6651 18.6177L17.438 18.8646L17.2925 19.0592L15.9297 20.5412C15.9081 20.5647 15.8809 20.5822 15.8482 20.5936L15.7184 20.7348C15.6535 20.8053 15.5503 20.8813 15.4088 20.9627C15.2673 21.044 15.1533 21.1318 15.0669 21.2258L14.952 21.2421L14.9362 21.2955L14.7713 21.2573L14.7222 21.2745C14.6784 21.2739 14.6617 21.2557 14.6722 21.2201L14.6065 21.2191C14.6052 21.2153 14.604 21.2116 14.6027 21.2079L14.5139 21.2463L14.4481 21.2475L14.3822 21.2486L14.2995 21.2679L13.9218 21.1847C13.9106 21.1968 13.8559 21.1858 13.7575 21.1517C13.6703 21.1053 13.5667 21.0533 13.4467 20.9956C13.3596 20.9493 13.2995 20.9204 13.2667 20.9091L13.1359 20.8396L12.9727 20.7348C12.8744 20.7007 12.8035 20.6601 12.7603 20.613L12.6294 20.5436C12.5639 20.5208 12.5095 20.4859 12.4662 20.4388L12.1889 20.2464C12.0473 20.1652 11.944 20.0893 11.8791 20.0187L11.3422 19.544L11.294 19.4553C11.2836 19.4196 11.2567 19.3783 11.2135 19.3312L10.6944 18.7667C10.6295 18.6961 10.5482 18.6198 10.4505 18.5379C10.3744 18.4794 10.3148 18.4267 10.2715 18.3797L9.8173 17.8857L9.59021 17.6386C9.47153 17.4854 9.40146 17.397 9.37982 17.3734L9.02291 16.9853L8.81147 16.7918L8.58437 16.5448L6.34561 14.1101L6.08606 13.8279L5.8098 13.5638L5.71244 13.4579C5.6908 13.4344 5.6095 13.3581 5.46854 13.2291L5.20899 12.9468L5.14417 12.8763L4.91699 12.6292L4.73809 12.471L4.46174 12.2069L4.23465 11.96L4.05566 11.8017L2.693 10.3198C2.67136 10.2962 2.6553 10.2666 2.6448 10.231L2.51499 10.0898C2.45016 10.0193 2.38033 9.90698 2.30565 9.75294C2.23097 9.59891 2.1504 9.4749 2.06386 9.38077L2.04917 9.25564L2 9.23852L2.03552 9.05873L2.01978 9.00529C2.02043 8.95749 2.03722 8.93933 2.06999 8.95071L2.07104 8.87902C2.13724 8.854 2.15961 8.82978 2.13797 8.8062L2.22056 8.78691C2.24292 8.76261 2.24881 8.73266 2.23832 8.69706L2.66935 8.51057L2.80118 8.50839L2.91727 8.45268C2.93955 8.42838 2.93996 8.40448 2.91832 8.38099L3.00091 8.3617C2.99049 8.32601 2.99082 8.30212 3.00196 8.29001L3.06888 8.21719C3.05839 8.1815 3.13056 8.12661 3.28541 8.05233L3.55109 7.90451L3.86296 7.9888C3.8741 7.97669 3.89606 7.97629 3.92884 7.98767L4.22286 8.16189C4.37568 8.23099 4.48451 8.30083 4.54942 8.37138C4.63588 8.46552 4.69554 8.51823 4.72832 8.52962L4.85813 8.67074C5.01023 8.78764 5.16201 8.92843 5.31338 9.09304L5.58972 9.3572C5.61128 9.38069 5.66012 9.4217 5.73617 9.48007C5.81222 9.53852 5.87188 9.59132 5.91515 9.6383L7.95919 11.8613L8.41347 12.3553C8.64089 12.5784 8.79791 12.737 8.88445 12.8311L9.46846 13.4663L9.61499 13.5891L10.4586 14.5066L10.9777 15.0711C11.2268 15.3178 11.4054 15.4999 11.5136 15.6175L14.1091 18.4404C14.0996 18.4508 14.1121 18.4807 14.1464 18.53Z" fill="currentColor"/>
</svg>
