<svg width="28" height="28" viewBox="0 0 28 28" fill="none" xmlns="http://www.w3.org/2000/svg">
<path d="M20.3624 10.4706H18.1176V3.41176C18.1176 2.63529 17.4824 2 16.7059 2H11.0588C10.2824 2 9.64706 2.63529 9.64706 3.41176V10.4706H7.40235C6.14588 10.4706 5.51059 11.9953 6.4 12.8847L12.88 19.3647C13.4306 19.9153 14.32 19.9153 14.8706 19.3647L21.3506 12.8847C22.24 11.9953 21.6188 10.4706 20.3624 10.4706ZM4 24.5882C4 25.3647 4.63529 26 5.41176 26H22.3529C23.1294 26 23.7647 25.3647 23.7647 24.5882C23.7647 23.8118 23.1294 23.1765 22.3529 23.1765H5.41176C4.63529 23.1765 4 23.8118 4 24.5882Z" fill="#F47920"/>
</svg>
