<svg width="28" height="28" viewBox="0 0 28 28" fill="none" xmlns="http://www.w3.org/2000/svg">
<path d="M26 4H2C1.46957 4 0.960859 4.21071 0.585786 4.58579C0.210714 4.96086 0 5.46957 0 6V22C0 22.5304 0.210714 23.0391 0.585786 23.4142C0.960859 23.7893 1.46957 24 2 24H26C26.5304 24 27.0391 23.7893 27.4142 23.4142C27.7893 23.0391 28 22.5304 28 22V6C28 5.46957 27.7893 4.96086 27.4142 4.58579C27.0391 4.21071 26.5304 4 26 4V4ZM23.8 6L14 12.78L4.2 6H23.8ZM2 22V6.91L13.43 14.82C13.5974 14.9361 13.7963 14.9984 14 14.9984C14.2037 14.9984 14.4026 14.9361 14.57 14.82L26 6.91V22H2Z" fill="#F47920"/>
</svg>
