<svg width="28" height="28" viewBox="0 0 28 28" fill="none" xmlns="http://www.w3.org/2000/svg">
<path d="M21.3742 11.746H19.625C19.6243 11.0503 19.3476 10.3834 18.8557 9.89148C18.3638 9.39958 17.6969 9.12292 17.0012 9.12223V7.37305C18.1606 7.37444 19.272 7.8356 20.0918 8.65539C20.9116 9.47518 21.3728 10.5866 21.3742 11.746V11.746Z" fill="#F47920"/>
<path d="M24.8725 11.7459H23.1233C23.1214 10.1228 22.4758 8.56667 21.3281 7.41895C20.1804 6.27123 18.6243 5.62562 17.0012 5.62377V3.87459C19.0881 3.87691 21.0888 4.70695 22.5645 6.1826C24.0401 7.65826 24.8702 9.65901 24.8725 11.7459V11.7459ZM23.1233 25.7394H22.9746C5.78892 24.7511 3.34881 10.2504 3.00772 5.82493C2.95441 5.13116 3.17886 4.44462 3.63171 3.91633C4.08455 3.38804 4.7287 3.06126 5.42246 3.00787C5.49185 3.00262 5.56152 3 5.63149 3H10.2406C10.5909 2.99966 10.9333 3.10452 11.2233 3.301C11.5133 3.49748 11.7377 3.77652 11.8673 4.10199L13.1967 7.37295C13.3247 7.69091 13.3565 8.03946 13.288 8.37531C13.2196 8.71117 13.054 9.01952 12.8119 9.26207L10.949 11.1424C11.2388 12.7966 12.0303 14.3216 13.2162 15.5106C14.4021 16.6996 15.925 17.4952 17.5784 17.7893L19.4763 15.909C19.7224 15.6695 20.0337 15.5077 20.3712 15.444C20.7087 15.3802 21.0575 15.4172 21.3741 15.5504L24.6713 16.871C24.9919 17.0047 25.2654 17.2308 25.4569 17.5205C25.6485 17.8102 25.7495 18.1504 25.7471 18.4977V23.1156C25.7471 23.8114 25.4706 24.4788 24.9786 24.9709C24.4865 25.4629 23.8192 25.7394 23.1233 25.7394ZM5.63149 4.74918C5.51664 4.74884 5.40284 4.77112 5.2966 4.81475C5.19036 4.85838 5.09375 4.92252 5.01229 5.00349C4.93083 5.08446 4.86612 5.18068 4.82185 5.28666C4.77758 5.39263 4.75462 5.5063 4.75428 5.62115C4.75428 5.64564 4.75515 5.66983 4.7569 5.69374C5.15921 10.8713 7.73925 23.1156 23.0708 23.9902C23.3023 24.004 23.5298 23.9254 23.7033 23.7716C23.8769 23.6177 23.9822 23.4013 23.9961 23.1698L23.9979 23.1156V18.4977L20.7007 17.1771L18.1906 19.6697L17.7708 19.6172C10.1619 18.6639 9.12985 11.055 9.12985 10.9763L9.07737 10.5565L11.5612 8.04639L10.2493 4.74918H5.63149Z" fill="#F47920"/>
</svg>
