<svg width="28" height="28" viewBox="0 0 28 28" fill="none" xmlns="http://www.w3.org/2000/svg">
<path d="M23.1537 18.8667C23.1303 18.8167 23.1086 18.7753 23.0884 18.7421C22.7543 18.1437 22.1159 17.4093 21.1735 16.5385L21.1536 16.5186L21.1436 16.5088L21.1335 16.4988H21.1234C20.6957 16.0933 20.4249 15.8207 20.3115 15.6811C20.1039 15.4153 20.0574 15.1461 20.1709 14.8734C20.251 14.6674 20.552 14.2323 21.0732 13.5675C21.3473 13.2152 21.5644 12.9328 21.7248 12.7201C22.8812 11.1913 23.3825 10.2144 23.2287 9.78894L23.169 9.68952C23.1288 9.62967 23.0252 9.57491 22.8583 9.52498C22.691 9.47515 22.4772 9.46691 22.2165 9.50012L19.3292 9.51995C19.2824 9.50347 19.2156 9.505 19.1286 9.52498C19.0417 9.54495 18.9982 9.55498 18.9982 9.55498L18.948 9.57994L18.9081 9.60994C18.8747 9.62977 18.8379 9.66466 18.7977 9.71453C18.7578 9.76422 18.7244 9.82253 18.6977 9.88899C18.3834 10.6932 18.026 11.441 17.6249 12.1322C17.3775 12.5444 17.1504 12.9016 16.943 13.204C16.7358 13.5063 16.5621 13.7291 16.4218 13.8719C16.2814 14.0148 16.1546 14.1293 16.0407 14.2158C15.9271 14.3024 15.8403 14.3389 15.7802 14.3255C15.72 14.3122 15.6633 14.2989 15.6096 14.2856C15.5161 14.2258 15.4409 14.1444 15.3842 14.0414C15.3272 13.9383 15.2889 13.8087 15.2688 13.6525C15.2489 13.4962 15.2371 13.3617 15.2337 13.2487C15.2306 13.1358 15.232 12.9761 15.2388 12.7701C15.2457 12.564 15.2489 12.4245 15.2489 12.3514C15.2489 12.0987 15.2538 11.8246 15.2637 11.5288C15.2739 11.233 15.282 10.9987 15.2889 10.826C15.2957 10.6532 15.2989 10.4704 15.2989 10.2776C15.2989 10.0849 15.2871 9.93369 15.2637 9.82397C15.2407 9.71439 15.2054 9.60802 15.1588 9.5049C15.1119 9.40188 15.0433 9.3222 14.9532 9.26563C14.863 9.20912 14.7509 9.16429 14.6174 9.13097C14.2631 9.05125 13.812 9.00812 13.2638 9.00142C12.0207 8.98815 11.2219 9.06798 10.8677 9.2408C10.7273 9.31382 10.6003 9.41358 10.4867 9.53978C10.3664 9.68607 10.3496 9.76589 10.4365 9.77902C10.8376 9.83877 11.1215 9.9817 11.2886 10.2077L11.3489 10.3274C11.3957 10.4138 11.4425 10.5668 11.4893 10.7861C11.536 11.0054 11.5662 11.2479 11.5795 11.5137C11.6128 11.999 11.6128 12.4144 11.5795 12.76C11.546 13.1057 11.5144 13.3748 11.4842 13.5676C11.4541 13.7603 11.409 13.9165 11.3489 14.0361C11.2886 14.1558 11.2486 14.2289 11.2285 14.2554C11.2084 14.282 11.1917 14.2987 11.1784 14.3053C11.0916 14.3384 11.0012 14.3552 10.9077 14.3552C10.814 14.3552 10.7005 14.3086 10.5668 14.2155C10.4332 14.1224 10.2946 13.9946 10.1508 13.8317C10.0071 13.6688 9.84501 13.4411 9.66448 13.1487C9.48409 12.8563 9.29693 12.5107 9.10309 12.1119L8.94272 11.8227C8.84247 11.6366 8.70552 11.3657 8.53173 11.0102C8.35784 10.6545 8.20414 10.3105 8.07053 9.97817C8.01712 9.8386 7.93688 9.73234 7.82995 9.65921L7.77977 9.62922C7.74641 9.60268 7.69286 9.5745 7.6194 9.54446C7.54583 9.51447 7.46907 9.49296 7.3888 9.47972L4.64177 9.49956C4.36106 9.49956 4.17059 9.5628 4.0703 9.6891L4.03016 9.74885C4.01011 9.78213 4 9.83528 4 9.90844C4 9.98156 4.02005 10.0713 4.06019 10.1776C4.4612 11.1148 4.8973 12.0187 5.36848 12.8894C5.83965 13.7601 6.2491 14.4615 6.59656 14.9929C6.9441 15.5247 7.29834 16.0266 7.65929 16.4984C8.02024 16.9704 8.25917 17.2728 8.37606 17.4057C8.4931 17.5388 8.58504 17.6383 8.65186 17.7048L8.90255 17.944C9.06295 18.1036 9.29851 18.2946 9.60931 18.5173C9.92019 18.74 10.2644 18.9593 10.642 19.1755C11.0197 19.3914 11.4591 19.5675 11.9604 19.7037C12.4617 19.8401 12.9496 19.8948 13.4242 19.8684H14.5771C14.811 19.8483 14.9881 19.7752 15.1085 19.649L15.1484 19.599C15.1753 19.5594 15.2004 19.4977 15.2235 19.4148C15.247 19.3317 15.2587 19.2402 15.2587 19.1406C15.2518 18.8549 15.2737 18.5973 15.3237 18.3681C15.3737 18.1388 15.4306 17.966 15.4943 17.8496C15.558 17.7333 15.6298 17.6352 15.7098 17.5557C15.7899 17.4759 15.847 17.4276 15.8805 17.411C15.9138 17.3943 15.9404 17.383 15.9604 17.3761C16.1208 17.323 16.3096 17.3745 16.5271 17.5308C16.7443 17.687 16.9481 17.8799 17.1387 18.1091C17.3292 18.3385 17.5581 18.5959 17.8254 18.8817C18.0928 19.1675 18.3267 19.38 18.5271 19.5198L18.7276 19.6394C18.8614 19.7193 19.0352 19.7924 19.2492 19.8588C19.4627 19.9253 19.6498 19.9419 19.8104 19.9087L22.3769 19.8689C22.6308 19.8689 22.8283 19.8271 22.9684 19.7441C23.1088 19.661 23.1922 19.5695 23.2191 19.47C23.2459 19.3703 23.2473 19.2572 23.2242 19.1308C23.2004 19.0047 23.177 18.9165 23.1537 18.8667Z" fill="#F47920"/>
</svg>
