<svg width="28" height="28" viewBox="0 0 28 28" fill="none" xmlns="http://www.w3.org/2000/svg">
<path fill-rule="evenodd" clip-rule="evenodd" d="M21.7826 7.39997C22.5891 7.61541 23.2251 8.24607 23.4422 9.04614C23.8456 10.5075 23.8301 13.5536 23.8301 13.5536C23.8301 13.5536 23.8301 16.5842 23.4424 18.0458C23.2251 18.8457 22.5893 19.4765 21.7826 19.6918C20.3091 20.0765 14.4151 20.0765 14.4151 20.0765C14.4151 20.0765 8.53639 20.0765 7.04748 19.6765C6.24081 19.4611 5.60496 18.8303 5.38774 18.0304C5 16.5842 5 13.5383 5 13.5383C5 13.5383 5 10.5075 5.38774 9.04614C5.60482 8.24621 6.25633 7.60002 7.04733 7.38472C8.52088 7 14.4149 7 14.4149 7C14.4149 7 20.3091 7 21.7826 7.39997ZM17.5532 13.5387L12.8457 16.4155V10.6619L17.5532 13.5387Z" fill="#F47920"/>
</svg>
