<svg width="47" height="48" viewBox="0 0 47 48" fill="none" xmlns="http://www.w3.org/2000/svg">
<circle cx="23.1792" cy="24.1753" r="23.1792" fill="#F5F5F5"/>
<path fill-rule="evenodd" clip-rule="evenodd" d="M23.2723 27.9554C23.3259 27.8971 23.356 27.8569 23.3625 27.8348L23.4432 27.747C23.5101 27.6442 23.5906 27.5416 23.6848 27.4392L23.8358 27.2524C23.8493 27.2378 23.8727 27.2048 23.9062 27.1533C23.9397 27.1019 23.9698 27.0616 23.9967 27.0324L25.2679 25.65L25.5503 25.3428C25.678 25.189 25.7687 25.0828 25.8224 25.0243L26.1857 24.6293L26.256 24.5303L26.7806 23.9598L27.1034 23.6087C27.2445 23.4402 27.3486 23.3195 27.4159 23.2463L29.0301 21.4908C29.0439 21.5059 29.118 21.4403 29.2525 21.294L29.3436 21.2175C29.4378 21.1151 29.4952 21.0751 29.516 21.0977L29.6174 21.0324C29.6512 21.0107 29.6917 20.9817 29.739 20.9453C29.7524 20.9307 29.7694 20.9198 29.7897 20.9126C29.8032 20.898 29.8133 20.8945 29.8203 20.902L29.8814 20.8806L29.9424 20.8593L29.9729 20.8486C29.9933 20.8415 30.0102 20.8306 30.0237 20.816L30.1971 20.7852L30.2789 20.7864L30.4032 20.9216C30.4658 21.0189 30.5241 21.0531 30.5783 21.0242L30.5789 21.0687L30.6318 21.214L30.6323 21.2585L30.6329 21.303L30.6438 21.3587L30.5958 21.6137C30.6027 21.6212 30.5963 21.6582 30.5767 21.7246C30.5502 21.7835 30.5204 21.8535 30.4873 21.9346C30.4607 21.9935 30.4442 22.034 30.4377 22.0561L30.3979 22.1446L30.3379 22.2549C30.3182 22.3213 30.295 22.3691 30.2681 22.3984L30.2283 22.4868C30.2152 22.531 30.1952 22.5678 30.1683 22.5971L30.0581 22.7845C30.0116 22.8802 29.9682 22.9499 29.9278 22.9938L29.6562 23.3568L29.6055 23.3894C29.5852 23.3965 29.5616 23.4147 29.5346 23.444L29.2118 23.795C29.1715 23.8389 29.1278 23.8939 29.0809 23.9599C29.0475 24.0113 29.0173 24.0516 28.9904 24.0809L28.7079 24.3881L28.5667 24.5417C28.4791 24.622 28.4285 24.6694 28.4151 24.684L28.1931 24.9254L28.0824 25.0683L27.9412 25.2219L26.549 26.736L26.3876 26.9116L26.2365 27.0984L26.176 27.1642C26.1625 27.1788 26.1189 27.2338 26.0451 27.3291L25.8837 27.5046L25.8433 27.5485L25.7021 27.7021L25.6116 27.8231L25.4605 28.0099L25.3193 28.1635L25.2288 28.2845L24.3813 29.2061C24.3679 29.2207 24.3509 29.2316 24.3306 29.2387L24.2499 29.3265C24.2095 29.3704 24.1453 29.4176 24.0574 29.4682C23.9694 29.5188 23.8985 29.5734 23.8447 29.6319L23.7733 29.642L23.7634 29.6752L23.6609 29.6514L23.6304 29.6621C23.6031 29.6617 23.5927 29.6504 23.5993 29.6283L23.5584 29.6277C23.5576 29.6253 23.5568 29.623 23.5561 29.6207L23.5009 29.6446L23.4599 29.6453L23.4189 29.646L23.3675 29.658L23.1326 29.6063C23.1257 29.6138 23.0916 29.607 23.0304 29.5857C22.9762 29.5569 22.9118 29.5246 22.8372 29.4887C22.783 29.4599 22.7456 29.4419 22.7253 29.4349L22.6439 29.3917L22.5424 29.3265C22.4813 29.3053 22.4372 29.28 22.4103 29.2508L22.3289 29.2076C22.2882 29.1934 22.2543 29.1717 22.2274 29.1424L22.055 29.0228C21.9669 28.9723 21.9027 28.9251 21.8623 28.8812L21.5285 28.586L21.4985 28.5308C21.492 28.5086 21.4753 28.4829 21.4484 28.4537L21.1256 28.1026C21.0852 28.0587 21.0346 28.0113 20.9739 27.9603C20.9266 27.9239 20.8895 27.8912 20.8626 27.8619L20.5801 27.5547L20.4389 27.4011C20.3651 27.3058 20.3215 27.2508 20.3081 27.2361L20.0861 26.9948L19.9546 26.8745L19.8134 26.7208L18.4212 25.2068L18.2598 25.0312L18.088 24.867L18.0274 24.8011C18.014 24.7865 17.9634 24.7391 17.8758 24.6589L17.7143 24.4834L17.674 24.4395L17.5328 24.2858L17.4215 24.1874L17.2496 24.0232L17.1084 23.8696L16.9971 23.7712L16.1497 22.8496C16.1363 22.835 16.1263 22.8166 16.1197 22.7944L16.039 22.7066C15.9987 22.6628 15.9553 22.5929 15.9088 22.4971C15.8624 22.4014 15.8123 22.3242 15.7585 22.2657L15.7493 22.1879L15.7187 22.1772L15.7408 22.0654L15.7311 22.0322C15.7315 22.0025 15.7419 21.9912 15.7623 21.9983L15.7629 21.9537C15.8041 21.9381 15.818 21.9231 15.8046 21.9084L15.8559 21.8964C15.8698 21.8813 15.8735 21.8627 15.867 21.8405L16.135 21.7245L16.217 21.7232L16.2892 21.6885C16.303 21.6734 16.3033 21.6586 16.2898 21.644L16.3412 21.632C16.3347 21.6098 16.3349 21.5949 16.3418 21.5874L16.3835 21.5421C16.3769 21.5199 16.4218 21.4858 16.5181 21.4396L16.6833 21.3477L16.8773 21.4001C16.8842 21.3925 16.8979 21.3923 16.9182 21.3994L17.1011 21.5077C17.1961 21.5507 17.2638 21.5941 17.3042 21.638C17.3579 21.6965 17.395 21.7293 17.4154 21.7364L17.4962 21.8241C17.5907 21.8968 17.6851 21.9844 17.7793 22.0868L17.9511 22.251C17.9645 22.2656 17.9949 22.2912 18.0422 22.3275C18.0895 22.3638 18.1266 22.3966 18.1535 22.4259L19.4246 23.8083L19.7071 24.1155C19.8486 24.2542 19.9462 24.3529 20 24.4114L20.3632 24.8064L20.4543 24.8828L20.9789 25.4533L21.3017 25.8044C21.4567 25.9578 21.5677 26.071 21.635 26.1442L23.2491 27.8996C23.2432 27.9061 23.2509 27.9247 23.2723 27.9554Z" fill="#F47920"/>
</svg>
