<svg width="16" height="22" viewBox="0 0 16 22" fill="none" xmlns="http://www.w3.org/2000/svg">
<path d="M0 21.9553C0 19.8336 0.842855 17.7988 2.34315 16.2985C3.84344 14.7982 5.87827 13.9553 8 13.9553C10.1217 13.9553 12.1566 14.7982 13.6569 16.2985C15.1571 17.7988 16 19.8336 16 21.9553H14C14 20.364 13.3679 18.8379 12.2426 17.7127C11.1174 16.5875 9.5913 15.9553 8 15.9553C6.4087 15.9553 4.88258 16.5875 3.75736 17.7127C2.63214 18.8379 2 20.364 2 21.9553H0ZM8 12.9553C4.685 12.9553 2 10.2703 2 6.95532C2 3.64032 4.685 0.955322 8 0.955322C11.315 0.955322 14 3.64032 14 6.95532C14 10.2703 11.315 12.9553 8 12.9553ZM8 10.9553C10.21 10.9553 12 9.16532 12 6.95532C12 4.74532 10.21 2.95532 8 2.95532C5.79 2.95532 4 4.74532 4 6.95532C4 9.16532 5.79 10.9553 8 10.9553Z" fill="#F47920"/>
</svg>
