<svg width="23" height="24" viewBox="0 0 23 24" fill="none" xmlns="http://www.w3.org/2000/svg">
<path d="M18.373 9.70132H16.6238C16.6231 9.00567 16.3464 8.3387 15.8545 7.8468C15.3626 7.3549 14.6957 7.07824 14 7.07755V5.32837C15.1594 5.32976 16.2708 5.79092 17.0906 6.61071C17.9104 7.4305 18.3716 8.54197 18.373 9.70132V9.70132Z" fill="#F47920"/>
<path d="M21.8725 9.70123H20.1233C20.1214 8.07811 19.4758 6.52199 18.3281 5.37427C17.1804 4.22655 15.6243 3.58095 14.0012 3.57909V1.82991C16.0881 1.83223 18.0888 2.66227 19.5645 4.13792C21.0401 5.61358 21.8702 7.61434 21.8725 9.70123V9.70123ZM20.1233 23.6947H19.9746C2.78892 22.7064 0.348808 8.20568 0.0077178 3.78025C-0.0455918 3.08648 0.178861 2.39994 0.631705 1.87165C1.08455 1.34336 1.7287 1.01658 2.42246 0.963194C2.49185 0.957947 2.56152 0.955323 2.63149 0.955323H7.24058C7.5909 0.954984 7.93326 1.05985 8.2233 1.25632C8.51334 1.4528 8.7377 1.73185 8.86732 2.05731L10.1967 5.32828C10.3247 5.64623 10.3565 5.99478 10.288 6.33064C10.2196 6.66649 10.054 6.97484 9.81188 7.21739L7.949 9.09776C8.23881 10.7519 9.03033 12.2769 10.2162 13.4659C11.4021 14.6549 12.925 15.4505 14.5784 15.7446L16.4763 13.8643C16.7224 13.6248 17.0337 13.4631 17.3712 13.3993C17.7087 13.3355 18.0575 13.3725 18.3741 13.5057L21.6713 14.8263C21.9919 14.96 22.2654 15.1862 22.4569 15.4759C22.6485 15.7656 22.7495 16.1057 22.7471 16.4531V21.0709C22.7471 21.7668 22.4706 22.4341 21.9786 22.9262C21.4865 23.4182 20.8192 23.6947 20.1233 23.6947ZM2.63149 2.7045C2.51664 2.70416 2.40284 2.72644 2.2966 2.77007C2.19036 2.81371 2.09375 2.87784 2.01229 2.95881C1.93083 3.03978 1.86612 3.136 1.82185 3.24198C1.77758 3.34796 1.75462 3.46162 1.75428 3.57647C1.75428 3.60096 1.75515 3.62516 1.7569 3.64906C2.15921 8.82664 4.73925 21.0709 20.0708 21.9455C20.3023 21.9594 20.5298 21.8807 20.7033 21.7269C20.8769 21.5731 20.9822 21.3566 20.9961 21.1251L20.9979 21.0709V16.4531L17.7007 15.1324L15.1906 17.625L14.7708 17.5725C7.16187 16.6192 6.12985 9.0103 6.12985 8.93159L6.07737 8.51178L8.56121 6.00171L7.24933 2.7045H2.63149Z" fill="#F47920"/>
</svg>
