<?xml version="1.0" encoding="UTF-8" standalone="no"?>
<!DOCTYPE svg PUBLIC "-//W3C//DTD SVG 1.1//EN" "http://www.w3.org/Graphics/SVG/1.1/DTD/svg11.dtd">
<svg width="100%" height="100%" viewBox="0 0 76 101" version="1.1" xmlns="http://www.w3.org/2000/svg" xmlns:xlink="http://www.w3.org/1999/xlink" xml:space="preserve" xmlns:serif="http://www.serif.com/" style="fill-rule:evenodd;clip-rule:evenodd;stroke-linecap:round;stroke-linejoin:round;stroke-miterlimit:1.5;">
    <g transform="matrix(1,0,0,1,-11.9751,-0.0413387)">
        <g transform="matrix(1.05695,0,0,1.06943,-2.89363,-4.57856)">
            <path d="M20.711,39.097C18.951,39.094 17.262,39.784 16.018,41.014C14.773,42.244 14.076,43.914 14.078,45.653C14.097,56.963 14.135,79.992 14.153,91.292C14.156,93.029 14.858,94.693 16.103,95.919C17.348,97.144 19.035,97.831 20.792,97.827C34.468,97.794 65.676,97.72 79.337,97.688C82.989,97.679 85.945,94.749 85.944,91.139C85.939,79.888 85.928,56.98 85.923,45.728C85.922,42.117 82.962,39.189 79.309,39.183C65.64,39.163 34.407,39.117 20.711,39.097ZM20.703,44.707L79.301,44.794C79.823,44.795 80.246,45.213 80.247,45.73L80.267,91.142C80.267,91.658 79.845,92.076 79.323,92.077L20.779,92.216C20.527,92.217 20.287,92.119 20.109,91.944C19.931,91.769 19.831,91.531 19.83,91.283L19.755,45.644C19.755,45.395 19.854,45.157 20.032,44.981C20.21,44.806 20.451,44.707 20.703,44.707Z" style="fill:rgb(244,121,32);"/>
        </g>
        <g transform="matrix(1.30778,0,0,1.30778,-16.9998,-23.3747)">
            <circle cx="51.232" cy="70.253" r="8.029" style="fill:rgb(235,235,235);fill-opacity:0;"/>
            <path d="M51.232,62.224C55.663,62.224 59.261,65.821 59.261,70.253C59.261,74.684 55.663,78.282 51.232,78.282C46.801,78.282 43.203,74.684 43.203,70.253C43.203,65.821 46.801,62.224 51.232,62.224ZM51.232,66.812C53.131,66.812 54.673,68.354 54.673,70.253C54.673,72.152 53.131,73.694 51.232,73.694C49.333,73.694 47.791,72.152 47.791,70.253C47.791,68.354 49.333,66.812 51.232,66.812Z" style="fill:rgb(244,121,32);"/>
        </g>
        <path d="M29.247,40.077L29.221,20.733C29.221,20.733 29.253,3.041 50.012,3.041C70.771,3.041 71.058,20.722 71.058,20.722L71.045,39.979" style="fill:none;stroke:rgb(244,121,32);stroke-width:6px;"/>
    </g>
</svg>
