<svg width="24" height="26" viewBox="0 0 24 26" fill="none" xmlns="http://www.w3.org/2000/svg">
<path d="M9.14481 24.0762C13.7308 19.636 17.318 16.0867 21.3082 12.2766C22.6255 10.937 23.4598 9.62595 23.8111 8.3434C24.4259 5.92308 23.4807 3.82719 21.8351 2.18709C20.2543 0.648021 18.5637 -0.0787659 16.7634 0.00675244C14.963 0.0922708 13.1847 0.975816 11.4282 2.65739L0.230865 13.6019L2.07514 15.3547L13.2725 4.45295C14.4214 3.3894 15.7887 2.38671 17.3562 2.5291C19.7444 2.85553 21.8535 5.70145 21.3082 7.70211C20.6167 9.47713 19.6635 10.2867 18.3442 11.5711C14.3309 15.4685 11.2017 18.4824 7.3006 22.2805C5.83451 23.5848 4.88636 23.938 3.52428 22.7081C2.8217 22.024 2.51433 21.3542 2.60214 20.6987C2.69959 19.9339 3.14431 19.4048 3.65598 18.9031L13.8872 8.94187C14.3546 8.48601 15.4191 7.611 15.8632 8.00134C16.2039 8.77097 15.3264 9.50555 14.8972 9.92519L5.50023 19.0741L7.30056 20.8697L16.7414 11.7208C18.3675 10.0879 19.5358 8.09252 17.7074 6.24855C15.6854 4.55881 13.5552 5.68689 12.0429 7.14636L1.8117 17.1076C0.757862 18.1336 0.157716 19.2452 0.0113736 20.4422C-0.10408 22.1204 0.673051 23.4675 1.72389 24.5037C2.71163 25.4601 3.77873 25.9899 5.10507 26C6.6997 25.9378 8.26763 24.9152 9.14481 24.0762Z" fill="#F47920"/>
</svg>
