<svg width="268" height="280" viewBox="0 0 268 280" fill="none" xmlns="http://www.w3.org/2000/svg">
<path fill-rule="evenodd" clip-rule="evenodd" d="M134.285 228.057C118.764 221.204 98.5696 241.517 84.2176 232.465C70.0755 223.545 78.9954 197.871 67.3673 185.851C50.3201 168.229 15.4115 171.724 4.30375 149.857C-5.3969 130.76 4.48856 104.757 17.5487 87.7765C30.5896 70.8209 58.788 74.1455 74.0548 59.1673C90.0432 43.4812 84.5742 7.46371 106.005 0.992587C127.455 -5.48421 143.167 25.9835 164.81 31.7633C183.505 36.7558 205.68 21.8136 222.133 32.0047C238.428 42.0984 244.961 63.8741 247.376 82.9068C249.594 100.376 231.724 116.297 235.028 133.593C238.993 154.353 265.535 166.157 267.301 187.219C269.045 208.018 257.725 228.621 244.339 244.628C230.428 261.262 211.717 282.53 190.293 279.304C164.961 275.49 157.721 238.406 134.285 228.057Z" fill="white"/>
</svg>
