<svg width="512" height="588" viewBox="0 0 512 588" fill="none" xmlns="http://www.w3.org/2000/svg">
<path fill-rule="evenodd" clip-rule="evenodd" d="M365.325 161.71C385.311 189.662 441.459 175.081 457.14 205.66C472.591 235.792 430.566 271.345 438.438 304.288C449.979 352.584 514.431 382.491 511.241 432.061C508.455 475.352 464.409 510.481 424.133 526.61C383.916 542.716 338.194 507.841 296.137 518.204C252.092 529.057 224.481 597.477 180.453 586.655C136.386 575.824 141.45 504.771 109.686 472.376C82.2491 444.395 28.1878 447.571 10.0204 412.841C-7.97356 378.442 3.09684 333.75 18.5138 298.084C32.6639 265.349 80.2312 256.025 92.3094 222.472C106.807 182.198 72.7168 134.251 91.3593 95.7168C109.768 57.6653 150.747 33.4278 190.587 19.3316C231.987 4.68367 286.535 -13.0913 320.551 14.625C360.772 47.3974 335.147 119.503 365.325 161.71Z" fill="white"/>
</svg>
