<svg width="546" height="517" viewBox="0 0 546 517" fill="none" xmlns="http://www.w3.org/2000/svg">
<path fill-rule="evenodd" clip-rule="evenodd" d="M123.959 34.5063C87.7386 64.8682 93.6908 121.64 74.1551 164.677C53.1866 210.869 -15.849 250.81 4.72159 297.181C28.0543 349.779 123.29 318.894 161.609 361.82C196.639 401.061 149.547 490.528 197.201 512.8C243.154 534.277 280.244 457.767 327.509 439.355C361.71 426.032 400.325 434.9 434.095 420.52C475.345 402.954 534.581 390.956 544.072 347.138C554.132 300.689 479.717 271.726 476.596 224.303C472.973 169.254 545.131 120.895 525.781 69.2315C508.382 22.779 442.749 16.0404 394.415 4.89036C350.287 -5.28918 305.926 3.20027 260.909 8.12985C213.895 13.278 160.204 4.1239 123.959 34.5063Z" fill="white"/>
</svg>
