<svg width="565" height="531" viewBox="0 0 565 531" fill="none" xmlns="http://www.w3.org/2000/svg">
<path fill-rule="evenodd" clip-rule="evenodd" d="M349.805 3.25563C304.104 -8.7936 261.182 28.8392 214.763 37.7305C164.94 47.274 92.4741 13.9589 66.484 57.5245C37.0041 106.94 117.2 166.876 104.269 222.945C92.4476 274.202 -7.79206 287.394 1.53086 339.164C10.5209 389.085 94.4061 375.205 136.724 403.171C167.347 423.407 182.397 460.057 213.634 479.332C251.789 502.875 295.781 544.317 337.04 526.773C380.775 508.175 361.468 430.691 398.39 400.767C441.249 366.031 522.392 397.036 553.407 351.412C581.294 310.389 548.91 252.906 530.112 207.002C512.951 165.093 480.411 133.77 450.399 99.8566C419.056 64.4392 395.537 15.313 349.805 3.25563Z" fill="white"/>
</svg>
