<svg width="137" height="134" viewBox="0 0 137 134" fill="none" xmlns="http://www.w3.org/2000/svg">
<g clip-path="url(#clip0_634_2096)">
<path d="M107.128 37.5459C106.011 36.6607 104.724 36.0099 103.345 35.6321C101.965 35.2539 100.52 35.1567 99.0958 35.3454C99.8553 31.5966 100.029 27.7602 99.6105 23.9728C98.9273 18.2863 96.0649 14.5664 91.9601 14.0167C90.7546 13.8293 89.5193 13.9098 88.3421 14.252C87.1646 14.5947 86.0741 15.191 85.1482 15.9984C82.7004 18.1288 81.0226 21.8832 80.1406 27.199C79.7204 26.5178 79.2916 25.8442 78.8491 25.1724C77.3142 22.8268 72.6166 15.7102 65.6011 16.8573C64.3042 17.0348 63.0807 17.5783 62.0748 18.4238C59.4196 20.7347 58.9048 25.0096 60.5425 31.1227C62.2098 37.3454 65.459 43.6838 69.9698 49.5304C69.3082 50.8048 68.8999 52.1929 68.7681 53.6167C68.3856 58.2473 70.4394 63.0666 72.2365 66.5415C71.1995 67.962 70.6718 69.6857 70.7398 71.4307C70.8023 72.6042 71.1191 73.747 71.6684 74.7806C72.2176 75.814 72.9862 76.7136 73.9213 77.4173C75.5224 78.6602 77.3409 79.5981 79.2876 80.1853C79.049 82.6269 78.4526 84.3429 77.3891 85.7493C77.0385 86.2107 76.6407 86.6346 76.2014 87.0132C75.1499 87.902 73.9495 88.5973 72.6573 89.0662C71.7297 86.9091 70.6093 84.8417 69.3096 82.8887C66.0729 78.1018 61.7968 74.1106 56.7936 71.2067C57.8431 66.894 58.556 62.5104 58.9257 58.0958C59.2501 53.8063 59.2663 48.9234 57.0332 44.9414C56.5769 44.0843 55.9365 43.3397 55.1572 42.7604C54.3779 42.1812 53.4787 41.7812 52.5228 41.589C50.1741 41.1288 47.3315 41.9248 44.9477 43.7491C44.6442 43.9832 44.3482 44.2259 44.0451 44.4896C38.3306 49.4633 35.5438 58.0047 33.7034 63.6588C31.0918 71.6671 28.2565 82.1342 29.5139 92.0645C30.3997 99.0325 33.9182 102.953 38.6825 102.307C39.9109 102.122 41.0845 101.661 42.1142 100.958C41.6435 101.689 41.2254 102.451 40.8632 103.239C38.7757 107.776 38.9722 113.305 41.3896 118.024C43.7438 122.617 47.7877 125.753 52.4933 126.637C57.4751 127.571 62.332 126.128 66.5428 122.463C69.5097 119.806 71.857 116.531 73.415 112.876C74.9413 109.354 75.6701 105.548 75.5493 101.731C81.9727 100.608 87.1951 98.3272 91.0971 94.9311C91.4579 94.6171 91.8215 94.3006 92.147 93.9577C94.1166 91.9687 95.6705 89.6095 96.7153 87.0202C97.7602 84.4308 98.2748 81.6652 98.2287 78.8866C99.6022 78.2617 100.884 77.4483 102.035 76.4704C105.282 73.6444 106.082 69.9426 104.342 66.1826C105.347 64.3513 105.881 62.3029 105.893 60.2248C108.382 57.793 109.614 54.4309 110.041 53.0381C111.534 48.1569 111.687 41.187 107.128 37.5459ZM61.5275 90.6387C56.7479 91.2373 51.1406 92.6915 46.7097 96.022C47.1253 95.4098 47.4746 94.8553 47.7477 94.4173C50.2154 90.4863 51.9614 86.1866 53.4154 81.9709C53.909 82.3127 54.3847 82.665 54.8426 83.0279C57.579 85.0705 59.855 87.6618 61.5275 90.6387ZM51.0526 112.924C49.381 109.646 52.5447 106.526 53.5548 105.647C53.7078 105.514 53.8636 105.378 54.0166 105.245C57.0724 102.846 60.7229 102.308 64.3632 102.301C64.3579 102.586 64.3527 102.871 64.3361 103.161C64.0776 108.43 62.7142 112.021 60.0442 114.455L59.9606 114.528C58.7253 115.603 56.844 116.093 54.8007 115.878C53.2374 115.726 51.9707 114.725 51.0526 112.924Z" fill="white"/>
<path d="M97.4633 24.2629C97.066 20.892 95.5164 16.6758 91.6408 16.162C83.2158 15.0496 81.8691 27.7924 81.6145 34.2251C80.2272 31.5292 78.6963 28.9106 77.0284 26.3805C74.622 22.7296 70.8438 18.184 65.9108 18.9912C60.3828 19.8955 61.6293 26.835 62.6275 30.5644C64.47 37.431 68.1092 43.8558 72.56 49.3488C71.6474 50.6729 71.0794 52.2006 70.9083 53.7917C70.5643 58.0583 72.6171 62.7482 74.5804 66.379C74.6629 66.5326 74.7459 66.6807 74.8294 66.8284L74.8146 66.8413C72.0321 69.5185 72.3193 73.421 75.2685 75.7429C77.1098 77.1568 79.2584 78.1236 81.547 78.5683C81.4455 81.5871 80.9769 84.5745 79.1011 87.0584C77.2254 89.5423 74.3081 91.0044 71.3791 91.7303C70.3835 89.0513 69.0812 86.4991 67.498 84.124C64.1312 79.0901 59.5391 75.1776 54.3089 72.3214C55.5216 67.6158 56.3432 62.8229 56.7651 57.9918C57.0554 54.0826 57.1021 49.5439 55.1375 46.0395C53.1324 42.4651 49.0218 43.3079 46.2313 45.446C40.5878 49.7669 37.8285 57.8737 35.7472 64.2883C32.9317 72.9249 30.4953 82.6441 31.651 91.7463C32.1032 95.2848 33.8447 100.777 38.4134 100.151C41.7832 99.6928 44.2985 95.8807 45.9234 93.2893C48.747 88.7882 50.6294 83.6835 52.2705 78.6688C53.6277 79.4698 54.9358 80.3501 56.1881 81.3049C60.0371 84.1758 63.0151 88.0507 64.8011 92.5122C56.3293 93.0182 46.706 95.7387 42.8314 104.12C39.1017 112.225 44.1333 122.872 52.9245 124.523C61.5006 126.13 68.2365 119.346 71.4447 112.04C73.0834 108.208 73.7195 104.034 73.292 99.9134C79.5777 99.0811 86.0249 97.0009 90.6419 92.4564C94.5663 88.5903 96.4455 83.0627 96.0213 77.6562C96.0167 77.6104 96.0038 77.5658 95.9825 77.5247C101.096 75.5789 105.279 71.7772 101.869 66.1401C103.257 64.1369 103.911 61.7234 103.718 59.3118C105.84 57.6243 107.262 54.7998 107.99 52.4427C109.267 48.3263 109.494 42.2175 105.782 39.2522C104.443 38.2047 102.821 37.5762 101.116 37.444C99.4123 37.3115 97.6999 37.6816 96.1917 38.5083C97.3993 33.8457 98.0476 29.0138 97.4633 24.2629ZM66.499 103.252C66.2637 107.964 65.1206 112.741 61.5005 116.047C59.6295 117.756 56.9923 118.292 54.5611 118.034C52.0021 117.757 50.2421 116.108 49.1242 113.92C47.1355 110.021 49.5913 106.001 52.7056 103.57C56.7586 100.388 61.5892 100.006 66.479 100.198C66.5421 101.214 66.5486 102.233 66.499 103.252Z" fill="#2C314C"/>
<path d="M82.2968 35.5605C83.0881 37.1809 83.8178 38.8299 84.4635 40.4919C87.7532 39.1665 91.2447 38.597 93.6189 40.4626C93.8735 40.1862 94.1442 39.9255 94.4301 39.6815C95.4055 38.8326 96.8182 34.0967 96.9872 28.9757C97.0293 27.8062 96.9953 26.6362 96.8854 25.4729C96.5592 22.0853 95.4496 17.0452 91.1854 16.8146C87.2677 16.6028 85.0522 20.0889 84.0873 23.4331C82.9683 27.3879 82.3665 31.4644 82.2968 35.5605Z" fill="#F47920"/>
<path d="M72.9935 48.7274C74.1976 47.1288 75.6398 45.7231 77.2695 44.5599C78.7832 43.4656 80.3742 42.4827 82.0293 41.6193C84.0297 40.5845 82.4534 36.687 78.5019 30.0483C78.1097 29.3878 77.7097 28.7341 77.3018 28.0873C75.1739 24.7151 71.7743 19.5043 67.2148 19.5807C60.5796 19.6905 62.4487 27.7361 63.7246 31.7898C65.6509 37.9422 68.9701 43.7139 72.9935 48.7274Z" fill="#F47920"/>
<path d="M51.6417 78.3059C51.3162 78.1185 50.9824 77.9331 50.6511 77.7506C49.2167 82.0995 47.4949 86.6135 44.7495 90.3304C43.5365 91.9672 41.746 94.2518 39.5076 94.3667C34.3218 94.6327 35.0704 84.6644 35.3578 81.7194C35.9325 76.358 37.093 71.0682 38.8184 65.9446C40.1335 61.8899 41.6737 57.7442 44.0532 54.1606C45.6206 51.7945 49.8195 46.9329 52.6186 50.6326C54.0548 52.5333 54.3398 55.1453 54.3821 57.4727C54.4644 62.1596 53.5782 66.8179 52.4711 71.3679C52.8742 71.563 53.2766 71.7689 53.676 71.9772C55.0229 66.4671 56.207 60.7582 56.1762 55.0698C56.1646 51.9793 56.0546 44.9472 51.8048 44.3183C46.8587 43.5892 43.1078 49.4785 41.1177 53.119C38.7296 57.6019 36.9965 62.3711 35.5955 67.207C34.0357 72.5716 32.7214 78.0784 32.2782 83.6535C31.9956 87.1753 31.9032 90.8922 32.896 94.3058C33.4476 96.21 34.4601 98.6147 36.5162 99.3045C40.1343 100.518 43.378 96.0221 44.9836 93.4376C47.9398 88.7508 49.9324 83.5454 51.6417 78.3059Z" fill="#FEC771"/>
<path d="M49.7654 70.161C50.456 70.4415 51.1424 70.7407 51.8169 71.0552L52.1079 69.8452C53.1659 65.2328 54.1399 60.2326 53.54 55.5104C53.3126 53.7047 52.7006 50.175 50.2857 50.0579C50.1625 50.0505 50.0389 50.0527 49.9158 50.0643C51.2285 51.8521 51.5022 54.3637 51.5579 56.5142C51.6768 61.1091 50.8372 65.6868 49.7654 70.161Z" fill="#EA9C47"/>
<path d="M48.0079 76.4618C46.6822 80.5859 45.123 84.8031 42.7577 88.4496C41.5796 90.2664 40.0963 92.3387 38.0076 93.185C42.698 97.1171 49.0009 80.371 50.0058 77.4227C49.3494 77.0823 48.6832 76.7656 48.0079 76.4618Z" fill="#EA9C47"/>
<path d="M49.1047 69.8904C50.1149 65.6602 50.9712 61.2533 50.8581 56.9038C50.8679 55.4254 50.6855 53.9543 50.3156 52.5273C49.7392 50.5946 49.0648 50.0296 47.8816 50.844C46.6155 51.7205 45.5892 53.1347 44.865 54.2258C42.7842 57.3542 41.2794 60.8528 40.0664 64.413C39.1138 67.2057 38.2972 66.8094 42.5288 67.8249C44.7666 68.3646 46.9635 69.0547 49.1047 69.8904ZM47.3539 76.1778C45.7723 75.5038 44.1491 74.9292 42.4935 74.4574C40.0254 73.7605 37.5423 73.0114 37.2633 74.276C36.5662 77.2614 36.129 80.2982 35.9567 83.3525C35.8617 85.1433 35.734 87.5084 36.1471 89.6032C36.8415 93.0061 38.3617 92.3342 39.2342 91.6348C40.5516 90.5784 41.5815 89.0459 42.3933 87.6882C44.5729 84.073 46.0775 80.1488 47.3539 76.1778Z" fill="#5E5F68"/>
<path d="M72.663 100.916C72.0533 95.1102 70.296 89.4021 66.9633 84.5939C60.4564 75.2003 50.1232 69.7329 38.9792 67.8214C38.4938 69.4259 38.0366 71.051 37.6327 72.6849C40.8891 73.1745 44.0688 74.0587 47.1017 75.318C54.3637 78.3291 61.4179 83.3044 64.8637 90.5738C66.7172 94.5328 67.5264 98.9099 67.2153 103.294C66.9522 107.485 66.168 112.074 63.2208 115.326C60.5822 118.233 56.2156 119.894 52.4404 118.197C49.4774 116.873 47.2938 113.449 47.7368 110.124C48.1968 106.642 50.6701 103.814 53.6417 102.064C57.7279 99.6549 61.8448 99.2973 66.4101 99.4664C66.2195 97.3101 65.7539 95.1908 65.024 93.159C63.1887 93.2176 61.3582 93.4003 59.5447 93.7055C54.42 94.6595 48.9006 96.7685 45.5351 100.985C42.4091 104.958 41.629 109.89 43.125 114.633C44.959 120.435 50.5965 124.855 56.9366 123.981C61.6006 123.342 65.5259 120.317 68.164 116.483C71.224 112.032 73.2356 106.359 72.663 100.916ZM93.45 78.3161C91.8224 78.7493 90.1539 79.0038 88.4753 79.0746C86.3958 79.1615 84.3161 79.0366 82.2671 78.7023C82.1549 81.8603 81.6305 85.2675 79.4731 87.7309C77.4032 90.0547 74.665 91.6832 71.6421 92.3882C72.4124 94.5842 72.9407 96.86 73.2179 99.1758C79.1062 98.3941 85.4759 96.5218 89.8282 92.2326C91.7732 90.3285 93.2783 88.0246 94.2373 85.485C95.5952 81.824 95.7005 77.7196 93.4474 78.3131L93.45 78.3161Z" fill="#F4EED0"/>
<path d="M101.39 66.7544C98.9702 69.8022 95.0105 71.7505 91.0475 72.6352C87.9981 73.3157 84.6638 73.5582 81.6598 72.6014C78.7744 71.6816 76.7641 69.8899 75.2119 67.4541C73.5633 69.1093 72.7723 72.0818 74.4871 73.9704C75.7459 75.3837 77.3328 76.4671 79.112 77.1279C82.4449 78.3347 86.1704 78.6234 89.711 78.2965C95.5051 77.7568 105.441 74.0432 101.39 66.7544Z" fill="#F47920"/>
<path d="M101.39 66.7531C100.821 67.4613 100.181 68.1089 99.4796 68.6857C99.1529 69.5572 98.6999 70.3785 98.1359 71.1223C97.0385 72.5536 95.4395 73.6299 93.9209 74.5606C92.2182 75.589 90.386 76.3815 88.4748 76.9166C85.4862 77.7186 82.3589 77.8073 79.3474 77.1767L79.1195 77.1246C82.4499 78.3281 86.1701 78.6168 89.7054 78.29C95.5048 77.7556 105.44 74.0416 101.39 66.7531Z" fill="#FEC771"/>
<path d="M103.014 59.78C102.146 60.3442 101.151 60.6813 100.122 60.759C95.0558 61.1214 93.3577 56.4834 92.6617 52.2856C91.4794 53.3831 90.0985 54.2447 88.5951 54.8232C91.1663 55.9764 92.8976 58.3265 93.9133 60.9336C94.0754 61.3586 93.4316 61.6735 93.2671 61.2457C92.736 59.8294 91.9461 58.5267 90.9374 57.4028C88.9429 55.2518 87.6397 55.2991 85.5396 55.7645C84.3094 56.029 83.0643 56.2142 81.812 56.319C81.3471 56.3679 81.2315 55.6521 81.6815 55.6211C87.0365 55.1478 93.1076 53.2299 94.8236 47.4787C95.911 43.8274 93.9536 40.2666 89.9446 40.0843C85.4255 39.8752 80.2893 42.9779 76.8939 45.7379C74.9304 47.3516 73.19 49.2972 72.1734 51.6495C71.3467 53.5613 71.5499 55.6485 71.9967 57.6238C72.9764 61.9554 74.9443 67.8763 78.8247 70.4696C81.753 72.4291 85.4405 72.8261 88.887 72.3156C95.5303 71.3177 103.276 67.4766 103.014 59.78Z" fill="#F47920"/>
<path d="M89.949 40.0711C89.3002 40.0438 88.6496 40.0769 88.0057 40.1696C89.2921 40.5815 90.3849 41.4368 91.091 42.5834C92.2682 44.5191 91.6659 46.7414 90.7986 48.6584C89.853 50.6453 88.5 52.4153 86.8277 53.8525C86.2949 54.3195 85.719 54.7352 85.1084 55.0935C89.4117 54.1581 93.5026 52.0102 94.8636 47.4545C95.9228 43.8227 93.965 40.2623 89.949 40.0711Z" fill="#FEC771"/>
<path d="M104.949 39.4947C101.498 37.1436 96.98 37.9151 94.147 40.9367C94.5514 41.3513 94.8952 41.8209 95.1686 42.3317C96.5436 44.8617 95.8154 47.8947 94.3123 50.2649C93.5933 51.3916 93.0537 53.2136 94.7749 56.6945C96.0634 59.2997 98.2081 61.1748 101.558 59.6566C104.743 58.2115 106.629 54.9523 107.443 51.6795C108.412 47.7859 108.711 42.051 104.949 39.4947Z" fill="#F47920"/>
<path d="M104.949 39.4952C103.687 38.6305 102.195 38.1538 100.656 38.1229C101.136 38.3774 101.587 38.6841 101.999 39.0371C103.086 39.9945 103.723 41.519 104.194 42.8577C105.162 45.6015 104.883 48.4692 103.796 51.1431C102.77 53.6591 100.802 56.1531 98.079 56.8652C97.4808 57.026 96.8557 57.0533 96.2491 56.9447C95.6426 56.8362 95.0693 56.5946 94.5704 56.2374C94.6373 56.3845 94.7067 56.5345 94.7815 56.6898C96.07 59.295 98.2143 61.1704 101.565 59.6521C104.75 58.2066 106.636 54.9478 107.45 51.6748C108.412 47.7864 108.711 42.0516 104.949 39.4952Z" fill="#FEC771"/>
<path d="M71.6635 41.0561C70.2609 40.7741 69.2507 39.3042 68.5891 38.1419C67.2065 35.6516 66.0702 33.0307 65.196 30.3157L65.1811 30.2986C65.1733 30.2923 65.1665 30.2845 65.1613 30.2758C64.7899 29.0563 63.9915 23.5351 67.0684 24.739C68.5401 25.3165 69.4286 26.7922 70.1421 28.1247C71.2993 30.155 72.2427 32.3015 72.9574 34.5302C73.2934 35.5801 74.6396 41.6665 71.6635 41.0561Z" fill="#2C314C"/>
<path d="M70.3925 39.8303C71.6122 40.9576 72.9579 40.7731 73.1196 38.9243C73.2175 37.4545 73.0274 35.9831 72.5601 34.5927C71.9925 32.8517 71.2806 31.1626 70.4321 29.5424C69.7481 28.1743 69.0395 26.5269 67.7703 25.5929C66.8357 24.9036 65.6489 24.8045 65.2769 26.1552C64.9053 27.5055 65.2067 28.866 65.6002 30.1515C66.2145 32.0172 66.9426 33.8425 67.7808 35.6168C68.4842 37.0783 69.1778 38.7086 70.3925 39.8303Z" fill="#F4EED0"/>
<path d="M84.8644 33.4748C83.7286 30.3161 84.5979 26.2685 85.5989 23.1582C86.242 21.4665 88.5652 19.2641 89.9441 21.6755C90.7606 23.1037 90.6262 24.8837 90.417 26.4732C90.2214 28.1855 89.8122 29.8693 89.1993 31.4851C88.7631 32.5811 88.0175 34.1717 86.7672 34.5186C85.8757 34.7886 85.1699 34.321 84.8644 33.4748Z" fill="#2C314C"/>
<path d="M85.8355 34.0908C87.2523 34.7861 88.4711 32.2527 88.7885 31.3704C89.6086 29.1876 90.0587 26.8878 90.12 24.5663C90.1282 23.4623 89.9983 21.4014 88.574 21.1234C87.1501 20.845 86.4161 22.21 86.0015 23.3072C85.2033 25.6513 84.8141 28.1097 84.8502 30.5756C84.8863 31.4557 84.8267 33.5964 85.8355 34.0908Z" fill="#F4EED0"/>
<path d="M105.005 47.001C106.874 47.8784 106.224 50.8086 105.747 52.3356C105.27 53.8627 104.003 57.6511 101.677 56.8445C99.3523 56.0381 100.504 52.431 101.065 50.7556C101.522 49.5318 103.066 46.0841 105.005 47.001Z" fill="#2C314C"/>
<path d="M104.582 47.3376C102.888 47.3088 101.935 49.6114 101.466 50.8907C101.093 51.8812 100.854 52.9151 100.754 53.9654C100.704 55.01 100.944 56.9352 102.531 56.4559C104.291 55.9257 105.046 53.39 105.453 51.8182C105.709 50.8998 106.425 47.3809 104.582 47.3376Z" fill="#F4EED0"/>
<path d="M83.1411 45.1025C83.1815 42.678 87.2853 41.9964 89.0592 41.855C89.0592 41.855 89.0592 41.855 89.0741 41.8721C89.0889 41.8892 89.0884 41.8597 89.0945 41.8544C90.4375 41.8125 92.844 42.2926 92.7692 44.1007C92.6835 46.229 89.8865 46.8852 88.2157 47.0922C86.8426 47.2805 83.1059 47.3521 83.1411 45.1025Z" fill="#2C314C"/>
<path d="M88.5223 46.6251C89.6865 46.4182 92.7258 45.7665 92.3402 43.9483C92.0363 42.5148 90.3279 42.2536 89.0806 42.2773C87.9335 42.3511 86.8042 42.6131 85.7379 43.0528C84.9996 43.3697 83.5682 43.8993 83.552 44.9001C83.5338 47.0999 87.1428 46.864 88.5223 46.6251Z" fill="#F4EED0"/>
<path d="M92.6389 17.1148C93.3902 17.9008 93.9889 18.8195 94.4045 19.8257C95.5625 22.4794 95.0784 25.5655 94.5352 28.3274C93.8867 31.6268 92.6249 34.8738 90.0519 37.1633C88.8677 38.2667 87.3343 38.9196 85.7254 39.0055C85.0394 39.0251 84.3575 38.9064 83.7219 38.6555C83.9831 39.2647 84.2392 39.8733 84.483 40.4976C87.7727 39.1721 91.2641 38.6027 93.6384 40.4683C93.893 40.1918 94.1641 39.9308 94.45 39.6868C95.4254 38.8379 96.8377 34.1023 97.0067 28.9814C97.0488 27.8119 97.0148 26.6418 96.9049 25.4786C96.5983 22.5096 95.7129 18.2812 92.6389 17.1148Z" fill="#FEC771"/>
<path d="M77.2962 28.0878C75.1677 24.7159 71.7686 19.5048 67.2091 19.5812C66.9462 19.5855 66.6835 19.6051 66.4229 19.6393C68.1294 20.348 69.6228 21.5677 70.9255 22.8431C73.5982 25.5152 75.6538 28.7394 76.9507 32.2955C78.1793 35.624 78.1062 38.9084 77.0722 42.3128C76.7051 43.5049 76.2528 44.6703 75.7189 45.7999C76.2329 45.3525 76.7525 44.9353 77.2684 44.5614C78.7826 43.4667 80.3736 42.4838 82.0287 41.6204C84.0292 40.5856 82.4528 36.6881 78.5013 30.0493C78.107 29.3873 77.7057 28.7331 77.2962 28.0878Z" fill="#FEC771"/>
<path d="M92.6626 52.2849C91.4807 53.3821 90.0999 54.2437 88.5965 54.8222C91.0007 55.9003 92.6709 58.023 93.7075 60.4267C94.3004 60.8682 94.7907 61.4316 95.1462 62.0797C95.4714 62.7317 95.6275 63.4564 95.6013 64.1884C95.5755 64.92 95.3673 65.6363 94.9963 66.2724C93.3889 69.2042 89.1906 70.2084 86.1491 70.3211C82.8499 70.4397 79.6098 69.5233 76.8837 67.7013C76.216 67.2423 75.6052 66.7065 75.0633 66.1049C76.0618 67.8756 77.2949 69.432 78.8461 70.4512C81.7743 72.4107 85.4623 72.8073 88.9087 72.2975C95.5407 71.3033 103.286 67.4627 103.024 59.766C102.156 60.3303 101.161 60.667 100.133 60.7451C95.0545 61.1227 93.3473 56.4926 92.6626 52.2849Z" fill="#FEC771"/>
<path d="M37.6444 72.6747C40.9009 73.1643 44.0806 74.0485 47.1135 75.3077C54.3755 78.3189 61.4297 83.2942 64.8755 90.5635C65.1727 91.1964 65.4373 91.8326 65.6796 92.4782C65.119 90.3804 64.3634 88.3417 63.4226 86.3882C60.7593 80.86 56.9394 75.9764 52.2173 72.0627C48.0446 70.0143 43.5899 68.5824 38.991 67.8111C38.4941 69.4257 38.0369 71.0508 37.6444 72.6747Z" fill="#DBD4B9"/>
<path d="M93.4493 78.3144C91.8221 78.7481 90.1536 79.0025 88.4742 79.0733L87.6986 79.0971C88.7317 80.3307 89.306 81.8844 89.3258 83.5018C89.3197 86.292 87.585 88.9436 85.5812 90.7676C83.5778 92.592 80.9099 93.8568 78.3472 94.7997C76.519 95.4634 74.6282 95.9339 72.7059 96.2033C72.9222 97.1977 73.0971 98.1971 73.2154 99.2013C79.1034 98.4192 85.473 96.547 89.8256 92.2582C91.7706 90.3541 93.276 88.05 94.2346 85.5108C95.5971 81.8253 95.7024 77.7209 93.4493 78.3144Z" fill="#DBD4B9"/>
<path d="M47.537 110.121C47.5648 110.6 47.6249 111.076 47.7176 111.546C47.677 111.078 47.6865 110.606 47.7457 110.139C48.2058 106.658 50.6791 103.829 53.6506 102.08C57.7369 99.6704 61.8538 99.3128 66.4191 99.4819C66.3344 98.5398 66.1973 97.604 66.0083 96.6788C64.7319 96.7625 63.4541 96.8679 62.1819 97.0439C57.2887 97.716 52.7349 99.5006 49.6369 103.529C48.1613 105.409 47.4148 107.752 47.537 110.121Z" fill="#DBD4B9"/>
<path d="M40.5717 75.1866C40.5628 74.7685 40.5647 74.3511 40.5696 73.9312C38.8654 73.5059 37.4675 73.3451 37.2537 74.2826C36.5567 77.2679 36.1194 80.3048 35.9471 83.359C35.8608 85.1423 35.7331 87.5074 36.1462 89.6022C36.8406 93.0051 38.3608 92.3331 39.2333 91.6339C40.5507 90.5774 41.5806 89.0449 42.3923 87.6872C42.6885 87.1941 42.9669 86.6863 43.2444 86.1893C43.0434 85.8884 42.8539 85.5774 42.6764 85.2511C41.0628 82.2024 40.6237 78.5975 40.5717 75.1866Z" fill="#474A56"/>
<path d="M44.3932 54.9653C42.5998 57.9381 41.1519 61.1025 40.0779 64.3963C39.2506 66.8144 38.5311 66.8444 41.0966 67.4667C41.6202 63.8041 42.4908 60.1951 43.6966 56.6885C43.8995 56.103 44.1319 55.5278 44.3932 54.9653Z" fill="#474A56"/>
<path d="M34.2647 94.2523C31.2112 85.5396 34.5648 72.7481 35.6637 66.9881L35.5983 67.2102C34.0386 72.5749 32.7243 78.0816 32.2811 83.6567C31.9985 87.1785 31.9061 90.8955 32.8989 94.309C33.4505 96.2132 34.463 98.6179 36.5191 99.3077C40.1372 100.522 43.3809 96.0254 44.9865 93.4408C46.0714 91.7063 47.046 89.9061 47.9042 88.0512C41.0409 99.1239 36.5127 100.676 34.2647 94.2523Z" fill="#F25555"/>
<path d="M93.9496 22.1611C93.8444 22.9438 94.132 23.7054 94.2579 24.4673C94.3668 25.4179 94.6303 26.3423 95.0378 27.2047C95.1692 27.461 95.6047 27.4776 95.675 27.151C96.1016 25.5074 95.8838 23.0022 94.3938 21.9198C94.351 21.8926 94.3016 21.8771 94.251 21.8743C94.2 21.8719 94.149 21.8827 94.1032 21.9055C94.0573 21.9283 94.0177 21.9627 93.9887 22.0049C93.9597 22.0472 93.9419 22.0961 93.9372 22.1468L93.9496 22.1611Z" fill="white"/>
<path d="M84.0402 58.1161C85.1597 58.6095 86.3954 58.7762 87.4949 59.3519C88.5348 59.8995 89.5326 60.6439 90.5259 61.267C90.5838 61.3037 90.651 61.3229 90.7197 61.322C90.7885 61.3212 90.8559 61.3002 90.9134 61.2618C90.9709 61.2234 91.0163 61.1692 91.0437 61.1059C91.0716 61.0423 91.0799 60.9727 91.0684 60.9051C90.7855 59.298 89.8371 58.3252 88.3251 57.6777C86.9832 57.0974 85.2322 56.688 83.9559 57.6636C83.9244 57.6941 83.9002 57.7322 83.8866 57.7736C83.8726 57.8155 83.8691 57.8598 83.8761 57.903C83.8831 57.9462 83.9004 57.9871 83.9272 58.0214C83.9536 58.0561 83.9882 58.0836 84.0278 58.1019L84.0402 58.1161Z" fill="white"/>
<path d="M93.7216 73.8074C94.571 74.5209 96.1149 74.0337 97.0366 73.6473C98.2705 73.1297 99.7175 72.2106 100.021 70.8291C100.084 70.5392 99.878 70.1577 99.5255 70.2593C98.4229 70.5722 97.6204 71.3808 96.6443 71.9549C95.7553 72.4781 94.4126 72.695 93.697 73.4235C93.6699 73.4486 93.648 73.4797 93.6345 73.5142C93.6209 73.5486 93.6148 73.5856 93.6169 73.6222C93.6194 73.6593 93.6301 73.6953 93.648 73.7273C93.6663 73.7589 93.6914 73.7868 93.7216 73.8074Z" fill="white"/>
<path d="M84.5903 83.5842C84.7098 83.4892 84.8022 83.3643 84.857 83.2222C84.9119 83.0802 84.9274 82.9263 84.9021 82.777C84.8919 82.6055 84.8216 82.444 84.7032 82.3207C84.5847 82.1974 84.426 82.1204 84.2549 82.1033C84.1546 82.1076 84.0564 82.1335 83.9663 82.1787C83.8767 82.2242 83.7972 82.2881 83.7336 82.3661C83.67 82.4441 83.6238 82.5349 83.5976 82.6316C83.5719 82.7288 83.5668 82.8297 83.583 82.9281L83.5898 82.9826L83.5956 83.0825L83.6133 83.1727C83.648 83.2126 83.6484 83.2772 83.6659 83.3322C83.7801 83.4984 83.7918 83.5177 83.713 83.3863C83.7509 83.4657 83.8071 83.5353 83.8767 83.5894C83.9463 83.6435 84.0277 83.6807 84.1144 83.698C84.2011 83.7154 84.2909 83.7127 84.377 83.6899C84.463 83.667 84.5432 83.6252 84.6105 83.5666L84.5903 83.5842Z" fill="white"/>
</g>
<defs>
<clipPath id="clip0_634_2096">
<rect width="108.955" height="81.9757" fill="white" transform="translate(0.314758 71.8351) rotate(-41.0349)"/>
</clipPath>
</defs>
</svg>
