<svg width="85" height="125" viewBox="0 0 85 125" fill="none" xmlns="http://www.w3.org/2000/svg">
<g clip-path="url(#clip0_1722_526)">
<g clip-path="url(#clip1_1722_526)">
<path d="M80.8133 33.2418C79.6959 32.3566 78.4096 31.7058 77.0299 31.328C75.6507 30.9498 74.2057 30.8526 72.781 31.0413C73.5405 27.2925 73.714 23.4561 73.2957 19.6687C72.6125 13.9822 69.7501 10.2623 65.6453 9.71258C64.4398 9.52523 63.2045 9.60569 62.0274 9.94796C60.8499 10.2906 59.7593 10.8869 58.8334 11.6943C56.3857 13.8247 54.7079 17.5791 53.8258 22.8949C53.4057 22.2138 52.9768 21.5401 52.5343 20.8684C50.9994 18.5227 46.3019 11.4061 39.2863 12.5532C37.9895 12.7307 36.7659 13.2742 35.76 14.1197C33.1049 16.4306 32.5901 20.7055 34.2278 26.8187C35.895 33.0413 39.1442 39.3798 43.655 45.2263C42.9934 46.5007 42.5851 47.8888 42.4533 49.3126C42.0708 53.9432 44.1247 58.7625 45.9217 62.2375C44.8847 63.6579 44.357 65.3816 44.425 67.1266C44.4875 68.3001 44.8043 69.4429 45.3536 70.4765C45.9028 71.51 46.6715 72.4095 47.6065 73.1132C49.2076 74.3561 51.0261 75.294 52.9729 75.8812C52.7342 78.3228 52.1379 80.0388 51.0743 81.4452C50.7237 81.9066 50.3259 82.3306 49.8867 82.7091C48.8351 83.5979 47.6348 84.2932 46.3425 84.7621C45.4149 82.605 44.2945 80.5376 42.9948 78.5846C39.7581 73.7977 35.482 69.8065 30.4788 66.9026C31.5283 62.5899 32.2412 58.2064 32.6109 53.7917C32.9354 49.5022 32.9515 44.6194 30.7185 40.6373C30.2621 39.7802 29.6217 39.0356 28.8424 38.4564C28.0631 37.8771 27.1639 37.4771 26.208 37.285C23.8593 36.8247 21.0168 37.6207 18.6329 39.4451C18.3294 39.6792 18.0334 39.9218 17.7303 40.1856C12.0159 45.1592 9.22907 53.7006 7.38866 59.3547C4.77706 67.363 1.94171 77.8301 3.19917 87.7604C4.08492 94.7284 7.60341 98.6486 12.3677 98.0032C13.5962 97.8184 14.7697 97.3571 15.7994 96.6543C15.3287 97.3845 14.9107 98.1468 14.5484 98.9352C12.4609 103.472 12.6574 109.001 15.0749 113.719C17.4291 118.313 21.4729 121.449 26.1785 122.333C31.1603 123.267 36.0172 121.824 40.228 118.159C43.1949 115.502 45.5422 112.227 47.1002 108.571C48.6265 105.05 49.3554 101.244 49.2346 97.4272C55.6579 96.3044 60.8803 94.0232 64.7823 90.627C65.1431 90.313 65.5067 89.9965 65.8322 89.6536C67.8018 87.6646 69.3557 85.3055 70.4005 82.7161C71.4454 80.1268 71.9601 77.3612 71.9139 74.5825C73.2875 73.9576 74.5689 73.1442 75.7201 72.1663C78.9671 69.3403 79.7675 65.6385 78.0273 61.8785C79.0327 60.0473 79.5662 57.9988 79.578 55.9207C82.0668 53.4889 83.2997 50.1268 83.7259 48.734C85.2194 43.8528 85.3718 36.8829 80.8133 33.2418ZM35.2127 86.3346C30.4331 86.9332 24.8258 88.3874 20.3949 91.718C20.8105 91.1057 21.1599 90.5513 21.4329 90.1132C23.9006 86.1823 25.6467 81.8826 27.1006 77.6668C27.5942 78.0086 28.07 78.3609 28.5278 78.7238C31.2642 80.7664 33.5403 83.3577 35.2127 86.3346ZM24.7378 108.62C23.0662 105.342 26.2299 102.222 27.24 101.343C27.393 101.21 27.5489 101.074 27.7018 100.941C30.7576 98.5423 34.4081 98.0043 38.0485 97.9966C38.0432 98.2819 38.0379 98.5672 38.0214 98.8571C37.7628 104.126 36.3994 107.717 33.7295 110.151L33.6458 110.224C32.4105 111.299 30.5293 111.789 28.4859 111.574C26.9227 111.422 25.6559 110.421 24.7378 108.62Z" fill="white"/>
<path d="M71.1485 19.9588C70.7512 16.588 69.2017 12.3718 65.326 11.8579C56.901 10.7455 55.5544 23.4883 55.2998 29.9211C53.9125 27.2251 52.3816 24.6066 50.7137 22.0764C48.3073 18.4256 44.529 13.8799 39.596 14.6872C34.0681 15.5914 35.3145 22.531 36.3128 26.2603C38.1553 33.1269 41.7945 39.5517 46.2453 45.0447C45.3327 46.3688 44.7647 47.8965 44.5935 49.4877C44.2495 53.7542 46.3024 58.4441 48.2656 62.0749C48.3481 62.2286 48.4312 62.3766 48.5147 62.5244L48.4999 62.5372C45.7174 65.2144 46.0046 69.117 48.9538 71.4389C50.7951 72.8527 52.9437 73.8195 55.2323 74.2642C55.1308 77.283 54.6622 80.2704 52.7864 82.7543C50.9106 85.2382 47.9934 86.7003 45.0644 87.4262C44.0688 84.7472 42.7665 82.195 41.1832 79.8199C37.8164 74.786 33.2243 70.8736 27.9942 68.0173C29.2069 63.3117 30.0285 58.5188 30.4504 53.6877C30.7407 49.7785 30.7874 45.2398 28.8228 41.7354C26.8177 38.161 22.707 39.0038 19.9166 41.142C14.2731 45.4628 11.5138 53.5696 9.43251 59.9843C6.617 68.6209 4.18058 78.34 5.33627 87.4423C5.78849 90.9807 7.53001 96.4726 12.0987 95.8472C15.4684 95.3887 17.9837 91.5766 19.6087 88.9852C22.4323 84.4841 24.3147 79.3794 25.9558 74.3647C27.313 75.1658 28.6211 76.046 29.8733 77.0009C33.7224 79.8717 36.7004 83.7466 38.4864 88.2081C30.0146 88.7141 20.3913 91.4346 16.5167 99.816C12.787 107.921 17.8186 118.568 26.6098 120.218C35.1859 121.826 41.9218 115.042 45.13 107.736C46.7686 103.904 47.4048 99.73 46.9773 95.6094C53.2629 94.777 59.7102 92.6968 64.3272 88.1523C68.2516 84.2862 70.1308 78.7586 69.7066 73.3521C69.7019 73.3064 69.689 73.2617 69.6678 73.2206C74.7814 71.2748 78.9646 67.4732 75.5546 61.836C76.9423 59.8328 77.596 57.4193 77.4031 55.0077C79.5257 53.3203 80.9474 50.4957 81.6755 48.1386C82.9519 44.0223 83.1797 37.9134 79.4677 34.9481C78.1288 33.9006 76.5065 33.2721 74.8018 33.1399C73.0975 33.0074 71.3852 33.3775 69.8769 34.2042C71.0845 29.5416 71.7328 24.7098 71.1485 19.9588ZM40.1843 98.9474C39.949 103.66 38.8059 108.437 35.1857 111.743C33.3147 113.451 30.6776 113.988 28.2464 113.73C25.6874 113.453 23.9274 111.804 22.8095 109.616C20.8208 105.717 23.2766 101.697 26.3909 99.2661C30.4438 96.0843 35.2745 95.7017 40.1643 95.894C40.2274 96.91 40.2339 97.9292 40.1843 98.9474Z" fill="#2C314C"/>
<path d="M55.982 31.2564C56.7733 32.8768 57.5031 34.5258 58.1488 36.1878C61.4385 34.8624 64.93 34.2929 67.3042 36.1585C67.5588 35.8821 67.8295 35.6214 68.1154 35.3774C69.0908 34.5285 70.5035 29.7926 70.6725 24.6716C70.7146 23.5021 70.6806 22.3321 70.5707 21.1688C70.2444 17.7812 69.1349 12.7411 64.8706 12.5105C60.953 12.2988 58.7375 15.7848 57.7726 19.129C56.6536 23.0838 56.0517 27.1603 55.982 31.2564Z" fill="#F47920"/>
<path d="M46.6788 44.4233C47.8828 42.8247 49.3251 41.4191 50.9547 40.2559C52.4685 39.1615 54.0594 38.1787 55.7146 37.3153C57.715 36.2804 56.1387 32.3829 52.1871 25.7442C51.795 25.0837 51.3949 24.43 50.9871 23.7832C48.8591 20.411 45.4595 15.2002 40.9 15.2766C34.2649 15.3864 36.1339 23.432 37.4099 27.4858C39.3362 33.6381 42.6554 39.4098 46.6788 44.4233Z" fill="#F47920"/>
<path d="M25.327 74.0019C25.0015 73.8144 24.6677 73.629 24.3364 73.4465C22.902 77.7955 21.1802 82.3095 18.4348 86.0263C17.2218 87.6631 15.4313 89.9478 13.1929 90.0626C8.0071 90.3286 8.75571 80.3604 9.04313 77.4153C9.61785 72.0539 10.7783 66.7641 12.5037 61.6405C13.8188 57.5858 15.359 53.4402 17.7385 49.8565C19.3059 47.4905 23.5048 42.6288 26.3039 46.3286C27.7401 48.2292 28.0251 50.8412 28.0674 53.1686C28.1497 57.8555 27.2635 62.5138 26.1564 67.0638C26.5596 67.259 26.9619 67.4648 27.3613 67.6731C28.7082 62.163 29.8923 56.4541 29.8615 50.7657C29.8499 47.6752 29.7399 40.6431 25.4901 40.0143C20.544 39.2851 16.7931 45.1745 14.803 48.8149C12.4149 53.2978 10.6818 58.067 9.28076 62.9029C7.72105 68.2676 6.40675 73.7743 5.96349 79.3494C5.68091 82.8712 5.58854 86.5882 6.58134 90.0017C7.13292 91.9059 8.1454 94.3106 10.2015 95.0004C13.8196 96.2143 17.0634 91.718 18.6689 89.1335C21.6252 84.4467 23.6177 79.2413 25.327 74.0019Z" fill="#FEC771"/>
<path d="M23.4506 65.8569C24.1412 66.1374 24.8277 66.4366 25.5021 66.7511L25.7932 65.5412C26.8511 60.9287 27.8251 55.9285 27.2252 51.2063C26.9978 49.4006 26.3859 45.8709 23.9709 45.7538C23.8478 45.7465 23.7241 45.7486 23.6011 45.7602C24.9137 47.548 25.1874 50.0597 25.2432 52.2101C25.362 56.805 24.5224 61.3827 23.4506 65.8569Z" fill="#EA9C47"/>
<path d="M21.693 72.1577C20.3674 76.2819 18.8082 80.499 16.4429 84.1455C15.2648 85.9623 13.7815 88.0346 11.6928 88.8809C16.3831 92.813 22.6861 76.067 23.691 73.1187C23.0346 72.7783 22.3683 72.4616 21.693 72.1577Z" fill="#EA9C47"/>
<path d="M22.7899 65.5863C23.8001 61.3561 24.6564 56.9493 24.5432 52.5998C24.5531 51.1213 24.3707 49.6502 24.0007 48.2232C23.4243 46.2906 22.7499 45.7255 21.5668 46.5399C20.3007 47.4164 19.2744 48.8306 18.5501 49.9218C16.4694 53.0501 14.9646 56.5488 13.7516 60.1089C12.799 62.9016 11.9824 62.5054 16.214 63.5208C18.4518 64.0605 20.6487 64.7506 22.7899 65.5863ZM21.039 71.8737C19.4575 71.1997 17.8343 70.6252 16.1787 70.1533C13.7106 69.4564 11.2275 68.7073 10.9485 69.972C10.2514 72.9573 9.81423 75.9942 9.64187 79.0484C9.54688 80.8392 9.41917 83.2043 9.83231 85.2992C10.5267 88.702 12.0469 88.0301 12.9194 87.3307C14.2368 86.2743 15.2667 84.7418 16.0785 83.3841C18.258 79.769 19.7627 75.8447 21.039 71.8737Z" fill="#5E5F68"/>
<path d="M46.3482 96.6119C45.7385 90.8061 43.9812 85.0981 40.6485 80.2898C34.1416 70.8962 23.8084 65.4288 12.6644 63.5173C12.1791 65.1218 11.7218 66.747 11.3179 68.3808C14.5743 68.8705 17.754 69.7547 20.7869 71.0139C28.0489 74.025 35.1031 79.0004 38.5489 86.2697C40.4024 90.2287 41.2116 94.6058 40.9005 98.9897C40.6374 103.181 39.8532 107.77 36.906 111.022C34.2674 113.929 29.9008 115.59 26.1256 113.893C23.1626 112.569 20.979 109.145 21.422 105.819C21.882 102.338 24.3553 99.5095 27.3269 97.7601C31.4131 95.3508 35.53 94.9932 40.0953 95.1623C39.9047 93.006 39.4392 90.8867 38.7092 88.8549C36.8739 88.9135 35.0435 89.0962 33.2299 89.4015C28.1052 90.3554 22.5858 92.4645 19.2203 96.6809C16.0943 100.654 15.3142 105.586 16.8102 110.329C18.6442 116.131 24.2817 120.551 30.6218 119.677C35.2858 119.038 39.2111 116.013 41.8493 112.179C44.9092 107.728 46.9208 102.055 46.3482 96.6119ZM67.1352 74.012C65.5076 74.4452 63.8391 74.6997 62.1606 74.7705C60.081 74.8575 58.0013 74.7325 55.9523 74.3982C55.8401 77.5562 55.3158 80.9634 53.1583 83.4268C51.0884 85.7506 48.3502 87.3791 45.3273 88.0841C46.0976 90.2801 46.6259 92.556 46.9031 94.8717C52.7915 94.09 59.1611 92.2177 63.5134 87.9286C65.4584 86.0244 66.9635 83.7205 67.9225 81.1809C69.2804 77.5199 69.3857 73.4155 67.1326 74.009L67.1352 74.012Z" fill="#F4EED0"/>
<path d="M75.0751 62.4503C72.6554 65.4981 68.6957 67.4464 64.7327 68.3312C61.6834 69.0117 58.3491 69.2541 55.345 68.2973C52.4596 67.3775 50.4493 65.5858 48.8971 63.15C47.2485 64.8052 46.4576 67.7777 48.1724 69.6664C49.4311 71.0796 51.0181 72.1631 52.7973 72.8239C56.1302 74.0306 59.8557 74.3193 63.3962 73.9924C69.1903 73.4527 79.1263 69.7392 75.0751 62.4503Z" fill="#F47920"/>
<path d="M75.0748 62.449C74.5065 63.1572 73.8665 63.8048 73.1648 64.3816C72.8381 65.2531 72.3852 66.0744 71.8211 66.8182C70.7237 68.2495 69.1247 69.3258 67.6061 70.2566C65.9035 71.2849 64.0712 72.0774 62.1601 72.6125C59.1714 73.4145 56.0441 73.5032 53.0327 72.8726L52.8047 72.8206C56.1351 74.024 59.8553 74.3128 63.3906 73.9859C69.19 73.4515 79.1255 69.7375 75.0748 62.449Z" fill="#FEC771"/>
<path d="M76.6994 55.4759C75.8308 56.0401 74.8357 56.3772 73.8074 56.4549C68.741 56.8173 67.0428 52.1793 66.3469 47.9815C65.1646 49.079 63.7837 49.9406 62.2803 50.5191C64.8515 51.6723 66.5827 54.0224 67.5985 56.6295C67.7605 57.0545 67.1167 57.3694 66.9522 56.9416C66.4212 55.5253 65.6313 54.2226 64.6226 53.0988C62.6281 50.9477 61.3249 50.995 59.2248 51.4604C57.9946 51.725 56.7495 51.9101 55.4972 52.0149C55.0323 52.0639 54.9167 51.348 55.3667 51.3171C60.7217 50.8437 66.7928 48.9258 68.5088 43.1746C69.5961 39.5233 67.6388 35.9626 63.6298 35.7802C59.1106 35.5711 53.9745 38.6738 50.5791 41.4338C48.6156 43.0476 46.8751 44.9931 45.8586 47.3455C45.0318 49.2572 45.2351 51.3444 45.6819 53.3197C46.6616 57.6513 48.6295 63.5722 52.5099 66.1656C55.4381 68.125 59.1257 68.522 62.5722 68.0115C69.2155 67.0136 76.9609 63.1726 76.6994 55.4759Z" fill="#F47920"/>
<path d="M63.6343 35.767C62.9855 35.7398 62.3348 35.7728 61.691 35.8655C62.9773 36.2775 64.0702 37.1327 64.7762 38.2794C65.9535 40.215 65.3512 42.4373 64.4838 44.3543C63.5383 46.3412 62.1853 48.1112 60.513 49.5484C59.9802 50.0154 59.4042 50.4311 58.7936 50.7894C63.0969 49.854 67.1878 47.7061 68.5489 43.1504C69.6081 39.5187 67.6503 35.9582 63.6343 35.767Z" fill="#FEC771"/>
<path d="M78.634 35.1906C75.1831 32.8396 70.6653 33.611 67.8323 36.6327C68.2367 37.0473 68.5804 37.5168 68.8539 38.0277C70.2289 40.5576 69.5007 43.5906 67.9976 45.9608C67.2785 47.0875 66.739 48.9096 68.4602 52.3905C69.7486 54.9957 71.8934 56.8707 75.2431 55.3525C78.4287 53.9074 80.3144 50.6482 81.1282 47.3755C82.0971 43.4818 82.3959 37.747 78.634 35.1906Z" fill="#F47920"/>
<path d="M78.6345 35.1911C77.3721 34.3264 75.8804 33.8497 74.341 33.8188C74.8216 34.0733 75.272 34.3801 75.6847 34.7331C76.7717 35.6904 77.4084 37.2149 77.8789 38.5536C78.847 41.2975 78.5679 44.1651 77.4812 46.839C76.4551 49.355 74.4873 51.849 71.7643 52.5611C71.166 52.7219 70.5409 52.7493 69.9344 52.6407C69.3278 52.5321 68.7545 52.2905 68.2556 51.9333C68.3225 52.0804 68.3919 52.2304 68.4667 52.3857C69.7552 54.9909 71.8995 56.8663 75.2499 55.3481C78.4352 53.9025 80.3211 50.6437 81.1348 47.3708C82.0975 43.4823 82.3963 37.7475 78.6345 35.1911Z" fill="#FEC771"/>
<path d="M45.3487 36.752C43.9461 36.47 42.9359 35.0001 42.2743 33.8378C40.8917 31.3475 39.7554 28.7266 38.8812 26.0116L38.8663 25.9946C38.8585 25.9882 38.8518 25.9804 38.8465 25.9718C38.4751 24.7522 37.6767 19.231 40.7536 20.4349C42.2253 21.0124 43.1138 22.4881 43.8273 23.8206C44.9845 25.8509 45.928 27.9974 46.6426 30.2261C46.9787 31.276 48.3248 37.3624 45.3487 36.752Z" fill="#2C314C"/>
<path d="M44.0778 35.5262C45.2975 36.6536 46.6432 36.4691 46.8049 34.6203C46.9027 33.1504 46.7127 31.679 46.2454 30.2886C45.6778 28.5476 44.9658 26.8586 44.1174 25.2383C43.4333 23.8702 42.7248 22.2228 41.4556 21.2888C40.521 20.5996 39.3342 20.5005 38.9621 21.8511C38.5905 23.2014 38.892 24.562 39.2855 25.8474C39.8998 27.7131 40.6279 29.5384 41.466 31.3127C42.1694 32.7742 42.8631 34.4045 44.0778 35.5262Z" fill="#F4EED0"/>
<path d="M58.5497 29.1707C57.4138 26.012 58.2832 21.9644 59.2842 18.8541C59.9273 17.1624 62.2505 14.9601 63.6293 17.3714C64.4459 18.7996 64.3115 20.5796 64.1023 22.1692C63.9066 23.8814 63.4974 25.5652 62.8846 27.181C62.4483 28.277 61.7028 29.8676 60.4525 30.2145C59.561 30.4845 58.8552 30.0169 58.5497 29.1707Z" fill="#2C314C"/>
<path d="M59.5207 29.7867C60.9375 30.4821 62.1563 27.9486 62.4737 27.0663C63.2938 24.8835 63.7439 22.5837 63.8052 20.2623C63.8134 19.1582 63.6835 17.0974 62.2592 16.8193C60.8353 16.5409 60.1013 17.906 59.6867 19.0032C58.8884 21.3472 58.4993 23.8057 58.5354 26.2715C58.5715 27.1516 58.5118 29.2923 59.5207 29.7867Z" fill="#F4EED0"/>
<path d="M78.6901 42.6969C80.5596 43.5743 79.9093 46.5045 79.4324 48.0316C78.9555 49.5586 77.6879 53.347 75.3626 52.5404C73.0375 51.734 74.1893 48.1269 74.7503 46.4515C75.2068 45.2277 76.751 41.78 78.6901 42.6969Z" fill="#2C314C"/>
<path d="M78.267 43.0335C76.5735 43.0047 75.62 45.3073 75.1514 46.5866C74.7785 47.5771 74.5389 48.611 74.4388 49.6613C74.3896 50.7059 74.6292 52.6312 76.2159 52.1518C77.9761 51.6216 78.7314 49.0859 79.1388 47.5141C79.394 46.5957 80.1106 43.0768 78.267 43.0335Z" fill="#F4EED0"/>
<path d="M56.8263 40.7984C56.8668 38.3739 60.9706 37.6923 62.7444 37.5509C62.7444 37.5509 62.7444 37.5509 62.7593 37.5681C62.7742 37.5852 62.7737 37.5556 62.7797 37.5503C64.1228 37.5084 66.5292 37.9885 66.4545 39.7967C66.3687 41.925 63.5718 42.5812 61.9009 42.7882C60.5279 42.9764 56.7911 43.048 56.8263 40.7984Z" fill="#2C314C"/>
<path d="M62.2075 42.321C63.3718 42.1142 66.4111 41.4624 66.0254 39.6443C65.7216 38.2107 64.0131 37.9495 62.7658 37.9732C61.6188 38.047 60.4895 38.309 59.4231 38.7487C58.6849 39.0657 57.2535 39.5952 57.2373 40.5961C57.2191 42.7958 60.8281 42.5599 62.2075 42.321Z" fill="#F4EED0"/>
<path d="M66.3242 12.8108C67.0755 13.5967 67.6741 14.5155 68.0898 15.5216C69.2478 18.1754 68.7636 21.2615 68.2205 24.0233C67.572 27.3227 66.3101 30.5698 63.7372 32.8593C62.553 33.9626 61.0196 34.6156 59.4107 34.7014C58.7247 34.721 58.0428 34.6023 57.4072 34.3515C57.6684 34.9606 57.9244 35.5692 58.1682 36.1935C61.458 34.8681 64.9494 34.2986 67.3237 36.1642C67.5783 35.8878 67.8494 35.6267 68.1353 35.3827C69.1107 34.5338 70.523 29.7983 70.6919 24.6773C70.7341 23.5078 70.7001 22.3378 70.5902 21.1745C70.2836 18.2055 69.3982 13.9771 66.3242 12.8108Z" fill="#FEC771"/>
<path d="M50.9813 23.7837C48.8529 20.4118 45.4538 15.2007 40.8943 15.2771C40.6314 15.2815 40.3687 15.301 40.108 15.3353C41.8146 16.0439 43.308 17.2636 44.6107 18.5391C47.2833 21.2111 49.339 24.4353 50.6358 27.9914C51.8645 31.3199 51.7914 34.6044 50.7574 38.0088C50.3903 39.2009 49.938 40.3662 49.4041 41.4958C49.918 41.0484 50.4376 40.6312 50.9536 40.2573C52.4678 39.1626 54.0587 38.1797 55.7139 37.3163C57.7143 36.2815 56.138 32.384 52.1864 25.7452C51.7922 25.0832 51.3909 24.429 50.9813 23.7837Z" fill="#FEC771"/>
<path d="M66.3478 47.9808C65.166 49.078 63.7851 49.9396 62.2817 50.5181C64.6859 51.5962 66.3561 53.7189 67.3927 56.1226C67.9856 56.5641 68.476 57.1275 68.8314 57.7757C69.1566 58.4276 69.3128 59.1523 69.2865 59.8843C69.2607 60.616 69.0525 61.3322 68.6815 61.9683C67.0741 64.9001 62.8758 65.9044 59.8344 66.017C56.5351 66.1356 53.295 65.2192 50.5689 63.3972C49.9012 62.9382 49.2904 62.4024 48.7485 61.8008C49.747 63.5716 50.9801 65.128 52.5313 66.1472C55.4596 68.1066 59.1476 68.5032 62.5939 67.9934C69.2259 66.9992 76.9709 63.1586 76.7094 55.4619C75.8409 56.0262 74.8461 56.3629 73.8182 56.441C68.7398 56.8186 67.0325 52.1885 66.3478 47.9808Z" fill="#FEC771"/>
<path d="M11.3297 68.3706C14.5862 68.8603 17.7659 69.7444 20.7988 71.0036C28.0608 74.0148 35.115 78.9901 38.5608 86.2594C38.858 86.8924 39.1226 87.5285 39.3649 88.1741C38.8043 86.0763 38.0487 84.0376 37.1079 82.0842C34.4446 76.5559 30.6247 71.6723 25.9026 67.7586C21.7299 65.7102 17.2752 64.2783 12.6763 63.507C12.1794 65.1216 11.7222 66.7467 11.3297 68.3706Z" fill="#DBD4B9"/>
<path d="M67.1346 74.0103C65.5073 74.444 63.8389 74.6985 62.1595 74.7692L61.3838 74.793C62.417 76.0266 62.9912 77.5803 63.0111 79.1977C63.0049 81.9879 61.2702 84.6396 59.2665 86.4635C57.2631 88.2879 54.5951 89.5527 52.0325 90.4956C50.2042 91.1593 48.3135 91.6299 46.3912 91.8992C46.6074 92.8936 46.7824 93.893 46.9006 94.8972C52.7886 94.1151 59.1582 92.2429 63.5109 87.9541C65.4559 86.05 66.9612 83.7459 67.9198 81.2067C69.2824 77.5212 69.3877 73.4169 67.1346 74.0103Z" fill="#DBD4B9"/>
<path d="M21.2223 105.817C21.2501 106.296 21.3102 106.772 21.4029 107.242C21.3623 106.774 21.3718 106.302 21.431 105.835C21.8911 102.354 24.3644 99.525 27.3359 97.7757C31.4222 95.3663 35.5391 95.0087 40.1044 95.1778C40.0197 94.2357 39.8826 93.3 39.6936 92.3747C38.4172 92.4584 37.1394 92.5638 35.8672 92.7398C30.974 93.4119 26.4202 95.1965 23.3222 99.2251C21.8466 101.105 21.1001 103.448 21.2223 105.817Z" fill="#DBD4B9"/>
<path d="M14.2568 70.8825C14.248 70.4644 14.2499 70.047 14.2548 69.6271C12.5506 69.2018 11.1527 69.041 10.9389 69.9785C10.2418 72.9639 9.8046 76.0007 9.63233 79.055C9.54595 80.8382 9.41828 83.2033 9.83139 85.2981C10.5257 88.701 12.0459 88.0291 12.9185 87.3298C14.2359 86.2733 15.2658 84.7408 16.0775 83.3831C16.3737 82.89 16.652 82.3822 16.9296 81.8852C16.7285 81.5843 16.5391 81.2734 16.3616 80.947C14.748 77.8984 14.3089 74.2934 14.2568 70.8825Z" fill="#474A56"/>
<path d="M18.0784 50.6612C16.285 53.634 14.8371 56.7985 13.7631 60.0922C12.9358 62.5103 12.2163 62.5404 14.7818 63.1626C15.3054 59.5 16.176 55.891 17.3818 52.3844C17.5847 51.7989 17.8171 51.2237 18.0784 50.6612Z" fill="#474A56"/>
<path d="M7.94998 89.9482C4.89642 81.2355 8.25002 68.444 9.34893 62.684L9.28358 62.9062C7.72387 68.2708 6.40957 73.7776 5.96632 79.3526C5.68373 82.8744 5.59136 86.5914 6.58416 90.0049C7.1357 91.9091 8.14823 94.3138 10.2044 95.0037C13.8224 96.2175 17.0662 91.7213 18.6717 89.1367C19.7567 87.4022 20.7312 85.602 21.5895 83.7472C14.7262 94.8198 10.198 96.3717 7.94998 89.9482Z" fill="#F25555"/>
<path d="M67.6348 17.857C67.5296 18.6398 67.8172 19.4013 67.9431 20.1632C68.0521 21.1138 68.3156 22.0383 68.723 22.9006C68.8544 23.157 69.2899 23.1736 69.3602 22.8469C69.7868 21.2033 69.569 18.6981 68.079 17.6157C68.0362 17.5885 67.9868 17.573 67.9362 17.5703C67.8852 17.5679 67.8343 17.5787 67.7884 17.6015C67.7425 17.6243 67.7029 17.6587 67.6739 17.7009C67.6449 17.7431 67.6271 17.792 67.6224 17.8428L67.6348 17.857Z" fill="white"/>
<path d="M57.7254 53.8121C58.8449 54.3054 60.0806 54.4721 61.1801 55.0479C62.22 55.5954 63.2179 56.3398 64.2111 56.963C64.269 56.9996 64.3362 57.0189 64.405 57.0179C64.4738 57.0171 64.5411 56.9961 64.5986 56.9577C64.6562 56.9193 64.7015 56.8652 64.7289 56.8019C64.7568 56.7382 64.7651 56.6687 64.7536 56.601C64.4707 54.9939 63.5223 54.0211 62.0103 53.3736C60.6684 52.7933 58.9174 52.3839 57.6411 53.3595C57.6096 53.3901 57.5854 53.4281 57.5718 53.4696C57.5578 53.5114 57.5543 53.5557 57.5613 53.5989C57.5684 53.6421 57.5856 53.683 57.6124 53.7174C57.6388 53.7521 57.6735 53.7796 57.713 53.7978L57.7254 53.8121Z" fill="white"/>
<path d="M67.4069 69.5033C68.2563 70.2168 69.8002 69.7296 70.7219 69.3432C71.9558 68.8256 73.4028 67.9065 73.7067 66.525C73.7693 66.2351 73.5633 65.8536 73.2108 65.9552C72.1082 66.2681 71.3057 67.0767 70.3296 67.6508C69.4406 68.174 68.0979 68.391 67.3823 69.1195C67.3552 69.1445 67.3333 69.1756 67.3198 69.2101C67.3062 69.2445 67.3001 69.2815 67.3022 69.3182C67.3047 69.3553 67.3154 69.3912 67.3333 69.4232C67.3516 69.4548 67.3767 69.4828 67.4069 69.5033Z" fill="white"/>
<path d="M58.2755 79.2802C58.3951 79.1851 58.4874 79.0602 58.5422 78.9182C58.5971 78.7761 58.6126 78.6222 58.5873 78.4729C58.5771 78.3014 58.5068 78.14 58.3884 78.0166C58.2699 77.8933 58.1112 77.8164 57.9402 77.7992C57.8398 77.8035 57.7416 77.8294 57.6515 77.8746C57.5619 77.9202 57.4825 77.984 57.4188 78.062C57.3552 78.1401 57.309 78.2308 57.2829 78.3275C57.2571 78.4247 57.252 78.5257 57.2682 78.624L57.275 78.6785L57.2808 78.7784L57.2985 78.8686C57.3332 78.9086 57.3336 78.9731 57.3511 79.0281C57.4653 79.1944 57.477 79.2136 57.3982 79.0822C57.4361 79.1616 57.4923 79.2313 57.5619 79.2854C57.6315 79.3395 57.7129 79.3766 57.7996 79.394C57.8863 79.4113 57.9762 79.4086 58.0622 79.3858C58.1482 79.363 58.2284 79.3211 58.2957 79.2626L58.2755 79.2802Z" fill="white"/>
</g>
</g>
<defs>
<clipPath id="clip0_1722_526">
<rect width="85" height="125" fill="white"/>
</clipPath>
<clipPath id="clip1_1722_526">
<rect width="108.955" height="81.9757" fill="white" transform="translate(-26 67.531) rotate(-41.0349)"/>
</clipPath>
</defs>
</svg>
