<svg width="471" height="166" viewBox="0 0 471 166" fill="none" xmlns="http://www.w3.org/2000/svg">
<g filter="url(#filter0_d_691_2386)">
<path d="M149.826 153.319C92.6902 150.664 47.0816 131.039 31.4193 121.558C-14.9413 92.1683 17.01 12.5311 69.0088 12.5311C121.008 12.5311 149.826 -2.16388 209.969 12.5311C270.113 27.2261 375.99 -2.16388 433.627 25.33C491.264 52.8238 441.771 50.9277 450.542 93.1165C459.313 135.305 434.88 139.572 402.929 139.572C370.978 139.572 329.003 131.987 268.86 139.572C208.716 147.156 221.246 156.637 149.826 153.319Z" fill="#71D0E5"/>
<path d="M149.826 153.319C92.6902 150.664 47.0816 131.039 31.4193 121.558C-14.9413 92.1683 17.01 12.5311 69.0088 12.5311C121.008 12.5311 149.826 -2.16388 209.969 12.5311C270.113 27.2261 375.99 -2.16388 433.627 25.33C491.264 52.8238 441.771 50.9277 450.542 93.1165C459.313 135.305 434.88 139.572 402.929 139.572C370.978 139.572 329.003 131.987 268.86 139.572C208.716 147.156 221.246 156.637 149.826 153.319Z" stroke="white" stroke-width="3"/>
</g>
<defs>
<filter id="filter0_d_691_2386" x="0.503906" y="0.5" width="469.996" height="165" filterUnits="userSpaceOnUse" color-interpolation-filters="sRGB">
<feFlood flood-opacity="0" result="BackgroundImageFix"/>
<feColorMatrix in="SourceAlpha" type="matrix" values="0 0 0 0 0 0 0 0 0 0 0 0 0 0 0 0 0 0 127 0" result="hardAlpha"/>
<feOffset dy="3"/>
<feGaussianBlur stdDeviation="3.5"/>
<feComposite in2="hardAlpha" operator="out"/>
<feColorMatrix type="matrix" values="0 0 0 0 0.134115 0 0 0 0 0.284533 0 0 0 0 0.429167 0 0 0 0.1 0"/>
<feBlend mode="normal" in2="BackgroundImageFix" result="effect1_dropShadow_691_2386"/>
<feBlend mode="normal" in="SourceGraphic" in2="effect1_dropShadow_691_2386" result="shape"/>
</filter>
</defs>
</svg>
