<svg width="449" height="155" viewBox="0 0 449 155" fill="none" xmlns="http://www.w3.org/2000/svg">
<g filter="url(#filter0_d_691_2387)">
<path d="M143.31 129.305C87.9442 126.658 43.7486 107.091 28.5715 97.6383C-16.3528 68.335 23.5464 -13.9145 72.9343 10.8985C116.921 32.998 149.056 16.0763 211.779 16.0765C271.653 16.0766 264.527 -2.5984 330.614 10.8984C390.992 23.2291 459.758 -9.16509 434.71 69.2805C421.704 110.011 387.041 124.159 356.08 124.159C325.118 124.159 322.807 133.424 264.527 140.986C206.247 148.549 212.518 132.613 143.31 129.305Z" fill="#FF7C72"/>
<path d="M143.31 129.305C87.9442 126.658 43.7486 107.091 28.5715 97.6383C-16.3528 68.335 23.5464 -13.9145 72.9343 10.8985C116.921 32.998 149.056 16.0763 211.779 16.0765C271.653 16.0766 264.527 -2.5984 330.614 10.8984C390.992 23.2291 459.758 -9.16509 434.71 69.2805C421.704 110.011 387.041 124.159 356.08 124.159C325.118 124.159 322.807 133.424 264.527 140.986C206.247 148.549 212.518 132.613 143.31 129.305Z" stroke="white" stroke-width="3"/>
</g>
<defs>
<filter id="filter0_d_691_2387" x="0.504883" y="0.5" width="447.995" height="154" filterUnits="userSpaceOnUse" color-interpolation-filters="sRGB">
<feFlood flood-opacity="0" result="BackgroundImageFix"/>
<feColorMatrix in="SourceAlpha" type="matrix" values="0 0 0 0 0 0 0 0 0 0 0 0 0 0 0 0 0 0 127 0" result="hardAlpha"/>
<feOffset dy="3"/>
<feGaussianBlur stdDeviation="3.5"/>
<feComposite in2="hardAlpha" operator="out"/>
<feColorMatrix type="matrix" values="0 0 0 0 0.134115 0 0 0 0 0.284533 0 0 0 0 0.429167 0 0 0 0.1 0"/>
<feBlend mode="normal" in2="BackgroundImageFix" result="effect1_dropShadow_691_2387"/>
<feBlend mode="normal" in="SourceGraphic" in2="effect1_dropShadow_691_2387" result="shape"/>
</filter>
</defs>
</svg>
