<svg width="513" height="148" viewBox="0 0 513 148" fill="none" xmlns="http://www.w3.org/2000/svg">
<g filter="url(#filter0_d_691_2389)">
<path d="M305.443 118.007C238.903 99.8933 92.6122 153.792 40.5684 112.812C-10.3501 72.7188 0.361599 -24.5569 72.4629 17.036C121.314 45.2164 175.897 7.44826 236.108 17.036C322.876 30.8526 355.563 -4.93214 460.12 9.49704C558.849 23.1219 460.12 92.6109 460.12 92.6109C450.677 152.638 383.892 139.362 305.443 118.007Z" fill="#FFC54B"/>
<path d="M305.443 118.007C238.903 99.8933 92.6122 153.792 40.5684 112.812C-10.3501 72.7188 0.361599 -24.5569 72.4629 17.036C121.314 45.2164 175.897 7.44826 236.108 17.036C322.876 30.8526 355.563 -4.93214 460.12 9.49704C558.849 23.1219 460.12 92.6109 460.12 92.6109C450.677 152.638 383.892 139.362 305.443 118.007Z" stroke="white" stroke-width="3"/>
</g>
<defs>
<filter id="filter0_d_691_2389" x="0.5" y="0.500061" width="512.003" height="147" filterUnits="userSpaceOnUse" color-interpolation-filters="sRGB">
<feFlood flood-opacity="0" result="BackgroundImageFix"/>
<feColorMatrix in="SourceAlpha" type="matrix" values="0 0 0 0 0 0 0 0 0 0 0 0 0 0 0 0 0 0 127 0" result="hardAlpha"/>
<feOffset dy="3"/>
<feGaussianBlur stdDeviation="3.5"/>
<feComposite in2="hardAlpha" operator="out"/>
<feColorMatrix type="matrix" values="0 0 0 0 0.134115 0 0 0 0 0.284533 0 0 0 0 0.429167 0 0 0 0.1 0"/>
<feBlend mode="normal" in2="BackgroundImageFix" result="effect1_dropShadow_691_2389"/>
<feBlend mode="normal" in="SourceGraphic" in2="effect1_dropShadow_691_2389" result="shape"/>
</filter>
</defs>
</svg>
