<svg width="726" height="759" viewBox="0 0 726 759" fill="none" xmlns="http://www.w3.org/2000/svg">
<path fill-rule="evenodd" clip-rule="evenodd" d="M364.004 618.47C321.911 599.884 267.142 654.974 228.219 630.424C189.865 606.233 214.056 536.603 182.52 504.004C136.288 456.213 41.6139 465.692 11.4892 406.388C-14.8193 354.597 11.9904 284.075 47.4102 238.023C82.7775 192.039 159.253 201.055 200.657 160.434C244.019 117.892 229.186 20.2112 287.308 2.66118C345.48 -14.9042 388.093 70.4376 446.791 86.1128C497.492 99.6526 557.632 59.1287 602.251 86.7673C646.445 114.142 664.161 173.199 670.713 224.816C676.727 272.192 628.263 315.373 637.222 362.279C647.976 418.58 719.959 450.593 724.749 507.716C729.479 564.123 698.778 619.999 662.474 663.411C624.749 708.523 574.003 766.204 515.901 757.455C447.2 747.111 427.564 646.537 364.004 618.47Z" fill="white"/>
</svg>
