<svg xmlns="http://www.w3.org/2000/svg" width="28" height="28" fill="none"><path fill="#F47920" fill-rule="evenodd" d="M14.146 18.53a.702.702 0 0 0 .145-.194l.13-.141c.108-.165.237-.33.389-.495l.243-.3c.021-.024.059-.077.113-.16.053-.082.102-.147.145-.194l2.044-2.223.455-.494c.205-.248.35-.418.437-.512l.584-.636.113-.159.844-.917.519-.565a18.6 18.6 0 0 1 .503-.582l2.595-2.823c.022.024.142-.082.358-.317l.146-.123c.152-.165.244-.229.277-.192l.163-.105c.055-.035.12-.082.196-.14a.197.197 0 0 1 .082-.053c.021-.024.038-.03.049-.017l.098-.034.098-.035.05-.017a.198.198 0 0 0 .08-.052l.28-.05.131.002.2.217c.1.157.195.212.282.165v.072l.086.234v.071l.002.072.017.09-.077.41c.011.011 0 .07-.03.178-.044.094-.091.207-.145.337-.042.095-.069.16-.08.196l-.063.142-.097.177a.594.594 0 0 1-.112.231l-.064.142a.443.443 0 0 1-.097.178l-.177.301a1.451 1.451 0 0 1-.21.337l-.436.583-.081.053a.313.313 0 0 0-.114.087l-.52.565a2.76 2.76 0 0 0-.21.265 1.525 1.525 0 0 1-.146.195l-.454.494-.227.247c-.14.129-.222.205-.244.229l-.357.388-.178.23-.227.246-2.239 2.435-.26.283-.242.3-.097.106a7.107 7.107 0 0 0-.21.265l-.26.282-.065.07-.227.248-.146.194-.243.3-.227.248-.145.194-1.363 1.482a.196.196 0 0 1-.082.053l-.13.14c-.065.071-.168.147-.31.229-.14.081-.255.169-.341.263l-.115.016-.016.053-.165-.038-.049.017c-.044 0-.06-.018-.05-.054h-.066c0-.005-.002-.008-.003-.012l-.09.038-.065.002h-.066l-.082.02-.378-.083c-.011.012-.066 0-.165-.033a8.674 8.674 0 0 0-.31-.156 1.562 1.562 0 0 0-.18-.087l-.131-.07-.163-.104a.516.516 0 0 1-.213-.122l-.13-.07a.392.392 0 0 1-.164-.104l-.277-.193a1.32 1.32 0 0 1-.31-.227l-.537-.475-.048-.089a.34.34 0 0 0-.08-.124l-.52-.564a2.615 2.615 0 0 0-.244-.23 1.44 1.44 0 0 1-.178-.157l-.455-.494-.227-.247a7.359 7.359 0 0 0-.21-.266l-.357-.388-.212-.193-.227-.247-2.238-2.435-.26-.282-.276-.264-.098-.106a6.934 6.934 0 0 0-.243-.229l-.26-.282-.065-.07-.227-.248-.179-.158-.276-.264-.227-.247-.18-.158-1.362-1.482a.222.222 0 0 1-.048-.089l-.13-.141a1.444 1.444 0 0 1-.21-.337 1.542 1.542 0 0 0-.241-.372l-.015-.125L2 9.239l.036-.18-.016-.054c0-.048.017-.066.05-.054l.001-.072c.066-.025.089-.05.067-.073l.083-.02c.022-.023.028-.053.017-.089l.431-.186.132-.003.116-.055c.023-.025.023-.049.001-.072l.083-.02c-.01-.035-.01-.059.001-.071l.067-.073c-.01-.036.062-.09.216-.165l.266-.147.312.084c.011-.012.033-.013.066-.001l.294.174c.153.069.262.139.326.21.087.094.147.146.18.158l.13.14c.151.118.303.258.454.423l.277.264c.021.024.07.065.146.123.076.059.136.111.18.158l2.043 2.223.454.494c.228.223.385.382.471.476l.584.635.147.123.844.918.519.564c.249.247.427.429.536.546l2.595 2.823c-.01.01.003.04.037.09Z" clip-rule="evenodd"/></svg>
