<svg width="8" height="13" viewBox="0 0 8 13" fill="none" xmlns="http://www.w3.org/2000/svg">
<path fill-rule="evenodd" clip-rule="evenodd" d="M1.47627 6.47748C1.52625 6.52342 1.56074 6.54921 1.57968 6.5548L1.65494 6.62403C1.74311 6.68138 1.83107 6.75043 1.91889 6.8312L2.07909 6.9607C2.09162 6.97224 2.11995 6.99235 2.16404 7.02102C2.20812 7.04974 2.24269 7.07561 2.26779 7.09864L3.45325 8.18874L3.71668 8.43095C3.84855 8.54039 3.93961 8.61819 3.98977 8.6643L4.32851 8.97578L4.4134 9.0361L4.90265 9.48595L5.20372 9.76278C5.34816 9.88376 5.45175 9.97305 5.51448 10.0307L7.01985 11.415C7.00694 11.4268 7.06321 11.4904 7.18866 11.6057L7.25427 11.6838C7.3421 11.7646 7.37633 11.8139 7.357 11.8316L7.41297 11.9186C7.43161 11.9476 7.45649 11.9824 7.48771 12.0229C7.50023 12.0344 7.50958 12.0489 7.51569 12.0664C7.52822 12.0779 7.53127 12.0866 7.52482 12.0926L7.54311 12.145L7.56145 12.1973L7.57058 12.2235C7.57669 12.241 7.58604 12.2555 7.59857 12.267L7.625 12.4157L7.62397 12.4859L7.50803 12.5925C7.42459 12.6461 7.39527 12.6962 7.42003 12.7426L7.38188 12.7431L7.25724 12.7885L7.2191 12.789L7.18096 12.7894L7.13317 12.7988L6.91446 12.7576C6.90804 12.7635 6.87632 12.7581 6.81936 12.7412C6.76886 12.7185 6.70884 12.6929 6.63931 12.6646C6.58881 12.6418 6.55407 12.6276 6.53508 12.622L6.45926 12.5879L6.36468 12.5364C6.30772 12.5196 6.26669 12.4997 6.24159 12.4766L6.16582 12.4425C6.12785 12.4312 6.09633 12.4141 6.07123 12.391L5.91052 12.2966C5.82846 12.2566 5.76861 12.2194 5.73099 12.1848L5.41976 11.9519L5.39178 11.9084C5.38566 11.891 5.37008 11.8707 5.34498 11.8476L5.04391 11.5708C5.00628 11.5362 4.95914 11.4988 4.90252 11.4586C4.85848 11.4299 4.82387 11.404 4.79877 11.3809L4.53533 11.1387L4.40363 11.0176C4.33479 10.9425 4.29411 10.8991 4.28158 10.8876L4.07458 10.6972L3.95201 10.6023L3.82031 10.4812L2.52193 9.28731L2.37138 9.1489L2.21118 9.01935L2.15473 8.96747C2.14221 8.95593 2.09506 8.91852 2.01335 8.85523L1.86284 8.71682L1.82521 8.68221L1.69347 8.5611L1.58971 8.48347L1.42951 8.35393L1.29782 8.23282L1.19406 8.1552L0.403742 7.42847C0.391214 7.41693 0.381872 7.40242 0.375758 7.38499L0.300502 7.31576C0.262874 7.28114 0.222362 7.22612 0.178965 7.1507C0.135568 7.07522 0.0887697 7.01443 0.0386134 6.96832L0.0299601 6.90706L0.00145897 6.89862L0.0218237 6.81071L0.012653 6.78453C0.0129974 6.76115 0.0226832 6.75224 0.0416694 6.75784L0.0421869 6.72279C0.0442534 6.72215 0.0462341 6.72146 0.0481715 6.72081L0.0276787 6.67346L0.0270762 6.63832L0.0264731 6.60319L0.0161824 6.55911L0.0605694 6.35767C0.0541115 6.35173 0.0599671 6.32253 0.0781783 6.27005C0.102891 6.22356 0.130618 6.16832 0.1614 6.10434C0.186069 6.05785 0.201481 6.02582 0.207551 6.00834L0.244578 5.93859L0.300459 5.85154C0.31867 5.7991 0.340327 5.7613 0.365426 5.73827L0.402451 5.66848C0.414592 5.63352 0.433233 5.6045 0.458333 5.58143L0.560927 5.43354C0.604238 5.35803 0.644709 5.30296 0.682337 5.26835L0.935486 4.98205L0.9828 4.95635C1.00183 4.95079 1.02387 4.93646 1.04897 4.91338L1.35004 4.63655C1.38767 4.60194 1.42835 4.55858 1.47205 4.50649C1.50322 4.46593 1.53133 4.43412 1.55643 4.41104L1.81987 4.16883L1.95161 4.04772C2.03333 3.98443 2.08047 3.94706 2.09304 3.93553L2.3 3.74519L2.40319 3.63244L2.53493 3.51133L3.83331 2.31744L3.98383 2.17902L4.12465 2.0317L4.18114 1.97977C4.19366 1.96824 4.23435 1.92488 4.30315 1.84971L4.45366 1.7113L4.49129 1.67673L4.62303 1.55558L4.70741 1.46017L4.84824 1.3128L4.97993 1.1917L5.06432 1.09625L5.85463 0.369564C5.86721 0.358026 5.88296 0.349458 5.90199 0.343861L5.97725 0.274633C6.01488 0.240062 6.07476 0.202821 6.15691 0.162998C6.23905 0.123174 6.30518 0.0802077 6.35538 0.0340553L6.42211 0.0262197L6.43124 0L6.52712 0.0189434L6.55562 0.0105487C6.5811 0.0108931 6.59079 0.0198474 6.58472 0.0373268L6.62295 0.0378868C6.6363 0.07319 6.64921 0.0851152 6.66178 0.0735771L6.67207 0.11762C6.68503 0.129546 6.701 0.132688 6.71999 0.127091L6.81944 0.35695L6.8206 0.427255L6.85031 0.489165C6.86327 0.501047 6.87601 0.501262 6.88854 0.489724L6.89883 0.533767C6.91786 0.528213 6.9306 0.528385 6.93706 0.534326L6.9759 0.570017C6.99493 0.56442 7.0242 0.602909 7.06381 0.685484L7.14264 0.82717L7.09769 0.993482C7.10415 0.999423 7.10436 1.01113 7.09829 1.02861L7.00539 1.18541C6.96853 1.26691 6.93129 1.32494 6.89367 1.35956C6.84347 1.40567 6.81535 1.43748 6.80928 1.45496L6.73403 1.52419C6.67169 1.6053 6.5966 1.68624 6.50882 1.76697L6.36795 1.91433C6.35542 1.92583 6.33355 1.95188 6.30242 1.99243C6.27125 2.03299 6.2431 2.0648 6.21804 2.08788L5.03254 3.17793L4.76911 3.42019C4.65015 3.54147 4.56555 3.6252 4.5154 3.67135L4.17666 3.9828L4.11113 4.06094L3.62188 4.5108L3.32081 4.78762C3.18929 4.92048 3.09216 5.01572 3.02943 5.07341L1.52406 6.45759C1.5185 6.45251 1.50257 6.45914 1.47627 6.47748Z" fill="#22496D"/>
</svg>
