<svg width="41" height="34" viewBox="0 0 41 34" fill="none" xmlns="http://www.w3.org/2000/svg">
<path d="M15.7692 30.9091C15.7692 31.7462 15.4571 32.4706 14.8329 33.0824C14.2087 33.6941 13.4696 34 12.6154 34C11.7612 34 11.022 33.6941 10.3978 33.0824C9.77364 32.4706 9.46154 31.7462 9.46154 30.9091C9.46154 30.072 9.77364 29.3475 10.3978 28.7358C11.022 28.1241 11.7612 27.8182 12.6154 27.8182C13.4696 27.8182 14.2087 28.1241 14.8329 28.7358C15.4571 29.3475 15.7692 30.072 15.7692 30.9091ZM37.8462 30.9091C37.8462 31.7462 37.5341 32.4706 36.9099 33.0824C36.2857 33.6941 35.5465 34 34.6923 34C33.8381 34 33.099 33.6941 32.4748 33.0824C31.8506 32.4706 31.5385 31.7462 31.5385 30.9091C31.5385 30.072 31.8506 29.3475 32.4748 28.7358C33.099 28.1241 33.8381 27.8182 34.6923 27.8182C35.5465 27.8182 36.2857 28.1241 36.9099 28.7358C37.5341 29.3475 37.8462 30.072 37.8462 30.9091ZM41 4.63636V17C41 17.3864 40.8645 17.7285 40.5935 18.0263C40.3224 18.3241 39.9898 18.4972 39.5956 18.5455L13.872 21.4915C14.0855 22.4574 14.1923 23.0208 14.1923 23.1818C14.1923 23.4394 13.9952 23.9545 13.601 24.7273H36.2692C36.6963 24.7273 37.0659 24.8802 37.378 25.1861C37.6901 25.492 37.8462 25.8542 37.8462 26.2727C37.8462 26.6913 37.6901 27.0535 37.378 27.3594C37.0659 27.6652 36.6963 27.8182 36.2692 27.8182H11.0385C10.6114 27.8182 10.2418 27.6652 9.92969 27.3594C9.61759 27.0535 9.46154 26.6913 9.46154 26.2727C9.46154 26.0956 9.52724 25.8421 9.65865 25.5121C9.79006 25.1821 9.92147 24.8923 10.0529 24.6428C10.1843 24.3932 10.3609 24.0713 10.5826 23.6768C10.8044 23.2824 10.9317 23.045 10.9645 22.9645L6.60337 3.09091H1.57692C1.14984 3.09091 0.780248 2.93797 0.468149 2.6321C0.15605 2.32623 0 1.96402 0 1.54545C0 1.12689 0.15605 0.764678 0.468149 0.458807C0.780248 0.152936 1.14984 0 1.57692 0H7.88462C8.14744 0 8.38151 0.0523201 8.58684 0.15696C8.79217 0.2616 8.95232 0.386364 9.06731 0.53125C9.18229 0.676136 9.28906 0.873343 9.38762 1.12287C9.48618 1.3724 9.55188 1.58168 9.58474 1.75071C9.61759 1.91974 9.66276 2.1572 9.72025 2.46307C9.77774 2.76894 9.8147 2.97822 9.83113 3.09091H39.4231C39.8502 3.09091 40.2198 3.24384 40.5319 3.54972C40.844 3.85559 41 4.2178 41 4.63636Z" fill="#F47920"/>
</svg>
