<svg width="90" height="90" viewBox="0 0 90 90" fill="none" xmlns="http://www.w3.org/2000/svg">
<path d="M40.313 58.9749C40.313 59.8409 39.9901 60.5903 39.3444 61.2232C38.6987 61.856 37.934 62.1724 37.0504 62.1724C36.1668 62.1724 35.4021 61.856 34.7564 61.2232C34.1107 60.5903 33.7878 59.8409 33.7878 58.9749C33.7878 58.1089 34.1107 57.3595 34.7564 56.7267C35.4021 56.0938 36.1668 55.7774 37.0504 55.7774C37.934 55.7774 38.6987 56.0938 39.3444 56.7267C39.9901 57.3595 40.313 58.1089 40.313 58.9749ZM63.1512 58.9749C63.1512 59.8409 62.8283 60.5903 62.1826 61.2232C61.5369 61.856 60.7722 62.1724 59.8886 62.1724C59.005 62.1724 58.2403 61.856 57.5946 61.2232C56.9489 60.5903 56.626 59.8409 56.626 58.9749C56.626 58.1089 56.9489 57.3595 57.5946 56.7267C58.2403 56.0938 59.005 55.7774 59.8886 55.7774C60.7722 55.7774 61.5369 56.0938 62.1826 56.7267C62.8283 57.3595 63.1512 58.1089 63.1512 58.9749ZM66.4138 31.7962V44.5862C66.4138 44.9859 66.2736 45.3398 65.9932 45.6479C65.7128 45.956 65.3687 46.135 64.9609 46.185L38.3503 49.2326C38.5712 50.2318 38.6817 50.8147 38.6817 50.9812C38.6817 51.2476 38.4778 51.7806 38.07 52.5799H61.5199C61.9617 52.5799 62.344 52.7381 62.6669 53.0546C62.9898 53.371 63.1512 53.7457 63.1512 54.1787C63.1512 54.6117 62.9898 54.9864 62.6669 55.3028C62.344 55.6192 61.9617 55.7774 61.5199 55.7774H35.4191C34.9773 55.7774 34.595 55.6192 34.2721 55.3028C33.9492 54.9864 33.7878 54.6117 33.7878 54.1787C33.7878 53.9955 33.8558 53.7332 33.9917 53.3918C34.1277 53.0504 34.2636 52.7506 34.3995 52.4925C34.5355 52.2344 34.7181 51.9013 34.9476 51.4933C35.177 51.0853 35.3086 50.8396 35.3426 50.7564L30.8311 30.1975H25.6313C25.1895 30.1975 24.8072 30.0393 24.4843 29.7229C24.1614 29.4064 24 29.0317 24 28.5987C24 28.1658 24.1614 27.791 24.4843 27.4746C24.8072 27.1582 25.1895 27 25.6313 27H32.1565C32.4284 27 32.6705 27.0541 32.8829 27.1624C33.0953 27.2706 33.261 27.3997 33.38 27.5496C33.4989 27.6995 33.6094 27.9035 33.7113 28.1616C33.8133 28.4197 33.8813 28.6362 33.9152 28.8111C33.9492 28.9859 33.996 29.2316 34.0554 29.548C34.1149 29.8644 34.1531 30.0809 34.1701 30.1975H64.7825C65.2243 30.1975 65.6066 30.3557 65.9295 30.6721C66.2524 30.9885 66.4138 31.3632 66.4138 31.7962Z" fill="#F47920"/>
</svg>
