<svg width="48" height="48" viewBox="0 0 48 48" fill="none" xmlns="http://www.w3.org/2000/svg">
<circle cx="23.882" cy="23.9426" r="23.1792" fill="#F5F5F5"/>
<path fill-rule="evenodd" clip-rule="evenodd" d="M23.973 27.7225C24.0266 27.6642 24.0567 27.624 24.0632 27.6019L24.1439 27.5141C24.2108 27.4113 24.2913 27.3087 24.3855 27.2063L24.5365 27.0195C24.55 27.0049 24.5734 26.9718 24.6069 26.9204C24.6403 26.869 24.6705 26.8287 24.6974 26.7994L25.9686 25.4171L26.251 25.1098C26.3786 24.9561 26.4694 24.8499 26.5231 24.7914L26.8864 24.3964L26.9567 24.2974L27.4813 23.7269L27.8041 23.3758C27.9452 23.2073 28.0493 23.0865 28.1166 23.0134L29.7308 21.2579C29.7446 21.273 29.8187 21.2074 29.9532 21.0611L30.0443 20.9846C30.1385 20.8821 30.1959 20.8422 30.2167 20.8648L30.3181 20.7995C30.3519 20.7778 30.3924 20.7487 30.4397 20.7123C30.4531 20.6977 30.47 20.6868 30.4904 20.6797C30.5039 20.6651 30.514 20.6615 30.5209 20.6691L30.582 20.6477L30.6431 20.6263L30.6736 20.6157C30.694 20.6086 30.7109 20.5977 30.7244 20.5831L30.8978 20.5522L30.9796 20.5535L31.1039 20.6887C31.1665 20.786 31.2248 20.8201 31.279 20.7913L31.2795 20.8358L31.3325 20.9811L31.333 21.0256L31.3336 21.0701L31.3445 21.1258L31.2965 21.3808C31.3034 21.3883 31.297 21.4253 31.2774 21.4917C31.2509 21.5506 31.2211 21.6206 31.188 21.7017C31.1614 21.7606 31.1449 21.8011 31.1384 21.8232L31.0986 21.9116L31.0386 22.0219C31.0189 22.0884 30.9957 22.1362 30.9688 22.1655L30.929 22.2538C30.9159 22.2981 30.8959 22.3349 30.869 22.3641L30.7588 22.5516C30.7123 22.6472 30.6688 22.717 30.6285 22.7609L30.3569 23.1238L30.3062 23.1565C30.2858 23.1636 30.2622 23.1818 30.2353 23.211L29.9125 23.5621C29.8721 23.606 29.8285 23.661 29.7816 23.727C29.7481 23.7784 29.718 23.8187 29.6911 23.848L29.4086 24.1552L29.2674 24.3088C29.1798 24.3891 29.1292 24.4365 29.1158 24.4511L28.8938 24.6925L28.7831 24.8354L28.6419 24.989L27.2496 26.5031L27.0882 26.6787L26.9372 26.8655L26.8767 26.9313C26.8632 26.9459 26.8196 27.0009 26.7458 27.0962L26.5844 27.2717L26.544 27.3156L26.4028 27.4692L26.3123 27.5902L26.1612 27.777L26.02 27.9306L25.9295 28.0516L25.082 28.9732C25.0685 28.9878 25.0516 28.9987 25.0313 29.0058L24.9506 29.0936C24.9102 29.1374 24.846 29.1847 24.7581 29.2353C24.6701 29.2859 24.5992 29.3405 24.5454 29.399L24.474 29.409L24.4641 29.4423L24.3616 29.4185L24.3311 29.4292C24.3038 29.4288 24.2934 29.4175 24.3 29.3954L24.2591 29.3948C24.2583 29.3924 24.2575 29.3901 24.2568 29.3878L24.2015 29.4117L24.1606 29.4124L24.1196 29.4131L24.0682 29.4251L23.8333 29.3734C23.8264 29.3809 23.7923 29.3741 23.7311 29.3528C23.6769 29.324 23.6125 29.2917 23.5379 29.2558C23.4837 29.227 23.4463 29.209 23.4259 29.202L23.3446 29.1588L23.2431 29.0936C23.1819 29.0724 23.1379 29.0471 23.111 29.0179L23.0296 28.9747C22.9889 28.9605 22.955 28.9388 22.9281 28.9095L22.7556 28.7899C22.6676 28.7394 22.6034 28.6922 22.563 28.6483L22.2291 28.3531L22.1992 28.2979C22.1927 28.2757 22.176 28.25 22.1491 28.2207L21.8263 27.8697C21.7859 27.8258 21.7353 27.7783 21.6746 27.7274C21.6273 27.691 21.5902 27.6583 21.5633 27.629L21.2808 27.3218L21.1396 27.1682C21.0658 27.0729 21.0222 27.0179 21.0088 27.0032L20.7868 26.7619L20.6553 26.6416L20.5141 26.4879L19.1219 24.9738L18.9605 24.7983L18.7887 24.6341L18.7281 24.5682C18.7147 24.5536 18.6641 24.5062 18.5764 24.426L18.415 24.2504L18.3747 24.2066L18.2334 24.0529L18.1222 23.9545L17.9503 23.7903L17.8091 23.6367L17.6978 23.5383L16.8504 22.6167C16.8369 22.6021 16.8269 22.5837 16.8204 22.5615L16.7397 22.4737C16.6994 22.4299 16.6559 22.36 16.6095 22.2642C16.5631 22.1684 16.513 22.0913 16.4591 22.0328L16.45 21.955L16.4194 21.9443L16.4415 21.8325L16.4317 21.7993C16.4321 21.7696 16.4426 21.7583 16.463 21.7653L16.4636 21.7208C16.5048 21.7052 16.5187 21.6901 16.5052 21.6755L16.5566 21.6635C16.5705 21.6484 16.5742 21.6297 16.5676 21.6076L16.8357 21.4916L16.9177 21.4903L16.9899 21.4556C17.0037 21.4405 17.004 21.4257 16.9905 21.4111L17.0419 21.3991C17.0354 21.3769 17.0356 21.362 17.0425 21.3545L17.0841 21.3092C17.0776 21.287 17.1225 21.2529 17.2188 21.2067L17.384 21.1147L17.578 21.1672C17.5849 21.1596 17.5985 21.1594 17.6189 21.1665L17.8018 21.2748C17.8968 21.3178 17.9645 21.3612 18.0049 21.4051C18.0586 21.4636 18.0957 21.4964 18.1161 21.5035L18.1968 21.5912C18.2914 21.6639 18.3858 21.7515 18.4799 21.8539L18.6518 22.0181C18.6652 22.0327 18.6956 22.0582 18.7429 22.0945C18.7902 22.1309 18.8273 22.1637 18.8542 22.1929L20.1253 23.5754L20.4078 23.8826C20.5492 24.0213 20.6469 24.12 20.7007 24.1784L21.0639 24.5735L21.155 24.6499L21.6796 25.2204L22.0024 25.5715C22.1574 25.7249 22.2684 25.8381 22.3357 25.9113L23.9498 27.6667C23.9439 27.6732 23.9516 27.6918 23.973 27.7225Z" fill="#F47920"/>
</svg>
