<svg width="48" height="48" viewBox="0 0 48 48" fill="none" xmlns="http://www.w3.org/2000/svg">
<circle cx="24" cy="24" r="24" fill="#F5F5F5"/>
<path fill-rule="evenodd" clip-rule="evenodd" d="M24.0941 27.9136C24.1496 27.8533 24.1808 27.8116 24.1875 27.7888L24.2711 27.6979C24.3403 27.5914 24.4237 27.4852 24.5212 27.3792L24.6776 27.1858C24.6915 27.1706 24.7158 27.1364 24.7504 27.0832C24.7851 27.03 24.8163 26.9882 24.8442 26.9579L26.1604 25.5266L26.4528 25.2085C26.585 25.0493 26.6789 24.9393 26.7346 24.8788L27.1107 24.4698L27.1835 24.3673L27.7267 23.7765L28.0609 23.413C28.207 23.2386 28.3148 23.1135 28.3844 23.0378L30.0558 21.2202C30.0701 21.2358 30.1469 21.1678 30.2861 21.0163L30.3804 20.9371C30.478 20.8311 30.5374 20.7898 30.5589 20.8131L30.6639 20.7455C30.6989 20.723 30.7409 20.693 30.7898 20.6553C30.8037 20.6401 30.8212 20.6289 30.8424 20.6215C30.8563 20.6064 30.8668 20.6027 30.874 20.6105L30.9372 20.5884L31.0004 20.5662L31.032 20.5552C31.0531 20.5478 31.0707 20.5365 31.0846 20.5214L31.2641 20.4895L31.3488 20.4907L31.4776 20.6307C31.5424 20.7315 31.6028 20.7669 31.6588 20.737L31.6594 20.783L31.7142 20.9335L31.7148 20.9796L31.7154 21.0257L31.7266 21.0834L31.6769 21.3474C31.6841 21.3552 31.6775 21.3935 31.6572 21.4623C31.6297 21.5232 31.5989 21.5957 31.5646 21.6796C31.5371 21.7406 31.52 21.7826 31.5132 21.8055L31.472 21.897L31.4099 22.0112C31.3896 22.08 31.3655 22.1296 31.3376 22.1599L31.2964 22.2514C31.2829 22.2972 31.2622 22.3353 31.2343 22.3656L31.1203 22.5596C31.0721 22.6587 31.0271 22.7309 30.9853 22.7764L30.7041 23.1522L30.6516 23.186C30.6305 23.1933 30.6061 23.2122 30.5782 23.2425L30.2439 23.606C30.2022 23.6514 30.157 23.7083 30.1085 23.7767C30.0738 23.8299 30.0425 23.8717 30.0147 23.902L29.7222 24.22L29.576 24.3791C29.4853 24.4622 29.4329 24.5113 29.419 24.5264L29.1892 24.7764L29.0746 24.9244L28.9283 25.0834L27.4868 26.6511L27.3197 26.8329L27.1633 27.0263L27.1006 27.0944C27.0867 27.1096 27.0415 27.1665 26.9651 27.2652L26.798 27.4469L26.7562 27.4923L26.61 27.6514L26.5162 27.7767L26.3598 27.9701L26.2136 28.1291L26.1199 28.2544L25.2424 29.2086C25.2285 29.2238 25.2109 29.235 25.1899 29.2424L25.1063 29.3333C25.0645 29.3787 24.9981 29.4276 24.907 29.48C24.8159 29.5324 24.7425 29.5889 24.6868 29.6495L24.6128 29.6599L24.6026 29.6944L24.4965 29.6698L24.4649 29.6808C24.4367 29.6804 24.4259 29.6687 24.4327 29.6458L24.3903 29.6452C24.3896 29.6427 24.3887 29.6403 24.388 29.638L24.3308 29.6627L24.2884 29.6634L24.2459 29.6642L24.1927 29.6766L23.9495 29.623C23.9423 29.6308 23.9071 29.6237 23.8437 29.6017C23.7876 29.5719 23.7209 29.5384 23.6436 29.5012C23.5875 29.4715 23.5488 29.4529 23.5277 29.4455L23.4435 29.4008L23.3384 29.3333C23.2751 29.3114 23.2294 29.2852 23.2016 29.2549L23.1173 29.2102C23.0751 29.1955 23.0401 29.173 23.0122 29.1427L22.8337 29.0188C22.7425 28.9666 22.676 28.9177 22.6342 28.8723L22.2885 28.5666L22.2575 28.5095C22.2508 28.4865 22.2335 28.4599 22.2056 28.4296L21.8714 28.0661C21.8296 28.0206 21.7772 27.9715 21.7143 27.9187C21.6654 27.8811 21.6269 27.8472 21.5991 27.8168L21.3066 27.4988L21.1604 27.3397C21.084 27.241 21.0389 27.1841 21.0249 27.1689L20.7951 26.919L20.659 26.7944L20.5127 26.6354L19.0712 25.0677L18.9041 24.8859L18.7262 24.7159L18.6635 24.6477C18.6496 24.6326 18.5972 24.5835 18.5065 24.5004L18.3393 24.3187L18.2976 24.2732L18.1513 24.1142L18.0361 24.0123L17.8582 23.8422L17.712 23.6832L17.5967 23.5813L16.7193 22.6271C16.7054 22.6119 16.695 22.5929 16.6883 22.5699L16.6047 22.479C16.5629 22.4336 16.518 22.3613 16.4699 22.2621C16.4218 22.1629 16.3699 22.0831 16.3142 22.0225L16.3047 21.9419L16.2731 21.9309L16.2959 21.8151L16.2858 21.7807C16.2862 21.7499 16.297 21.7382 16.3181 21.7456L16.3188 21.6994C16.3614 21.6833 16.3758 21.6677 16.3619 21.6525L16.4151 21.6401C16.4295 21.6244 16.4333 21.6052 16.4265 21.5822L16.7041 21.4622L16.7889 21.4607L16.8637 21.4249C16.878 21.4092 16.8783 21.3938 16.8644 21.3787L16.9176 21.3663C16.9108 21.3433 16.9111 21.3279 16.9182 21.3201L16.9613 21.2732C16.9546 21.2503 17.001 21.2149 17.1007 21.1671L17.2718 21.0719L17.4726 21.1262C17.4798 21.1184 17.4939 21.1181 17.515 21.1255L17.7044 21.2376C17.8028 21.2821 17.8728 21.3271 17.9146 21.3725C17.9703 21.4331 18.0087 21.4671 18.0298 21.4744L18.1134 21.5653C18.2114 21.6406 18.3091 21.7312 18.4066 21.8372L18.5845 22.0073C18.5984 22.0224 18.6298 22.0488 18.6788 22.0864C18.7278 22.1241 18.7662 22.158 18.794 22.1883L20.1102 23.6197L20.4027 23.9378C20.5491 24.0814 20.6502 24.1836 20.706 24.2441L21.082 24.6531L21.1764 24.7322L21.7195 25.323L22.0538 25.6865C22.2142 25.8453 22.3292 25.9626 22.3988 26.0383L24.0701 27.8559C24.064 27.8626 24.072 27.8819 24.0941 27.9136Z" fill="#F47920"/>
</svg>
