<svg xmlns="http://www.w3.org/2000/svg" width="33" height="83" fill="none"><path stroke="#F47920" stroke-dasharray="4.31 4.31" stroke-linecap="round" stroke-width="1.4" d="M1 1C13.735 8.906 26.063 18.432 30.811 33.18c1.316 4.088 2.26 11.32-1.232 14.8-3.034 3.026-9.073 3.534-13.057 3.286-3.895-.243-8.216-1.647-10.78-4.668-1.162-1.37-1.747-3.238.278-3.87 5.37-1.672 10.752 4.823 9.824 9.797-1.382 7.408-7.617 12.727-7.617 20.315 0 .87-.523 4.315 1.21 4.315 1.79 0 2.826-.575 4.036-1.54 1.849-1.474-3.211 3.519-4.404 5.558-.942 1.61-1.405.73-2.2-1.452-.817-2.239-1.814-4.416-4.206-5.211"/></svg>
