<svg xmlns="http://www.w3.org/2000/svg" width="90" height="50" fill="none"><path stroke="#F47920" stroke-dasharray="4.31 4.31" stroke-linecap="round" stroke-width="1.4" d="M7.966 1.687C13.27 15.665 20.238 29.559 33.79 37.049c3.756 2.076 10.666 4.395 14.752 1.652 3.552-2.383 5.213-8.19 5.736-12.134.511-3.855-.034-8.351-2.503-11.441-1.12-1.402-2.84-2.335-3.848-.476-2.675 4.929 2.66 11.445 7.716 11.497 7.531.079 13.948-4.992 21.39-3.527.853.168 4.333.322 4 2.017-.345 1.75-1.108 2.652-2.287 3.649-1.803 1.523 4.068-2.461 6.298-3.234 1.76-.61.986-1.233-1.001-2.432-2.039-1.23-3.982-2.626-4.301-5.118"/></svg>
