<svg width="40" height="40" viewBox="0 0 40 40" fill="none" xmlns="http://www.w3.org/2000/svg">
<g clip-path="url(#clip0_1771_441)">
<g clip-path="url(#clip1_1771_441)">
<path d="M20.3691 4.16044C21.1016 3.40007 21.8783 2.68367 22.6547 1.99871C23.3489 1.39043 23.9888 1.1083 24.3797 1.37074C24.7042 1.59871 24.4374 2.53751 23.7336 3.42154C22.7902 4.60585 21.8244 5.79962 20.8001 6.90337C17.7121 10.2313 14.5798 13.5468 11.455 16.8381C10.416 17.9272 9.34753 18.987 8.26431 20.0321C7.89086 20.3892 7.47297 20.7338 7.10803 20.9411C6.08762 21.5415 5.67658 21.0055 6.31538 19.8983C6.6761 19.2749 7.20041 18.5924 7.70903 18.0212C9.34766 16.1028 17.7902 6.85429 20.3691 4.16044Z" fill="#F47920"/>
<path d="M10.0065 29.5375C10.8128 28.8189 11.4477 28.215 12.1118 27.6717C18.8126 22.1723 25.4664 17.9572 32.0792 14.2402C32.8537 13.8069 33.6497 13.4584 34.2957 13.3409C34.6446 13.2763 34.9237 13.6176 34.9059 14.0118C34.8887 14.3117 34.4009 15.0622 34.0424 15.4025C33.3626 16.0569 32.609 16.6695 31.8861 17.1541C27.116 20.3603 22.3535 23.5424 17.5912 26.6931C15.8101 27.8674 14.0218 29.0029 12.2409 30.1457C11.6448 30.5347 11.0489 30.8922 10.4755 31.2088C9.82756 31.578 9.28584 31.6408 9.34246 31.0316C9.38266 30.6279 9.3483 30.2768 10.0065 29.5375Z" fill="#F47920"/>
</g>
</g>
<defs>
<clipPath id="clip0_1771_441">
<rect width="40" height="40" fill="white"/>
</clipPath>
<clipPath id="clip1_1771_441">
<rect width="35.1083" height="23.8742" fill="white" transform="translate(41.0168 15.606) rotate(130.819)"/>
</clipPath>
</defs>
</svg>
