<svg width="32" height="25" viewBox="0 0 32 25" fill="none" xmlns="http://www.w3.org/2000/svg">
<path d="M29.7143 0H2.28571C1.67951 0 1.09812 0.263392 0.66947 0.732233C0.240816 1.20107 0 1.83696 0 2.5V22.5C0 23.163 0.240816 23.7989 0.66947 24.2678C1.09812 24.7366 1.67951 25 2.28571 25H29.7143C30.3205 25 30.9019 24.7366 31.3305 24.2678C31.7592 23.7989 32 23.163 32 22.5V2.5C32 1.83696 31.7592 1.20107 31.3305 0.732233C30.9019 0.263392 30.3205 0 29.7143 0ZM27.2 2.5L16 10.975L4.8 2.5H27.2ZM2.28571 22.5V3.6375L15.3486 13.525C15.5399 13.6702 15.7672 13.7479 16 13.7479C16.2328 13.7479 16.4601 13.6702 16.6514 13.525L29.7143 3.6375V22.5H2.28571Z" fill="#22496D"/>
</svg>
