<svg width="35" height="35" viewBox="0 0 35 35" fill="none" xmlns="http://www.w3.org/2000/svg">
<path d="M28.0396 13.3453H25.3706C25.3696 12.2838 24.9475 11.2661 24.1969 10.5156C23.4463 9.76501 22.4286 9.34288 21.3672 9.34182V6.67285C23.1362 6.67497 24.8321 7.37864 26.083 8.6295C27.3338 9.88036 28.0375 11.5763 28.0396 13.3453Z" fill="#22496D"/>
<path d="M33.3739 13.3451H30.7049C30.7021 10.8685 29.717 8.4941 27.9658 6.74286C26.2146 4.99162 23.8402 4.00653 21.3635 4.0037V1.33473C24.5478 1.33826 27.6006 2.60477 29.8523 4.85639C32.1039 7.108 33.3704 10.1608 33.3739 13.3451ZM30.7049 34.6969H30.4781C4.25544 33.1889 0.532225 11.0631 0.0117761 4.31063C-0.0695658 3.25205 0.272913 2.20451 0.963881 1.39842C1.65485 0.592329 2.63772 0.0937177 3.69629 0.0122558C3.80216 0.00424893 3.90847 0.000245392 4.01523 0.000245392H11.048C11.5825 -0.000272073 12.1049 0.159729 12.5474 0.459524C12.99 0.759319 13.3323 1.18509 13.5301 1.6817L15.5585 6.67267C15.7538 7.15782 15.8023 7.68966 15.6979 8.20211C15.5935 8.71457 15.3409 9.18507 14.9714 9.55516L12.1289 12.4243C12.5711 14.9483 13.7788 17.2751 15.5883 19.0894C17.3978 20.9037 19.7215 22.1175 22.2443 22.5664L25.1401 19.6973C25.5158 19.3318 25.9907 19.0851 26.5057 18.9878C27.0207 18.8905 27.5529 18.9469 28.036 19.1501L33.067 21.1652C33.5561 21.3692 33.9734 21.7142 34.2657 22.1563C34.558 22.5983 34.7121 23.1174 34.7084 23.6473V30.6934C34.7084 31.7552 34.2866 32.7735 33.5358 33.5243C32.785 34.2751 31.7667 34.6969 30.7049 34.6969ZM4.01523 2.66922C3.83999 2.66869 3.66635 2.70269 3.50424 2.76926C3.34213 2.83584 3.19472 2.9337 3.07043 3.05725C2.94614 3.18079 2.84741 3.32761 2.77986 3.48932C2.71231 3.65102 2.67727 3.82445 2.67674 3.9997C2.67674 4.03706 2.67808 4.07399 2.68075 4.11046C3.29461 12.0106 7.23134 30.6934 30.6249 32.0279C30.9781 32.0491 31.3252 31.9291 31.59 31.6944C31.8548 31.4596 32.0155 31.1293 32.0368 30.7762L32.0394 30.6934V23.6473L27.0084 21.6323L23.1784 25.4355L22.5379 25.3555C10.9279 23.9009 9.35317 12.2909 9.35317 12.1708L9.2731 11.5302L13.063 7.70023L11.0613 2.66922H4.01523Z" fill="#22496D"/>
</svg>
