<svg width="468" height="282" viewBox="0 0 468 282" fill="none" xmlns="http://www.w3.org/2000/svg">
<g filter="url(#filter0_d_725_2357)">
<path d="M148.894 268.784C92.1361 264.049 46.8296 229.043 31.2711 212.131C-14.7824 159.706 16.9572 17.6501 68.6116 17.6501C120.266 17.6501 148.894 -8.5626 208.639 17.6501C268.383 43.8628 373.559 -8.5626 430.815 40.4805C488.07 89.5236 438.905 86.1413 447.618 161.397C456.331 236.653 432.059 244.263 400.32 244.263C368.58 244.263 326.884 230.734 267.139 244.263C207.394 257.792 219.841 274.703 148.894 268.784Z" fill="#F47920"/>
<path d="M148.894 268.784C92.1361 264.049 46.8296 229.043 31.2711 212.131C-14.7824 159.706 16.9572 17.6501 68.6116 17.6501C120.266 17.6501 148.894 -8.5626 208.639 17.6501C268.383 43.8628 373.559 -8.5626 430.815 40.4805C488.07 89.5236 438.905 86.1413 447.618 161.397C456.331 236.653 432.059 244.263 400.32 244.263C368.58 244.263 326.884 230.734 267.139 244.263C207.394 257.792 219.841 274.703 148.894 268.784Z" stroke="white" stroke-width="3"/>
</g>
<defs>
<filter id="filter0_d_725_2357" x="0.5" y="0.500244" width="467" height="281" filterUnits="userSpaceOnUse" color-interpolation-filters="sRGB">
<feFlood flood-opacity="0" result="BackgroundImageFix"/>
<feColorMatrix in="SourceAlpha" type="matrix" values="0 0 0 0 0 0 0 0 0 0 0 0 0 0 0 0 0 0 127 0" result="hardAlpha"/>
<feOffset dy="3"/>
<feGaussianBlur stdDeviation="3.5"/>
<feComposite in2="hardAlpha" operator="out"/>
<feColorMatrix type="matrix" values="0 0 0 0 0.134115 0 0 0 0 0.284533 0 0 0 0 0.429167 0 0 0 0.1 0"/>
<feBlend mode="normal" in2="BackgroundImageFix" result="effect1_dropShadow_725_2357"/>
<feBlend mode="normal" in="SourceGraphic" in2="effect1_dropShadow_725_2357" result="shape"/>
</filter>
</defs>
</svg>
