<svg width="22" height="22" viewBox="0 -2.5 22 22" fill="none" xmlns="http://www.w3.org/2000/svg">
<path d="M20.4286 0H1.57143C1.15466 0 0.754961 0.179107 0.460261 0.497918C0.165561 0.81673 0 1.24913 0 1.7V15.3C0 15.7509 0.165561 16.1833 0.460261 16.5021C0.754961 16.8209 1.15466 17 1.57143 17H20.4286C20.8453 17 21.245 16.8209 21.5397 16.5021C21.8344 16.1833 22 15.7509 22 15.3V1.7C22 1.24913 21.8344 0.81673 21.5397 0.497918C21.245 0.179107 20.8453 0 20.4286 0ZM18.7 1.7L11 7.463L3.3 1.7H18.7ZM1.57143 15.3V2.4735L10.5521 9.197C10.6837 9.29571 10.8399 9.3486 11 9.3486C11.1601 9.3486 11.3163 9.29571 11.4479 9.197L20.4286 2.4735V15.3H1.57143Z" fill="#22496D"/>
</svg>
