<svg width="126" height="127" viewBox="0 0 126 127" fill="none" xmlns="http://www.w3.org/2000/svg">
<path d="M45.7693 109.21C71.047 118.757 99.2531 106.07 108.769 80.8729C118.286 55.676 105.508 27.5107 80.2307 17.9639C54.953 8.41715 26.747 21.1041 17.2307 46.301C7.71448 71.498 20.4917 99.6633 45.7693 109.21Z" fill="white"/>
<path d="M44.2703 104.978C68.7202 114.212 96.0025 101.94 105.207 77.5685C114.412 53.1968 102.053 25.9539 77.6031 16.7198C53.1533 7.48571 25.871 19.7572 16.6664 44.1289C7.46178 68.5007 19.8205 95.7436 44.2703 104.978Z" fill="#F47920"/>
<path d="M101.223 76.0637C92.8468 98.242 68.02 109.409 45.7706 101.006C23.5212 92.603 12.2748 67.812 20.651 45.6336C29.0271 23.4554 53.8541 12.2883 76.1034 20.6913C98.3528 29.0944 109.599 53.8854 101.223 76.0637Z" fill="#F47920" stroke="white" stroke-width="1.20952"/>
<path d="M90.6215 72.0696C84.4158 88.501 66.0226 96.7742 49.5386 90.5486C33.0547 84.323 24.7225 65.9563 30.9282 49.525C37.1339 33.0938 55.5273 24.8205 72.0112 31.046C88.4952 37.2716 96.8272 55.6384 90.6215 72.0696Z" stroke="white" stroke-width="1.48263"/>
<path d="M91.9939 60.2263L37.7273 39.7312C36.5285 39.2784 35.1908 39.8801 34.7395 41.0751L28.202 58.3849C27.7506 59.5799 28.3566 60.9157 29.5554 61.3685L83.8221 81.8636C85.0209 82.3164 86.3586 81.7147 86.8099 80.5197L93.3474 63.2099C93.7987 62.0149 93.1928 60.6791 91.9939 60.2263Z" fill="white"/>
<path d="M96.8853 63.3099L34.6055 39.7883L33.9926 41.4111L96.2724 64.9326L96.8853 63.3099Z" fill="#F47920"/>
<path d="M88.8807 80.6835L27.8638 57.6389L27.2509 59.2617L88.2678 82.3063L88.8807 80.6835Z" fill="#F47920"/>
<path d="M99.8475 75.556L98.0552 75.6536L97.2527 77.2431L96.5939 75.5807L94.818 75.305L96.2035 74.1798L95.9079 72.4193L97.4227 73.3863L99.016 72.5743L98.5674 74.2975L99.8475 75.556Z" fill="white"/>
<path d="M94.4514 85.4927L92.6966 85.1069L91.4943 86.4218L91.3077 84.6454L89.6702 83.9046L91.3095 83.1923L91.4997 81.4198L92.6995 82.7562L94.4551 82.4012L93.5568 83.9391L94.4514 85.4927Z" fill="white"/>
<path d="M86.5722 93.5802L84.9852 92.7386L83.4708 93.6815L83.7705 91.9225L82.3918 90.7708L84.165 90.5251L84.8272 88.8702L85.6228 90.4773L87.4106 90.6068L86.1292 91.8454L86.5722 93.5802Z" fill="white"/>
<path d="M76.7214 99.2813L75.4199 98.045L73.7047 98.5443L74.4707 96.933L73.4541 95.4545L75.2298 95.6949L76.3167 94.2814L76.6479 96.0413L78.3359 96.6467L76.7653 97.4937L76.7214 99.2813Z" fill="white"/>
<path d="M65.718 102.112L64.7947 100.575L63.0062 100.599L64.1777 99.2519L63.5946 97.5582L65.2421 98.2626L66.6705 97.1913L66.517 98.9734L67.9829 100.006L66.2406 100.403L65.718 102.112Z" fill="white"/>
<path d="M54.3354 101.874L53.8636 100.147L52.134 99.6877L53.6292 98.7084L53.5283 96.9217L54.9238 98.044L56.5915 97.3994L55.9588 99.0715L57.0905 100.46L55.3034 100.372L54.3354 101.874Z" fill="white"/>
<path d="M43.286 98.5105L43.3059 96.7225L41.7663 95.8097L43.4751 95.2764L43.8681 93.5322L44.9043 94.9904L46.6867 94.8254L45.6183 96.2601L46.3268 97.9023L44.6306 97.3303L43.286 98.5105Z" fill="white"/>
<path d="M33.6959 92.3913L34.202 90.6769L32.9671 89.3835L34.7585 89.332L35.6123 87.7606L36.2134 89.4432L37.976 89.7652L36.5561 90.8564L36.7916 92.6272L35.3128 91.6193L33.6959 92.3913Z" fill="white"/>
<path d="M26.1285 83.9214L27.0817 82.4092L26.2429 80.8327L27.9834 81.2657L29.2329 79.9847L29.3553 81.7647L30.9663 82.5493L29.3016 83.2161L29.0476 84.9824L27.8962 83.6149L26.1285 83.9214Z" fill="white"/>
<path d="M21.1112 73.729L22.4392 72.5302L22.0576 70.7883L23.6181 71.6719L25.1693 70.7749L24.8055 72.5202L26.1459 73.7076L24.3607 73.9024L23.638 75.5331L22.8984 73.9082L21.1112 73.729Z" fill="white"/>
<path d="M19.0303 62.6118L20.6345 61.814L20.7371 60.0356L22.0028 61.3041L23.7406 60.8566L22.9185 62.4387L23.8899 63.9404L22.1163 63.6494L20.9791 65.0247L20.7048 63.2634L19.0303 62.6118Z" fill="white"/>
<path d="M20.0334 51.4181L21.7956 51.081L22.3753 49.3981L23.2522 50.9581L25.0485 50.9937L23.8283 52.295L24.3586 54.0003L22.7275 53.2446L21.2592 54.2625L21.4712 52.4945L20.0334 51.4181Z" fill="white"/>
<path d="M24.1627 40.6122L25.9528 40.7682L26.975 39.3094L27.39 41.0464L29.1103 41.5696L27.5766 42.487L27.6177 44.2693L26.2549 43.0993L24.5598 43.6775L25.2512 42.037L24.1627 40.6122Z" fill="white"/>
<path d="M30.8423 31.6414L32.5248 32.2718L33.9036 31.1416L33.8343 32.9252L35.3503 33.8905L33.6249 34.3624L33.1831 36.0893L32.1861 34.5973L30.3971 34.6992L31.5062 33.3052L30.8423 31.6414Z" fill="white"/>
<path d="M39.9497 24.6497L41.3978 25.712L43.0349 24.9996L42.4804 26.6952L43.6766 28.0343L41.8859 28.0199L40.9881 29.5601L40.4359 27.8555L38.6847 27.4682L40.1342 26.4291L39.9497 24.6497Z" fill="white"/>
<path d="M50.3128 20.4805L51.4263 21.8874L53.1963 21.6351L52.2083 23.1211L53.0049 24.7276L51.2807 24.2392L50.0031 25.4845L49.9255 23.6966L48.3394 22.8597L50.0155 22.2431L50.3128 20.4805Z" fill="white"/>
<path d="M61.6068 19.1996L62.2973 20.8528L64.0714 21.0875L62.7154 22.2501L63.0462 24.0099L61.5176 23.0753L59.9479 23.9283L60.3592 22.188L59.0584 20.9553L60.8411 20.8144L61.6068 19.1996Z" fill="white"/>
<path d="M72.8824 21.0323L73.0974 22.8084L74.7428 23.5134L73.1197 24.265L72.9591 26.0465L71.7409 24.7348L69.9963 25.1309L70.8666 23.5687L69.9489 22.032L71.7049 22.3782L72.8824 21.0323Z" fill="white"/>
<path d="M83.4703 25.9594L83.1899 27.7247L84.5804 28.8501L82.8115 29.1304L82.1678 30.7986L81.3548 29.2064L79.5662 29.1119L80.833 27.8477L80.3714 26.1212L81.967 26.932L83.4703 25.9594Z" fill="white"/>
<path d="M92.0464 33.343L91.2961 34.965L92.3306 36.4224L90.5494 36.2148L89.4758 37.6456L89.1255 35.8953L87.4272 35.3221L88.9918 34.448L89.0161 32.6631L90.3332 33.873L92.0464 33.343Z" fill="white"/>
<path d="M98.2916 42.6887L97.1325 44.0504L97.7388 45.7286L96.0767 45.0546L94.6574 46.1462L94.789 44.3678L93.3048 43.364L95.0484 42.9389L95.551 41.2272L96.4972 42.7428L98.2916 42.6887Z" fill="white"/>
<path d="M101.861 53.574L100.374 54.5718L100.503 56.3493L99.0843 55.2539L97.4197 55.9215L98.0293 54.2467L96.8712 52.8818L98.667 52.9422L99.6155 51.4308L100.116 53.1431L101.861 53.574Z" fill="white"/>
<path d="M102.322 65.0018L100.618 65.5569L100.255 67.3003L99.1885 65.8617L97.4025 66.051L98.4484 64.6068L97.7072 62.9804L99.42 63.5265L100.748 62.3321L100.761 64.1138L102.322 65.0018Z" fill="white"/>
<path d="M48.4669 49.0495L47.0451 52.814L47.8941 53.1347L49.0522 50.0683L50.3927 50.5746L49.2346 53.641L50.0836 53.9616L51.5053 50.197L48.4669 49.0495ZM53.9254 51.0345C52.8195 50.6168 51.7749 51.186 51.3488 52.3142C50.9417 53.3922 51.2822 54.4845 52.3937 54.9043C53.4996 55.322 54.523 54.8597 54.9913 53.6197C55.3858 52.5752 55.0816 51.4711 53.9254 51.0345ZM53.6534 51.704C54.2399 51.9255 54.3389 52.6266 54.0815 53.308C53.8052 54.0397 53.2689 54.4626 52.6936 54.2453C52.1239 54.0302 51.9738 53.3799 52.2544 52.6371C52.5307 51.9054 53.0726 51.4846 53.6534 51.704ZM56.2504 51.9891L54.8287 55.7537L55.6776 56.0743L56.8357 53.008L58.1762 53.5142L57.0181 56.5806L57.8671 56.9013L59.2889 53.1367L56.2504 51.9891ZM58.603 57.1792L59.4464 57.4977L59.9569 56.1461C60.0288 56.1923 60.1272 56.2359 60.2389 56.2781C60.7416 56.4679 61.2202 56.5019 61.6119 56.3435C61.919 56.2233 62.1565 55.9493 62.2957 55.5806C62.4349 55.212 62.3967 54.8401 62.2226 54.5574C62.0472 54.2614 61.711 54.0195 61.186 53.8213C60.6665 53.6251 60.2852 53.5194 60.0058 53.4649L58.603 57.1792ZM60.6235 54.3811C60.6913 54.3875 60.8128 54.4206 60.9804 54.4839C61.4104 54.6464 61.5726 54.9437 61.4418 55.29C61.2983 55.6698 60.9326 55.7934 60.4801 55.6225C60.3517 55.574 60.27 55.5367 60.2037 55.4926L60.6235 54.3811ZM64.9381 55.1937C63.8321 54.776 62.7875 55.3451 62.3614 56.4734C61.9543 57.5514 62.2948 58.6437 63.4063 59.0635C64.5122 59.4811 65.5356 59.0188 66.0039 57.7789C66.3984 56.7344 66.0942 55.6303 64.9381 55.1937ZM64.6661 55.8632C65.2525 56.0847 65.3515 56.7858 65.0941 57.4672C64.8178 58.1989 64.2815 58.6218 63.7062 58.4045C63.1365 58.1893 62.9864 57.5391 63.267 56.7963C63.5433 56.0646 64.0852 55.6438 64.6661 55.8632ZM67.2631 56.1483L65.8476 59.8961C66.027 59.9958 66.318 60.1376 66.7369 60.2958C67.3122 60.5131 67.9465 60.625 68.4298 60.4438C68.7235 60.3249 68.9707 60.0928 69.1079 59.7298C69.2661 59.3109 69.2047 58.9495 69.0139 58.6604C68.8092 58.3406 68.4485 58.0959 68.0687 57.9524C67.9235 57.8976 67.735 57.8391 67.6002 57.8074L67.8449 57.1595L69.4982 57.7839L69.7597 57.0913L67.2631 56.1483ZM67.3639 58.4329C67.4687 58.4597 67.5734 58.4865 67.6684 58.5224C67.8695 58.5983 68.0627 58.7288 68.1692 58.903C68.2562 59.0444 68.2817 59.2135 68.21 59.4034C68.1404 59.5878 68.0108 59.7111 67.859 59.7751C67.673 59.8452 67.441 59.8342 67.2343 59.7561C67.117 59.7118 67.0074 59.6641 66.9188 59.6114L67.3639 58.4329ZM70.1422 57.2293L70.4229 60.3222C70.4276 60.3941 70.4254 60.4507 70.3721 60.5072C70.2362 60.6474 69.99 60.7586 69.7275 60.6594C69.6046 60.613 69.525 60.5702 69.4588 60.526L69.14 61.1843C69.2369 61.2655 69.3402 61.3301 69.5357 61.4039C69.9769 61.5705 70.3614 61.4988 70.7232 61.2844C71.1388 61.0457 71.583 60.5625 72.0314 60.0681L73.4432 58.476L72.5439 58.1364L71.6299 59.3229C71.4182 59.6131 71.2563 59.8391 71.1504 59.9842L71.1336 59.9779C71.1308 59.7152 71.1446 59.4587 71.1377 59.1561L71.1029 57.5922L70.1422 57.2293ZM73.7756 58.608L72.3538 62.3725L73.3201 62.7375L74.5979 61.6692C74.9711 61.357 75.4046 60.9527 75.7465 60.5713L75.7632 60.5776C75.5273 61.0501 75.3221 61.5598 75.1027 62.1407L74.6829 63.2522L75.4649 63.5475L76.8867 59.7829L76.0153 59.4539L74.6464 60.6281C74.2711 60.9459 73.8321 61.3481 73.4643 61.7134L73.4476 61.707C73.6654 61.2149 73.9078 60.6236 74.1356 60.0204L74.5575 58.9033L73.7756 58.608ZM74.8265 58.022C74.694 58.5081 74.891 58.8314 75.377 59.0149C75.8741 59.2027 76.2726 59.1106 76.4854 58.6485L75.9101 58.4313C75.8111 58.6428 75.6921 58.7382 75.5245 58.6749C75.3458 58.6074 75.3307 58.4614 75.4018 58.2393L74.8265 58.022ZM32.1735 49.3095L30.758 53.0573C30.9374 53.157 31.2285 53.2988 31.6474 53.457C32.2227 53.6743 32.8569 53.7862 33.3402 53.605C33.634 53.4862 33.8812 53.254 34.0183 52.891C34.1765 52.4721 34.1152 52.1107 33.9244 51.8216C33.7197 51.5018 33.359 51.2571 32.9792 51.1136C32.834 51.0588 32.6454 51.0003 32.5106 50.9686L32.7553 50.3207L34.4086 50.9451L34.6702 50.2525L32.1735 49.3095ZM32.2744 51.5941C32.3791 51.6209 32.4839 51.6477 32.5788 51.6836C32.7799 51.7595 32.9732 51.89 33.0797 52.0642C33.1667 52.2056 33.1921 52.3747 33.1204 52.5646C33.0508 52.749 32.9212 52.8723 32.7695 52.9363C32.5834 53.0064 32.3514 52.9954 32.1448 52.9173C32.0275 52.873 31.9179 52.8253 31.8293 52.7726L32.2744 51.5941ZM37.1848 51.1256C36.0789 50.7079 35.0342 51.2771 34.6081 52.4053C34.201 53.4833 34.5416 54.5756 35.653 54.9954C36.759 55.4131 37.7824 54.9508 38.2507 53.7108C38.6451 52.6664 38.341 51.5623 37.1848 51.1256ZM36.9128 51.7951C37.4992 52.0166 37.5982 52.7177 37.3409 53.3991C37.0645 54.1308 36.5283 54.5537 35.953 54.3365C35.3833 54.1213 35.2332 53.4711 35.5137 52.7282C35.7901 51.9965 36.3319 51.5757 36.9128 51.7951ZM39.8874 52.2229L39.5077 53.2283C39.3347 53.6863 39.134 54.0827 38.89 54.4245C38.6944 54.6889 38.466 54.9218 38.2161 55.1274L37.8893 55.0295L37.3195 56.6395L37.9674 56.8842L38.3707 55.9516L40.5769 56.7848L40.263 57.7512L40.9053 57.9938L41.5477 56.4112L41.1819 56.2475L42.3506 53.1532L39.8874 52.2229ZM40.4134 53.2129L41.24 53.5251L40.3414 55.9045L39.0903 55.432C39.2527 55.2891 39.4342 55.096 39.5877 54.8923C39.8428 54.5547 40.059 54.1513 40.2235 53.7156L40.4134 53.2129ZM41.786 57.2415L42.6294 57.56L43.1399 56.2083C43.2118 56.2546 43.3102 56.2982 43.4219 56.3404C43.9246 56.5302 44.4032 56.5642 44.7949 56.4058C45.1019 56.2856 45.3395 56.0115 45.4787 55.6429C45.6179 55.2743 45.5797 54.9024 45.4056 54.6197C45.2302 54.3237 44.894 54.0818 44.3689 53.8835C43.8495 53.6874 43.4682 53.5817 43.1888 53.5272L41.786 57.2415ZM43.8065 54.4434C43.8743 54.4498 43.9958 54.4829 44.1633 54.5462C44.5934 54.7086 44.7555 55.006 44.6248 55.3523C44.4813 55.7321 44.1155 55.8556 43.6631 55.6848C43.5347 55.6363 43.453 55.599 43.3867 55.5549L43.8065 54.4434ZM48.121 55.2559C47.0151 54.8383 45.9705 55.4074 45.5444 56.5357C45.1373 57.6137 45.4778 58.706 46.5893 59.1258C47.6952 59.5434 48.7186 59.0811 49.1869 57.8412C49.5814 56.7967 49.2772 55.6926 48.121 55.2559ZM47.849 55.9254C48.4355 56.1469 48.5345 56.8481 48.2771 57.5295C48.0008 58.2612 47.4645 58.6841 46.8892 58.4668C46.3195 58.2516 46.1694 57.6014 46.45 56.8586C46.7263 56.1269 47.2682 55.7061 47.849 55.9254ZM52.1212 58.5345L50.736 58.0114L51.0313 57.2294L52.5003 57.7842L52.764 57.0861L50.446 56.2106L49.0243 59.9752L51.4204 60.8801L51.6841 60.182L50.1369 59.5976L50.4744 58.704L51.8596 59.2271L52.1212 58.5345ZM54.5587 57.7639L53.1369 61.5284L53.9859 61.8491L54.5808 60.274L55.9827 60.8035L55.3879 62.3786L56.2368 62.6992L57.6586 58.9346L56.8096 58.614L56.2633 60.0606L54.8614 59.5311L55.4077 58.0845L54.5587 57.7639ZM59.3021 62.7527L59.2276 63.8287L60.1491 64.1768L60.398 59.9692L59.2809 59.5473L56.7141 62.8795L57.591 63.2106L58.2241 62.3456L59.3021 62.7527ZM58.5874 61.7553L59.1125 61.041C59.2562 60.8463 59.4196 60.5826 59.5599 60.3803L59.571 60.3845C59.5425 60.629 59.5041 60.9336 59.4867 61.1823L59.4197 62.0696L58.5874 61.7553ZM63.4332 64.5364C63.2327 64.5436 62.9344 64.4884 62.6719 64.3892C61.9179 64.1045 61.6503 63.4609 61.9351 62.7069C62.2515 61.8691 62.9306 61.6597 63.6008 61.9128C63.908 62.0288 64.1229 62.1865 64.263 62.3224L64.6949 61.7197C64.5757 61.579 64.2722 61.3686 63.831 61.202C62.6916 60.7716 61.5077 61.135 61.0225 62.4197C60.6175 63.4921 60.9797 64.5607 62.2811 65.0522C62.7335 65.223 63.1248 65.2687 63.303 65.253L63.4332 64.5364ZM64.6629 65.8815L65.5119 66.2022L66.6637 63.1525L67.6914 63.5407L67.9614 62.8257L65.0682 61.733L64.7982 62.448L65.8147 62.8319L64.6629 65.8815ZM66.9912 66.7609L67.8346 67.0794L68.3451 65.7277C68.417 65.774 68.5154 65.8176 68.6271 65.8597C69.1298 66.0496 69.6084 66.0836 70.0001 65.9252C70.3071 65.805 70.5447 65.5309 70.6839 65.1623C70.8231 64.7936 70.7848 64.4218 70.6108 64.1391C70.4354 63.8431 70.0992 63.6012 69.5741 63.4029C69.0547 63.2067 68.6734 63.101 68.394 63.0466L66.9912 66.7609ZM69.0117 63.9627C69.0795 63.9692 69.201 64.0023 69.3685 64.0656C69.7986 64.228 69.9607 64.5254 69.8299 64.8717C69.6865 65.2515 69.3207 65.375 68.8683 65.2041C68.7399 65.1556 68.6582 65.1184 68.5919 65.0742L69.0117 63.9627ZM73.3262 64.7753C72.2203 64.3576 71.1757 64.9268 70.7496 66.0551C70.3425 67.133 70.683 68.2254 71.7945 68.6451C72.9004 69.0628 73.9238 68.6005 74.3921 67.3606C74.7866 66.3161 74.4824 65.212 73.3262 64.7753ZM73.0542 65.4448C73.6407 65.6663 73.7397 66.3674 73.4823 67.0489C73.206 67.7805 72.6697 68.2035 72.0944 67.9862C71.5247 67.771 71.3746 67.1208 71.6552 66.3779C71.9315 65.6462 72.4733 65.2254 73.0542 65.4448ZM77.3264 68.0539L75.9412 67.5308L76.2365 66.7488L77.7055 67.3036L77.9692 66.6054L75.6512 65.73L74.2295 69.4946L76.6256 70.3995L76.8893 69.7013L75.3421 69.117L75.6796 68.2234L77.0648 68.7465L77.3264 68.0539ZM78.6348 66.8568L77.2131 70.6214L78.062 70.942L78.6569 69.3669L80.0588 69.8964L79.464 71.4715L80.313 71.7921L81.7347 68.0276L80.8857 67.7069L80.3394 69.1536L78.9375 68.6241L79.4838 67.1775L78.6348 66.8568ZM82.4801 68.3091L81.0583 72.0737L82.0246 72.4386L83.3024 71.3703C83.6756 71.0582 84.1091 70.6539 84.451 70.2724L84.4678 70.2788C84.2319 70.7513 84.0266 71.2609 83.8072 71.8418L83.3875 72.9533L84.1694 73.2486L85.5912 69.4841L84.7199 69.155L83.351 70.3293C82.9757 70.647 82.5366 71.0492 82.1689 71.4145L82.1521 71.4082C82.3699 70.916 82.6124 70.3247 82.8402 69.7215L83.2621 68.6044L82.4801 68.3091ZM88.0172 72.0916L86.632 71.5684L86.9273 70.7865L88.3963 71.3412L88.66 70.6431L86.342 69.7676L84.9202 73.5322L87.3164 74.4372L87.5801 73.739L86.0329 73.1547L86.3704 72.261L87.7556 72.7841L88.0172 72.0916ZM89.0626 73.6862L90.1411 71.2025L89.2586 70.8692L88.4259 73.4458L89.0626 73.6862ZM88.2549 74.8618C88.5565 74.9757 88.8342 74.8317 88.9439 74.5413C89.0523 74.2376 88.9348 73.9571 88.6388 73.8453C88.3428 73.7335 88.0581 73.8621 87.9442 74.1637C87.8345 74.4541 87.9533 74.7479 88.2437 74.8576L88.2549 74.8618Z" fill="#F47920"/>
</svg>
