<svg width="33" height="47" viewBox="0 0 33 47" fill="none" xmlns="http://www.w3.org/2000/svg">
<path d="M4.40558 45.0201C3.42448 44.9125 2.44749 44.6883 1.49279 44.4259C0.642074 44.1861 0.0541633 43.6234 0.00118859 42.7463C-0.0356375 42.0058 0.787822 41.2331 1.83855 41.1482C3.2465 41.0352 4.67471 40.9423 6.07516 41.0431C10.2974 41.3463 14.5378 41.7277 18.7566 42.128C20.1557 42.2677 21.552 42.4852 22.947 42.7415C23.4257 42.8338 23.9226 43.0045 24.2905 43.2686C25.3341 43.9813 25.2067 45.2226 24.0383 45.6736C23.3798 45.9261 22.5803 46.0186 21.8686 45.997C19.5207 46.0231 7.87153 45.3781 4.40558 45.0201Z" fill="#F47920"/>
<path d="M28.3377 28.9988C27.3413 28.7165 26.5299 28.5444 25.7434 28.2482C17.7952 25.2832 10.7801 20.7034 4.14062 15.5319C3.36439 14.9237 2.63485 14.1712 2.1592 13.3436C1.90146 12.8979 1.97202 12.0256 2.26051 11.5352C2.4821 11.1676 3.30725 10.9237 3.76494 11.0218C4.63923 11.1959 5.52895 11.5372 6.30991 11.9998C11.469 15.0409 16.6064 18.1021 21.7216 21.2042C23.6318 22.3699 25.5191 23.5972 27.407 24.8038C28.0435 25.1993 28.6577 25.6357 29.2294 26.0916C29.8835 26.5917 30.2572 27.3327 29.7938 28.0465C29.485 28.5154 29.2587 29.0286 28.3377 28.9988Z" fill="#F47920"/>
</svg>
