<svg width="24" height="24" viewBox="0 0 24 24" fill="none" xmlns="http://www.w3.org/2000/svg">
<path d="M18.3121 10.2882H16.8544C16.8539 9.70846 16.6233 9.15266 16.2134 8.74274C15.8035 8.33282 15.2477 8.10227 14.668 8.10169V6.64404C15.6341 6.6452 16.5603 7.02951 17.2435 7.71266C17.9266 8.39582 18.3109 9.32204 18.3121 10.2882V10.2882Z" fill="#22496D"/>
<path d="M21.2271 10.2883H19.7694C19.7679 8.93565 19.2299 7.63889 18.2734 6.68246C17.317 5.72602 16.0202 5.18802 14.6676 5.18648V3.72883C16.4067 3.73076 18.074 4.42246 19.3037 5.65217C20.5334 6.88188 21.2251 8.54918 21.2271 10.2883V10.2883ZM19.7694 21.9495H19.6455C5.3241 21.1259 3.29067 9.04196 3.00643 5.35411C2.96201 4.77596 3.14905 4.20385 3.52642 3.76361C3.90379 3.32337 4.44058 3.05105 5.01872 3.00656C5.07654 3.00219 5.1346 3 5.19291 3H9.03382C9.32575 2.99972 9.61105 3.0871 9.85275 3.25083C10.0944 3.41457 10.2814 3.6471 10.3894 3.91832L11.4972 6.64413C11.6039 6.90909 11.6304 7.19955 11.5734 7.47943C11.5164 7.7593 11.3784 8.01627 11.1766 8.21839L9.62417 9.78536C9.86567 11.1638 10.5253 12.4346 11.5135 13.4255C12.5018 14.4163 13.7709 15.0793 15.1487 15.3244L16.7302 13.7575C16.9354 13.5579 17.1948 13.4231 17.476 13.37C17.7573 13.3168 18.0479 13.3477 18.3118 13.4586L21.0594 14.5592C21.3266 14.6706 21.5545 14.859 21.7141 15.1004C21.8738 15.3419 21.9579 15.6254 21.9559 15.9148V19.763C21.9559 20.3429 21.7255 20.899 21.3155 21.3091C20.9054 21.7191 20.3493 21.9495 19.7694 21.9495ZM5.19291 4.45765C5.0972 4.45736 5.00237 4.47593 4.91383 4.51229C4.8253 4.54865 4.74479 4.6021 4.67691 4.66957C4.60903 4.73705 4.5551 4.81723 4.51821 4.90555C4.48132 4.99386 4.46218 5.08858 4.4619 5.18429C4.4619 5.2047 4.46262 5.22486 4.46408 5.24478C4.79934 9.55943 6.94938 19.763 19.7257 20.4918C19.9186 20.5034 20.1082 20.4378 20.2528 20.3096C20.3974 20.1814 20.4851 20.0011 20.4968 19.8082L20.4982 19.763V15.9148L17.7506 14.8143L15.6588 16.8914L15.309 16.8477C8.96822 16.0533 8.10821 9.71248 8.10821 9.64689L8.06448 9.29705L10.1343 7.20532L9.0411 4.45765H5.19291Z" fill="#22496D"/>
</svg>
