<svg width="24" height="24" viewBox="0 0 24 24" fill="none" xmlns="http://www.w3.org/2000/svg">
<path d="M19.7143 5H4.28571C3.94472 5 3.6177 5.1475 3.37658 5.41005C3.13546 5.6726 3 6.0287 3 6.4V17.6C3 17.9713 3.13546 18.3274 3.37658 18.5899C3.6177 18.8525 3.94472 19 4.28571 19H19.7143C20.0553 19 20.3823 18.8525 20.6234 18.5899C20.8645 18.3274 21 17.9713 21 17.6V6.4C21 6.0287 20.8645 5.6726 20.6234 5.41005C20.3823 5.1475 20.0553 5 19.7143 5ZM18.3 6.4L12 11.146L5.7 6.4H18.3ZM4.28571 17.6V7.037L11.6336 12.574C11.7412 12.6553 11.869 12.6988 12 12.6988C12.131 12.6988 12.2588 12.6553 12.3664 12.574L19.7143 7.037V17.6H4.28571Z" fill="#22496D"/>
</svg>
