<svg width="15" height="15" viewBox="0 0 15 15" fill="none" xmlns="http://www.w3.org/2000/svg">
<path d="M11.8731 5.65269H10.7426C10.7422 5.20308 10.5634 4.77202 10.2455 4.4541C9.92755 4.13618 9.49648 3.95737 9.04688 3.95693V2.82642C9.79617 2.82731 10.5145 3.12537 11.0444 3.6552C11.5742 4.18504 11.8723 4.90339 11.8731 5.65269Z" fill="#22496D"/>
<path d="M14.1364 5.65255H13.0058C13.0047 4.60351 12.5874 3.59778 11.8456 2.856C11.1038 2.11422 10.0981 1.69696 9.04906 1.69577V0.565255C10.3978 0.566751 11.6909 1.10321 12.6447 2.05694C13.5984 3.01067 14.1349 4.30377 14.1364 5.65255ZM13.0058 14.6966H12.9098C1.8025 14.0579 0.225437 4.68596 0.00498808 1.82577C-0.0294664 1.37738 0.115599 0.93367 0.408276 0.592231C0.700953 0.250793 1.11727 0.0395931 1.56566 0.00508786C1.6105 0.00169633 1.65553 5.29978e-07 1.70075 5.29978e-07H4.67965C4.90606 -0.000218655 5.12733 0.067554 5.31478 0.19454C5.50224 0.321525 5.64724 0.501873 5.73102 0.712222L6.59021 2.82627C6.67293 3.03177 6.69346 3.25704 6.64924 3.47411C6.60503 3.69117 6.49801 3.89046 6.34149 4.04722L5.1375 5.26252C5.32481 6.3316 5.83637 7.31721 6.60283 8.0857C7.36929 8.85417 8.35355 9.36834 9.42213 9.55846L10.6487 8.34316C10.8079 8.18837 11.009 8.08385 11.2271 8.04264C11.4453 8.00142 11.6707 8.02534 11.8753 8.11141L14.0063 8.96494C14.2135 9.05136 14.3903 9.1975 14.5141 9.38474C14.6379 9.57198 14.7032 9.79184 14.7016 10.0163V13.0009C14.7016 13.4506 14.523 13.8819 14.2049 14.1999C13.8869 14.518 13.4556 14.6966 13.0058 14.6966ZM1.70075 1.13051C1.62652 1.13029 1.55297 1.14469 1.48431 1.17289C1.41564 1.20109 1.35321 1.24254 1.30056 1.29487C1.24791 1.3472 1.20609 1.40939 1.17748 1.47788C1.14887 1.54638 1.13402 1.61984 1.1338 1.69407C1.1338 1.7099 1.13437 1.72554 1.1355 1.74099C1.39551 5.08729 3.06302 13.0009 12.9719 13.5661C13.1215 13.5751 13.2686 13.5243 13.3807 13.4248C13.4929 13.3254 13.5609 13.1855 13.57 13.0359L13.5711 13.0009V10.0163L11.4401 9.16278L9.81781 10.7738L9.54649 10.7398C4.62877 10.1237 3.96177 5.206 3.96177 5.15512L3.92786 4.8838L5.53318 3.26152L4.6853 1.13051H1.70075Z" fill="#22496D"/>
</svg>
