<svg xmlns="http://www.w3.org/2000/svg" width="427" height="339" fill="none"><g filter="url(#a)"><path fill="#F47920" d="M136.148 325.522c-51.587-5.758-92.765-48.322-106.906-68.885-41.858-63.745-13.01-236.472 33.938-236.472s72.968-31.872 127.269 0c54.302 31.873 149.895-31.872 201.934 27.76 52.038 59.632 7.353 55.519 15.272 147.024 7.919 91.504-14.141 100.757-42.989 100.757-28.847 0-66.745-16.45-121.047 0-54.301 16.45-42.988 37.013-107.471 29.816Z"/><path stroke="#fff" stroke-width="3" d="M136.148 325.522c-51.587-5.758-92.765-48.322-106.906-68.885-41.858-63.745-13.01-236.472 33.938-236.472s72.968-31.872 127.269 0c54.302 31.873 149.895-31.872 201.934 27.76 52.038 59.632 7.353 55.519 15.272 147.024 7.919 91.504-14.141 100.757-42.989 100.757-28.847 0-66.745-16.45-121.047 0-54.301 16.45-42.988 37.013-107.471 29.816Z"/></g><defs><filter id="a" width="426" height="337.999" x=".5" y=".5" color-interpolation-filters="sRGB" filterUnits="userSpaceOnUse"><feFlood flood-opacity="0" result="BackgroundImageFix"/><feColorMatrix in="SourceAlpha" result="hardAlpha" values="0 0 0 0 0 0 0 0 0 0 0 0 0 0 0 0 0 0 127 0"/><feOffset dy="3"/><feGaussianBlur stdDeviation="3.5"/><feComposite in2="hardAlpha" operator="out"/><feColorMatrix values="0 0 0 0 0.134115 0 0 0 0 0.284533 0 0 0 0 0.429167 0 0 0 0.1 0"/><feBlend in2="BackgroundImageFix" result="effect1_dropShadow_725_1920"/><feBlend in="SourceGraphic" in2="effect1_dropShadow_725_1920" result="shape"/></filter></defs></svg>