<svg xmlns="http://www.w3.org/2000/svg" width="388" height="339" fill="none"><g filter="url(#a)"><path fill="#F47920" d="M124.024 325.522c-46.668-5.758-83.92-48.322-96.712-68.885-37.867-63.745-11.77-236.472 30.702-236.472 42.471 0 66.01-31.872 115.133 0 49.124 31.873 135.602-31.872 182.678 27.76 47.077 59.632 6.652 55.519 13.816 147.024 7.164 91.504-12.792 100.757-38.889 100.757s-60.381-16.45-109.505 0c-49.123 16.45-38.889 37.013-97.223 29.816Z"/><path stroke="#fff" stroke-width="3" d="M124.024 325.522c-46.668-5.758-83.92-48.322-96.712-68.885-37.867-63.745-11.77-236.472 30.702-236.472 42.471 0 66.01-31.872 115.133 0 49.124 31.873 135.602-31.872 182.678 27.76 47.077 59.632 6.652 55.519 13.816 147.024 7.164 91.504-12.792 100.757-38.889 100.757s-60.381-16.45-109.505 0c-49.123 16.45-38.889 37.013-97.223 29.816Z"/></g><defs><filter id="a" width="387" height="338" x=".5" y=".5" color-interpolation-filters="sRGB" filterUnits="userSpaceOnUse"><feFlood flood-opacity="0" result="BackgroundImageFix"/><feColorMatrix in="SourceAlpha" result="hardAlpha" values="0 0 0 0 0 0 0 0 0 0 0 0 0 0 0 0 0 0 127 0"/><feOffset dy="3"/><feGaussianBlur stdDeviation="3.5"/><feComposite in2="hardAlpha" operator="out"/><feColorMatrix values="0 0 0 0 0.134115 0 0 0 0 0.284533 0 0 0 0 0.429167 0 0 0 0.1 0"/><feBlend in2="BackgroundImageFix" result="effect1_dropShadow_725_1497"/><feBlend in="SourceGraphic" in2="effect1_dropShadow_725_1497" result="shape"/></filter></defs></svg>