<svg xmlns="http://www.w3.org/2000/svg" width="278" height="203" fill="none"><g filter="url(#a)"><path fill="#F79E5E" d="M89.45 191.139c-33.046-3.354-59.425-28.15-68.483-40.129-26.814-37.135-8.334-137.758 21.74-137.758 30.074 0 46.742-18.567 81.527 0 34.785 18.567 96.02-18.567 129.356 16.172 33.335 34.738 4.71 32.343 9.783 85.649 5.073 53.306-9.059 58.697-27.538 58.697s-42.756-9.584-77.541 0c-34.785 9.583-27.538 21.562-68.845 17.369Z"/><path stroke="#fff" stroke-width="2" d="M89.45 191.139c-33.046-3.354-59.425-28.15-68.483-40.129-26.814-37.135-8.334-137.758 21.74-137.758 30.074 0 46.742-18.567 81.527 0 34.785 18.567 96.02-18.567 129.356 16.172 33.335 34.738 4.71 32.343 9.783 85.649 5.073 53.306-9.059 58.697-27.538 58.697s-42.756-9.584-77.541 0c-34.785 9.583-27.538 21.562-68.845 17.369Z"/></g><defs><filter id="a" width="278" height="203" x="0" y="0" color-interpolation-filters="sRGB" filterUnits="userSpaceOnUse"><feFlood flood-opacity="0" result="BackgroundImageFix"/><feColorMatrix in="SourceAlpha" result="hardAlpha" values="0 0 0 0 0 0 0 0 0 0 0 0 0 0 0 0 0 0 127 0"/><feOffset dy="3"/><feGaussianBlur stdDeviation="3.5"/><feComposite in2="hardAlpha" operator="out"/><feColorMatrix values="0 0 0 0 0.134115 0 0 0 0 0.284533 0 0 0 0 0.429167 0 0 0 0.1 0"/><feBlend in2="BackgroundImageFix" result="effect1_dropShadow_725_2440"/><feBlend in="SourceGraphic" in2="effect1_dropShadow_725_2440" result="shape"/></filter></defs></svg>