<svg width="28" height="28" viewBox="0 0 28 28" fill="none" xmlns="http://www.w3.org/2000/svg">
<path fill-rule="evenodd" clip-rule="evenodd" d="M8.16231 14.4974C8.2356 14.5648 8.28616 14.6026 8.31393 14.6108L8.42427 14.7123C8.55355 14.7964 8.68252 14.8977 8.81129 15.0161L9.04618 15.206C9.06455 15.2229 9.10609 15.2524 9.17073 15.2944C9.23537 15.3365 9.28605 15.3744 9.32286 15.4082L11.061 17.0065L11.4473 17.3617C11.6406 17.5221 11.7741 17.6362 11.8477 17.7038L12.3443 18.1605L12.4688 18.249L13.1862 18.9086L13.6276 19.3144C13.8394 19.4918 13.9913 19.6227 14.0832 19.7073L16.2905 21.7369C16.2715 21.7543 16.354 21.8475 16.538 22.0166L16.6342 22.1311C16.7629 22.2496 16.8131 22.3218 16.7848 22.3478L16.8668 22.4754C16.8942 22.5179 16.9307 22.5688 16.9764 22.6282C16.9948 22.6452 17.0085 22.6664 17.0175 22.6921C17.0358 22.709 17.0403 22.7217 17.0308 22.7304L17.0577 22.8073L17.0846 22.884L17.0979 22.9224C17.1069 22.948 17.1206 22.9693 17.139 22.9862L17.1777 23.2043L17.1762 23.3071L17.0062 23.4635C16.8839 23.5421 16.8409 23.6155 16.8772 23.6836L16.8213 23.6843L16.6385 23.7508L16.5826 23.7515L16.5267 23.7522L16.4566 23.7659L16.1359 23.7055C16.1265 23.7142 16.08 23.7062 15.9965 23.6815C15.9224 23.6482 15.8344 23.6107 15.7325 23.5691C15.6584 23.5357 15.6075 23.515 15.5797 23.5068L15.4685 23.4567L15.3298 23.3813C15.2463 23.3566 15.1861 23.3274 15.1493 23.2935L15.0382 23.2435C14.9826 23.227 14.9364 23.2019 14.8996 23.168L14.6639 23.0295C14.5436 22.971 14.4559 22.9164 14.4007 22.8657L13.9444 22.5242L13.9033 22.4605C13.8944 22.4348 13.8715 22.4052 13.8347 22.3713L13.3933 21.9654C13.3381 21.9147 13.269 21.8598 13.186 21.8009C13.1214 21.7588 13.0706 21.7208 13.0338 21.687L12.6476 21.3319L12.4545 21.1543C12.3535 21.0441 12.2939 20.9806 12.2755 20.9636L11.972 20.6846L11.7923 20.5454L11.5992 20.3678L9.69548 18.6173L9.47474 18.4143L9.23985 18.2244L9.15709 18.1483C9.13872 18.1314 9.0696 18.0766 8.94979 17.9838L8.72911 17.7808L8.67393 17.7301L8.48077 17.5525L8.32864 17.4387L8.09375 17.2487L7.90065 17.0712L7.74852 16.9574L6.58974 15.8918C6.57137 15.8749 6.55767 15.8536 6.54871 15.8281L6.43837 15.7266C6.3832 15.6758 6.3238 15.5951 6.26017 15.4845C6.19654 15.3739 6.12792 15.2847 6.05438 15.2171L6.04169 15.1273L5.9999 15.1149L6.02976 14.986L6.01631 14.9477C6.01682 14.9134 6.03102 14.9003 6.05886 14.9085L6.05962 14.8571C6.06265 14.8562 6.06555 14.8552 6.06839 14.8542L6.03835 14.7848L6.03746 14.7333L6.03658 14.6818L6.02149 14.6171L6.08657 14.3218C6.0771 14.3131 6.08569 14.2703 6.11239 14.1933C6.14862 14.1251 6.18928 14.0442 6.23441 13.9503C6.27058 13.8822 6.29318 13.8352 6.30208 13.8096L6.35637 13.7073L6.4383 13.5797C6.46501 13.5028 6.49676 13.4474 6.53356 13.4136L6.58785 13.3113C6.60565 13.26 6.63298 13.2175 6.66978 13.1836L6.82021 12.9668C6.88371 12.8561 6.94305 12.7753 6.99822 12.7246L7.3694 12.3048L7.43877 12.2671C7.46667 12.259 7.49899 12.238 7.53579 12.2041L7.97722 11.7982C8.0324 11.7475 8.09205 11.6839 8.15612 11.6075C8.20182 11.5481 8.24304 11.5014 8.27985 11.4676L8.66611 11.1124L8.85927 10.9349C8.97908 10.8421 9.0482 10.7873 9.06663 10.7704L9.37008 10.4913L9.52139 10.326L9.71455 10.1484L11.6183 8.39789L11.839 8.19494L12.0454 7.97893L12.1283 7.9028C12.1466 7.88588 12.2063 7.82231 12.3071 7.7121L12.5278 7.50915L12.583 7.45846L12.7762 7.28083L12.8999 7.14094L13.1064 6.92487L13.2995 6.7473L13.4232 6.60735L14.582 5.54186C14.6004 5.52495 14.6235 5.51238 14.6514 5.50418L14.7618 5.40267C14.8169 5.35199 14.9047 5.29738 15.0252 5.23899C15.1456 5.1806 15.2426 5.1176 15.3162 5.04993L15.414 5.03844L15.4274 5L15.568 5.02778L15.6098 5.01547C15.6471 5.01597 15.6613 5.0291 15.6524 5.05473L15.7085 5.05555C15.7281 5.10731 15.747 5.1248 15.7654 5.10788L15.7805 5.17246C15.7995 5.18994 15.8229 5.19455 15.8508 5.18634L15.9966 5.52337L15.9983 5.62645L16.0419 5.71723C16.0609 5.73465 16.0796 5.73496 16.0979 5.71805L16.113 5.78262C16.1409 5.77448 16.1596 5.77473 16.1691 5.78344L16.226 5.83577C16.2539 5.82757 16.2968 5.884 16.3549 6.00507L16.4705 6.21282L16.4046 6.45667C16.414 6.46538 16.4144 6.48255 16.4055 6.50818L16.2692 6.73808C16.2152 6.85758 16.1606 6.94267 16.1054 6.99342C16.0318 7.06103 15.9906 7.10768 15.9817 7.13331L15.8714 7.23481C15.78 7.35374 15.6699 7.47241 15.5412 7.59077L15.3346 7.80685C15.3162 7.8237 15.2842 7.86189 15.2385 7.92136C15.1928 7.98082 15.1516 8.02747 15.1148 8.0613L13.3766 9.65956L12.9903 10.0148C12.8159 10.1926 12.6919 10.3154 12.6184 10.383L12.1217 10.8397L12.0256 10.9543L11.3083 11.6138L10.8668 12.0197C10.674 12.2145 10.5316 12.3542 10.4396 12.4388L8.23238 14.4683C8.22423 14.4608 8.20088 14.4706 8.16231 14.4974Z" fill="#F47920"/>
</svg>
