<svg width="28" height="28" viewBox="0 0 28 28" fill="none" xmlns="http://www.w3.org/2000/svg">
<path fill-rule="evenodd" clip-rule="evenodd" d="M19.0154 14.4974C18.9421 14.5648 18.8916 14.6026 18.8638 14.6108L18.7535 14.7123C18.6242 14.7964 18.4952 14.8977 18.3664 15.0161L18.1316 15.206C18.1132 15.2229 18.0716 15.2524 18.007 15.2944C17.9424 15.3365 17.8917 15.3744 17.8549 15.4082L16.1167 17.0065L15.7305 17.3617C15.5371 17.5221 15.4036 17.6362 15.3301 17.7038L14.8334 18.1605L14.7089 18.249L13.9916 18.9086L13.5501 19.3144C13.3384 19.4918 13.1865 19.6227 13.0945 19.7073L10.8873 21.7369C10.9062 21.7543 10.8237 21.8475 10.6398 22.0166L10.5436 22.1311C10.4148 22.2496 10.3646 22.3218 10.393 22.3478L10.3109 22.4754C10.2836 22.5179 10.2471 22.5688 10.2013 22.6282C10.1829 22.6452 10.1692 22.6664 10.1603 22.6921C10.1419 22.709 10.1374 22.7217 10.1469 22.7304L10.1201 22.8073L10.0932 22.884L10.0798 22.9224C10.0708 22.948 10.0571 22.9693 10.0388 22.9862L10 23.2043L10.0015 23.3071L10.1715 23.4635C10.2938 23.5421 10.3368 23.6155 10.3005 23.6836L10.3565 23.6843L10.5392 23.7508L10.5951 23.7515L10.6511 23.7522L10.7211 23.7659L11.0418 23.7055C11.0512 23.7142 11.0977 23.7062 11.1813 23.6815C11.2553 23.6482 11.3433 23.6107 11.4452 23.5691C11.5193 23.5357 11.5702 23.515 11.5981 23.5068L11.7092 23.4567L11.8479 23.3813C11.9314 23.3566 11.9916 23.3274 12.0284 23.2935L12.1395 23.2435C12.1952 23.227 12.2414 23.2019 12.2782 23.168L12.5138 23.0295C12.6341 22.971 12.7219 22.9164 12.7771 22.8657L13.2334 22.5242L13.2744 22.4605C13.2834 22.4348 13.3062 22.4052 13.343 22.3713L13.7845 21.9654C13.8396 21.9147 13.9088 21.8598 13.9918 21.8009C14.0563 21.7588 14.1071 21.7208 14.1439 21.687L14.5302 21.3319L14.7233 21.1543C14.8242 21.0441 14.8838 20.9806 14.9022 20.9636L15.2057 20.6846L15.3854 20.5454L15.5785 20.3678L17.4823 18.6173L17.703 18.4143L17.9379 18.2244L18.0206 18.1483C18.039 18.1314 18.1081 18.0766 18.2279 17.9838L18.4486 17.7808L18.5038 17.7301L18.697 17.5525L18.8491 17.4387L19.084 17.2487L19.2771 17.0712L19.4292 16.9574L20.588 15.8918C20.6064 15.8749 20.6201 15.8536 20.629 15.8281L20.7394 15.7266C20.7945 15.6758 20.8539 15.5951 20.9176 15.4845C20.9812 15.3739 21.0498 15.2847 21.1234 15.2171L21.136 15.1273L21.1778 15.1149L21.148 14.986L21.1614 14.9477C21.1609 14.9134 21.1467 14.9003 21.1189 14.9085L21.1181 14.8571C21.1151 14.8562 21.1122 14.8552 21.1093 14.8542L21.1394 14.7848L21.1403 14.7333L21.1412 14.6818L21.1562 14.6171L21.0912 14.3218C21.1006 14.3131 21.092 14.2703 21.0653 14.1933C21.0291 14.1251 20.9885 14.0442 20.9433 13.9503C20.9072 13.8822 20.8846 13.8352 20.8757 13.8096L20.8214 13.7073L20.7394 13.5797C20.7127 13.5028 20.681 13.4474 20.6442 13.4136L20.5899 13.3113C20.5721 13.26 20.5448 13.2175 20.508 13.1836L20.3575 12.9668C20.294 12.8561 20.2347 12.7753 20.1795 12.7246L19.8083 12.3048L19.739 12.2671C19.7111 12.259 19.6787 12.238 19.6419 12.2041L19.2005 11.7982C19.1453 11.7475 19.0857 11.6839 19.0216 11.6075C18.9759 11.5481 18.9347 11.5014 18.8979 11.4676L18.5116 11.1124L18.3185 10.9349C18.1987 10.8421 18.1295 10.7873 18.1111 10.7704L17.8077 10.4913L17.6563 10.326L17.4632 10.1484L15.5595 8.39789L15.3388 8.19494L15.1323 7.97893L15.0495 7.9028C15.0311 7.88588 14.9715 7.82231 14.8706 7.7121L14.6499 7.50915L14.5947 7.45846L14.4016 7.28083L14.2778 7.14094L14.0714 6.92487L13.8783 6.7473L13.7545 6.60735L12.5958 5.54186C12.5773 5.52495 12.5542 5.51238 12.5263 5.50418L12.416 5.40267C12.3608 5.35199 12.273 5.29738 12.1526 5.23899C12.0321 5.1806 11.9352 5.1176 11.8616 5.04993L11.7637 5.03844L11.7503 5L11.6097 5.02778L11.568 5.01547C11.5306 5.01597 11.5164 5.0291 11.5253 5.05473L11.4692 5.05555C11.4497 5.10731 11.4307 5.1248 11.4123 5.10788L11.3972 5.17246C11.3782 5.18994 11.3548 5.19455 11.3269 5.18634L11.1811 5.52337L11.1794 5.62645L11.1359 5.71723C11.1169 5.73465 11.0982 5.73496 11.0798 5.71805L11.0647 5.78262C11.0368 5.77448 11.0181 5.77473 11.0087 5.78344L10.9517 5.83577C10.9238 5.82757 10.8809 5.884 10.8228 6.00507L10.7073 6.21282L10.7732 6.45667C10.7637 6.46538 10.7634 6.48255 10.7723 6.50818L10.9085 6.73808C10.9625 6.85758 11.0171 6.94267 11.0723 6.99342C11.1459 7.06103 11.1871 7.10768 11.196 7.13331L11.3064 7.23481C11.3978 7.35374 11.5079 7.47241 11.6366 7.59077L11.8431 7.80685C11.8615 7.8237 11.8936 7.86189 11.9392 7.92136C11.9849 7.98082 12.0262 8.02747 12.0629 8.0613L13.8011 9.65956L14.1874 10.0148C14.3618 10.1926 14.4858 10.3154 14.5594 10.383L15.056 10.8397L15.1521 10.9543L15.8695 11.6138L16.3109 12.0197C16.5038 12.2145 16.6462 12.3542 16.7381 12.4388L18.9454 14.4683C18.9535 14.4608 18.9769 14.4706 19.0154 14.4974Z" fill="#F47920"/>
</svg>
