<svg xmlns="http://www.w3.org/2000/svg" width="1920" height="1008" fill="none"><g fill="#fff" fill-rule="evenodd" clip-path="url(#a)" clip-rule="evenodd"><path d="M1138.47 906.999c-11.05 6.718-16.89 24.515-29.81 24.044-12.94-.471-19.57-16.381-28.07-26.15-6.42-7.378-7.54-19.044-15.8-24.275-14.56-9.218-36.92-3.471-48.36-16.354-10.19-11.48-14.15-31.929-6.19-45.061 8.8-14.523 32.97-9.549 45.92-20.522 10.2-8.634 7.95-27.391 19.19-34.615 11.08-7.118 25.78-1.665 38.9-2.724 14.68-1.185 32.41-13.671 43.45-3.923 12.44 10.987 2.93 32.595 7.18 48.639 2.57 9.74 8.09 18.054 12.82 26.95 6.52 12.253 22.49 21.927 20.46 35.655-1.93 13.127-18.38 18.751-29.55 25.922-9.26 5.946-20.74 6.697-30.14 12.414ZM209.8 316.044c27.151 7.259 55.038-31.089 80.836-19.937 25.42 10.988 17.355 55.236 39.449 71.933 32.391 24.478 88.645 9.887 112.395 42.816 20.741 28.758 11.178 73.788-5.878 104.874-17.031 31.039-64.037 32.773-85.215 61.145-22.179 29.714-4.058 87.214-37.492 103.244-33.464 16.044-67.195-31.413-104.095-35.36-31.873-3.41-64.369 26.66-93.895 14.181-29.245-12.361-45.481-46.305-54.28-76.81-8.077-27.999 17.122-58.576 7.311-86.015-11.775-32.935-58.228-45.487-66.48-79.476-8.15-33.564 5.135-70.13 22.973-99.706 18.536-30.734 43.752-70.267 79.643-70.44 42.438-.205 63.73 58.589 104.728 69.551ZM961.64 307.691c-12.905 12.25-9.35 33.443-15.691 50.067-6.806 17.843-31.818 34.454-23.012 51.4 9.988 19.221 45.055 5.405 60.449 20.644 14.074 13.931-1.543 48.641 16.884 55.903 17.76 7.003 29.92-22.606 47.25-30.622 12.54-5.8 27.26-3.365 39.61-9.552 15.1-7.558 37.07-13.442 39.62-30.126 2.7-17.686-25.93-26.841-28.2-44.587-2.64-20.6 23.35-40.446 14.88-59.409-7.62-17.05-32.44-18.058-50.86-21.125-16.81-2.801-33.28 1.419-50.09 4.317-17.54 3.026-37.927.833-50.84 13.09Z"/></g><defs><clipPath id="a"><path fill="#fff" d="M0 0h1920v1008H0z"/></clipPath></defs></svg>
