<svg width="160" height="150" viewBox="0 0 160 150" fill="none" xmlns="http://www.w3.org/2000/svg">
<path fill-rule="evenodd" clip-rule="evenodd" d="M78.3326 0.181515C64.6192 -0.299747 54.895 12.8954 42.3281 18.2976C28.8396 24.096 6.17898 19.3714 1.63006 33.1543C-3.52965 48.7879 23.0351 60.4479 22.9889 76.8944C22.9466 91.9294 -4.57826 101.92 1.39786 115.766C7.16058 129.118 30.0116 119.966 43.7935 125.098C53.7662 128.811 60.389 138.081 70.4738 141.488C82.7921 145.649 97.9164 154.433 108.465 146.943C119.646 139.004 109.186 118.617 117.709 107.949C127.602 95.5651 152.57 99.0992 158.409 84.4259C163.659 71.2325 150.786 57.2456 142.506 45.6312C134.947 35.0276 123.717 28.3441 113.035 20.779C101.88 12.8784 92.0553 0.663102 78.3326 0.181515Z" fill="#F47920"/>
</svg>
