<svg width="218" height="97" viewBox="0 0 218 97" fill="none" xmlns="http://www.w3.org/2000/svg">
<path d="M7.55684 1.93018H6.88689L6.63203 2.54975L7.55684 2.93018C6.63203 2.54975 6.63189 2.5501 6.6317 2.55055L6.63111 2.55199L6.62915 2.55678L6.62213 2.57401L6.59605 2.63858C6.57346 2.69485 6.54061 2.77735 6.49857 2.88478C6.4145 3.09964 6.29363 3.41429 6.14448 3.81831C5.84623 4.62624 5.43458 5.79232 4.97765 7.23317C4.06455 10.1125 2.96694 14.1008 2.23434 18.5277C0.783064 27.2974 0.703391 38.146 6.79376 45.337C8.20121 46.9988 9.25344 48.897 10.0152 50.9554C10.6603 52.6988 11.3002 54.483 11.9468 56.2859C14.7153 64.0054 17.607 72.0682 21.5627 78.7466C26.4696 87.0309 33.1273 93.3869 43.4136 94.4224C62.71 96.3649 87.1406 95.9994 109.744 87.3857C133.505 78.3312 159.421 78.5301 179.12 80.9081C188.38 82.026 198.476 80.0929 205.883 75.5394C213.322 70.9659 218.146 63.6601 216.428 54.1632C215.745 50.3837 214.381 46.8432 211.979 44.04C209.466 41.1074 208.165 37.1472 207.673 32.7553C207.182 28.3695 207.507 23.6363 208.172 19.2502C208.837 14.8696 209.834 10.8706 210.667 7.96445C211.083 6.51251 211.458 5.33611 211.727 4.52453C211.862 4.1188 211.97 3.80443 212.045 3.59258C212.082 3.48667 212.111 3.40639 212.13 3.35316L212.151 3.29378L212.157 3.27963L212.158 3.2765L212.158 3.27602L212.158 3.27593L212.654 1.93018H211.22H7.55684Z" fill="#71D1E6" stroke="white" stroke-width="2"/>
</svg>
