<svg width="242" height="98" viewBox="0 0 242 98" fill="none" xmlns="http://www.w3.org/2000/svg">
<path d="M8.94064 1.9082H5.99163L8.33032 3.70036C8.33075 3.7007 8.33138 3.70119 8.3322 3.70184L8.35277 3.71834C8.37317 3.73491 8.40671 3.76263 8.45204 3.80173C8.54273 3.87994 8.6805 4.00358 8.85461 4.17435C9.20291 4.51598 9.69604 5.04564 10.2485 5.77711C11.3525 7.23891 12.6953 9.50887 13.5936 12.7023C15.3844 19.0687 15.4475 29.253 8.04423 44.2255C2.25359 55.9365 0.852184 64.95 1.39181 71.6577C1.84834 77.3327 5.26738 80.9366 9.84674 82.8184C14.3762 84.6797 20.0683 84.884 25.3536 83.8858C37.4565 81.6 54.9048 78.9956 72.6858 78.703C90.4947 78.41 108.502 80.4402 121.811 87.3177C135.361 94.3198 153.429 96.3881 171.082 96.1669C188.763 95.9454 206.159 93.4242 218.452 91.1449C229.723 89.0551 239.185 80.7903 240.045 69.1337C240.594 61.6877 240.067 52.7517 236.522 44.2826C232.532 34.7481 232.518 24.5054 233.528 16.5953C234.032 12.6481 234.788 9.30255 235.417 6.94635C235.731 5.76874 236.014 4.83963 236.217 4.2076C236.318 3.89163 236.4 3.65002 236.455 3.48887C236.483 3.40829 236.504 3.34784 236.518 3.30827L236.534 3.26468L236.538 3.25482L236.538 3.253L236.538 3.2529L236.538 3.25269L237.032 1.9082H235.6H8.94064Z" fill="#FF7C72" stroke="white" stroke-width="2"/>
</svg>
