<svg width="250" height="93" viewBox="0 0 250 93" fill="none" xmlns="http://www.w3.org/2000/svg">
<path d="M233.736 1H234.158L234.453 1.30261L233.736 2C234.453 1.30261 234.453 1.30296 234.453 1.30343L234.455 1.30501L234.46 1.31043L234.479 1.3302C234.496 1.34732 234.52 1.37231 234.551 1.40495C234.613 1.47022 234.704 1.56608 234.82 1.6908C235.053 1.94022 235.387 2.30517 235.801 2.77176C236.627 3.70461 237.77 5.04544 239.04 6.6828C241.572 9.94898 244.637 14.4323 246.691 19.2341C248.734 24.0132 249.845 29.2718 248.221 33.9887C246.575 38.7714 242.225 42.7063 234.008 45.0332C229.315 46.3623 224.979 49.3112 220.777 53.1495C216.691 56.8807 212.797 61.3889 208.855 65.9528C208.741 66.0855 208.626 66.2182 208.511 66.3509C204.47 71.0287 200.372 75.7423 196.03 79.5809C191.686 83.421 187.031 86.4489 181.848 87.6899C162.554 92.3098 139.215 94.7065 120.155 87.0704C108.29 82.3168 93.4177 80.3976 78.3505 80.064C63.2974 79.7308 48.1233 80.9811 35.6939 82.5203C27.2794 83.5623 18.4209 81.8207 11.7588 77.6578C5.07024 73.4783 0.550781 66.8136 1.07272 58.113C1.40154 52.6319 2.89871 47.2891 6.59128 43.384C9.38777 40.4266 10.8284 36.4445 11.3733 32.0364C11.9181 27.6291 11.5574 22.8698 10.8186 18.4554C10.0807 14.0469 8.97247 10.0216 8.04706 7.0957C7.58475 5.63399 7.16905 4.44972 6.86971 3.63279C6.72005 3.2244 6.59955 2.90801 6.51694 2.69488C6.47563 2.58832 6.4438 2.50759 6.42255 2.4541L6.39873 2.39447L6.39302 2.38032L6.39175 2.37721L6.39159 2.37677L6.39153 2.37665L5.83159 1H7.31789H233.736Z" fill="#3178B5" stroke="white" stroke-width="2"/>
</svg>
