<svg width="245" height="98" viewBox="0 0 245 98" fill="none" xmlns="http://www.w3.org/2000/svg">
<path d="M236.184 1.97021H239.133L236.795 3.76238C236.794 3.76271 236.794 3.7632 236.793 3.76386L236.772 3.78035C236.752 3.79692 236.718 3.82464 236.673 3.86374C236.582 3.94195 236.445 4.06559 236.27 4.23637C235.922 4.57799 235.429 5.10765 234.877 5.83913C233.772 7.30093 232.43 9.57088 231.531 12.7643C229.741 19.1307 229.677 29.315 237.081 44.2875C242.871 55.9985 244.273 65.012 243.733 71.7197C243.277 77.3947 239.858 80.9986 235.278 82.8804C230.749 84.7417 225.057 84.946 219.771 83.9478C207.668 81.662 190.22 79.0576 172.439 78.765C154.63 78.472 136.623 80.5022 123.314 87.3797C104.579 97.0609 77.164 97.3258 54.0472 95.0978C42.2242 93.9584 35.2734 84.7007 29.1614 74.408C27.9511 72.3699 26.7792 70.3008 25.607 68.2313C23.7733 64.9937 21.939 61.7552 19.9569 58.6334C16.7293 53.5501 13.2055 48.9423 8.90208 45.5128C-0.0350189 38.3905 0.0645905 27.418 2.20612 18.5573C3.28404 14.0972 4.89761 10.0779 6.23737 7.17892C6.90813 5.72755 7.51241 4.55238 7.9503 3.73785C8.1693 3.33048 8.34685 3.01303 8.47046 2.79603C8.53227 2.68752 8.58063 2.6041 8.61395 2.54709L8.65248 2.48153L8.66293 2.46391L8.66589 2.45894L8.66681 2.45742C8.6671 2.45693 8.66733 2.45655 9.52531 2.97021L8.66733 2.45655L8.95848 1.97021H9.52531H236.184Z" fill="#FF7C72" stroke="white" stroke-width="2"/>
</svg>
