<svg width="218" height="99" viewBox="0 0 218 99" fill="none" xmlns="http://www.w3.org/2000/svg">
<path d="M7.14886 1H6.4698L6.21935 1.63119L7.14886 2C6.21935 1.63119 6.21922 1.63154 6.21904 1.63199L6.21846 1.63345L6.21651 1.63838L6.20952 1.65616L6.18349 1.723C6.16091 1.78128 6.12806 1.86681 6.08601 1.97824C6.0019 2.20108 5.88094 2.52754 5.73164 2.94683C5.43308 3.78526 5.02095 4.99559 4.56346 6.49118C3.64919 9.48012 2.55035 13.6196 1.81701 18.2137C0.363825 27.3175 0.286993 38.5595 6.37443 46.011C8.22228 48.2729 9.46202 50.9583 10.2358 53.8879C12.721 63.2978 15.659 73.463 20.4474 81.5453C25.255 89.6599 31.9994 95.7884 42.099 96.8937C61.5846 99.0262 86.5118 98.7866 109.545 89.6867C133.098 80.382 158.765 80.4867 178.422 82.8833C187.827 84.0301 198.033 82.078 205.556 77.454C213.11 72.8107 218.046 65.3919 216.508 55.7286C215.855 51.6244 214.48 47.7686 211.978 44.7412C209.454 41.6868 208.146 37.5609 207.652 32.9888C207.159 28.4243 207.486 23.5007 208.153 18.9413C208.819 14.387 209.82 10.2301 210.655 7.20958C211.072 5.70039 211.447 4.47756 211.717 3.63381C211.852 3.21199 211.961 2.88509 212.036 2.66472C212.073 2.55454 212.102 2.471 212.121 2.41556L212.143 2.35365L212.148 2.33885L212.149 2.33554L212.15 2.33499L212.624 1H211.207H7.14886Z" fill="#3178B5" stroke="white" stroke-width="2"/>
</svg>
