<svg width="241" height="102" viewBox="0 0 241 102" fill="none" xmlns="http://www.w3.org/2000/svg">
<path d="M8.65702 1H5.84358L8.02384 2.77401C8.02428 2.77438 8.02494 2.77492 8.02581 2.77566L8.04652 2.7933C8.06703 2.81098 8.10071 2.84054 8.1462 2.8822C8.2372 2.96554 8.3754 3.09723 8.55005 3.27911C8.89937 3.64291 9.3941 4.20711 9.94845 4.98647C11.0563 6.54396 12.4049 8.96424 13.3072 12.3703C15.1075 19.1661 15.1627 30.0125 7.75049 45.9296C1.99327 58.2926 0.582989 67.8106 1.0982 74.8966C1.52974 80.8318 5.0338 84.6479 9.7814 86.6511C14.4781 88.6327 20.4071 88.8624 25.9503 87.7668C38.159 85.3537 55.4703 82.6751 73.0472 82.4258C90.6509 82.1761 108.385 84.3666 121.532 91.5802C135.087 99.018 153.16 101.216 170.816 100.984C188.498 100.75 205.897 98.075 218.198 95.6544C229.504 93.4297 238.786 84.9765 239.74 73.3049C240.402 65.2184 239.983 55.3322 236.299 45.985C232.298 35.8351 232.286 24.9337 233.297 16.5212C233.802 12.3229 234.559 8.76469 235.189 6.25861C235.504 5.00602 235.787 4.01754 235.99 3.34481C236.092 3.00847 236.174 2.75116 236.23 2.57934C236.257 2.49343 236.279 2.4289 236.293 2.38656L236.309 2.3398L236.313 2.32909L236.313 2.32693L236.313 2.32666L236.772 1H235.368H8.65702Z" fill="#FFC54B" stroke="white" stroke-width="2"/>
</svg>
