<svg width="268" height="93" viewBox="0 0 268 93" fill="none" xmlns="http://www.w3.org/2000/svg">
<path d="M250.692 1H251.094L251.384 1.27775L250.692 2C251.384 1.27775 251.384 1.27809 251.385 1.27856L251.386 1.28012L251.392 1.2855L251.412 1.30521C251.43 1.32229 251.456 1.34724 251.489 1.37983C251.556 1.44502 251.653 1.54079 251.778 1.66542C252.027 1.91466 252.386 2.27944 252.83 2.74585C253.716 3.67834 254.942 5.01884 256.304 6.65593C259.021 9.92093 262.312 14.4052 264.517 19.2102C266.711 23.991 267.912 29.2699 266.161 34.0097C264.389 38.8041 259.727 42.7211 250.947 45.0379C246.208 46.2887 241.704 49.1923 237.268 53.0044C232.935 56.7286 228.738 61.2567 224.491 65.8377L224.191 66.1609C219.861 70.8318 215.475 75.539 210.912 79.3626C206.35 83.186 201.538 86.1897 196.33 87.3867C175.371 92.2032 149.711 94.8668 128.85 87.0789C115.587 82.1278 98.8382 80.2495 82.0083 80.0317C65.1937 79.814 48.3745 81.254 35.0112 82.894C26.8504 83.8956 18.2779 82.2493 11.7744 78.2536C5.24573 74.2425 0.761475 67.8234 1.01843 59.3757C1.19907 53.4367 2.74222 47.5596 7.0051 43.3588C10.0091 40.3985 11.5499 36.4219 12.1329 32.0276C12.7163 27.6297 12.3303 22.8779 11.538 18.4671C10.7469 14.0625 9.55844 10.0401 8.5658 7.11556C8.06995 5.65467 7.62408 4.47108 7.30304 3.6547C7.14255 3.24658 7.01334 2.93044 6.92477 2.71754C6.88049 2.6111 6.84637 2.53048 6.82361 2.47709L6.79813 2.41761L6.79202 2.40353L6.79068 2.40046L6.7905 2.40005L6.79044 2.39992L6.17938 1H7.707H250.692Z" fill="#71D1E5" stroke="white" stroke-width="2"/>
</svg>
