<svg width="246" height="97" viewBox="0 0 246 97" fill="none" xmlns="http://www.w3.org/2000/svg">
<path d="M236.997 1.29956H239.946L237.607 3.09172C237.607 3.09206 237.606 3.09255 237.606 3.0932L237.585 3.1097C237.565 3.12626 237.531 3.15399 237.486 3.19309C237.395 3.2713 237.257 3.39493 237.083 3.56571C236.735 3.90733 236.242 4.437 235.689 5.16847C234.585 6.63027 233.242 8.90022 232.344 12.0937C230.553 18.4601 230.49 28.6444 237.894 43.6169C243.684 55.3279 245.086 64.3414 244.546 71.0491C244.089 76.7241 240.67 80.328 236.091 82.2098C231.562 84.0711 225.869 84.2754 220.584 83.2772C208.481 80.9914 191.033 78.3869 173.252 78.0944C155.443 77.8014 137.436 79.8315 124.127 86.709C105.392 96.3902 77.9767 96.6552 54.8599 94.4272C43.0369 93.2877 36.0861 84.0301 29.9741 73.7373C28.7639 71.6992 27.5919 69.6301 26.4198 67.5606C24.586 64.323 22.7518 61.0845 20.7696 57.9628C17.542 52.8795 14.0183 48.2717 9.71483 44.8421C0.777725 37.7198 0.877335 26.7474 3.01886 17.8866C4.09679 13.4266 5.71036 9.40722 7.05011 6.50826C7.72087 5.05689 8.32515 3.88173 8.76305 3.06719C8.98204 2.65983 9.15959 2.34238 9.2832 2.12537C9.34502 2.01686 9.39337 1.93344 9.4267 1.87643L9.46523 1.81087L9.47568 1.79325L9.47864 1.78828L9.47955 1.78677C9.47984 1.78628 9.48007 1.7859 10.3381 2.29956L9.48007 1.7859L9.77122 1.29956H10.3381H236.997Z" fill="#FFC54B" stroke="white" stroke-width="2"/>
</svg>
