<svg width="187" height="94" viewBox="0 0 187 94" fill="none" xmlns="http://www.w3.org/2000/svg">
<path d="M173.675 1.25977H174.189L174.488 1.67732L173.675 2.25977C174.488 1.67732 174.489 1.67768 174.489 1.67818L174.49 1.67979L174.494 1.68528L174.508 1.70523L174.561 1.78044C174.607 1.84606 174.674 1.94235 174.76 2.06756C174.932 2.31798 175.18 2.68422 175.485 3.15233C176.096 4.08829 176.94 5.43294 177.877 7.07449C179.748 10.3515 182.006 14.8393 183.517 19.6367C185.022 24.4166 185.82 29.6151 184.643 34.2584C183.448 38.9749 180.243 42.9956 174.034 45.3834C173.383 45.6338 172.762 45.8923 172.171 46.1582C168.04 48.0139 164.669 51.1928 161.64 55.0868C158.858 58.6637 156.41 62.781 153.93 66.951C153.705 67.33 153.479 67.7094 153.253 68.0889C150.556 72.6148 147.785 77.1476 144.523 80.8853C141.252 84.6336 137.441 87.6388 132.639 89.0538C118.954 93.0862 102.897 94.7545 89.5976 87.5187C75.828 80.0271 56.5239 79.6122 39.8874 81.3148C30.3564 82.2902 20.1432 80.0622 12.6978 75.1862C5.22159 70.29 0.457138 62.646 2.20232 52.9231C2.80563 49.5618 3.88203 46.4248 5.65492 43.8786C7.72342 40.9079 8.80064 36.8813 9.20731 32.4137C9.61275 27.9595 9.3438 23.1589 8.79652 18.7186C8.24982 14.2827 7.42902 10.2348 6.74419 7.29433C6.40198 5.82498 6.09424 4.63435 5.87253 3.81266C5.76167 3.40187 5.67238 3.08343 5.61107 2.86864C5.58041 2.76125 5.55676 2.67978 5.54092 2.62565L5.52312 2.56513L5.5188 2.55058L5.51781 2.5473L5.51764 2.54669L5.51762 2.54666L5.13219 1.25977H6.47559H173.675Z" fill="#3178B5" stroke="white" stroke-width="2"/>
</svg>
