<svg width="218" height="96" viewBox="0 0 218 96" fill="none" xmlns="http://www.w3.org/2000/svg">
<path d="M7.36886 1.25952H6.69891L6.44404 1.8791L7.36886 2.25952C6.44404 1.8791 6.4439 1.87944 6.44372 1.87989L6.44313 1.88133L6.44116 1.88613L6.43414 1.90336L6.40807 1.96793C6.38547 2.02419 6.35262 2.10669 6.31058 2.21413C6.22651 2.42899 6.10565 2.74363 5.9565 3.14766C5.65824 3.95558 5.24659 5.12167 4.78967 6.56252C3.87656 9.44187 2.77895 13.4301 2.04635 17.857C0.595075 26.6267 0.515402 37.4754 6.60577 44.6663C8.01322 46.3281 9.06545 48.2263 9.82717 50.2848C10.4723 52.0282 11.1122 53.8124 11.7588 55.6152C14.5273 63.3348 17.419 71.3976 21.3747 78.076C26.2816 86.3602 32.9393 92.7163 43.2256 93.7518C62.522 95.6942 86.9527 95.3287 109.556 86.715C133.317 77.6606 159.233 77.8595 178.932 80.2375C188.192 81.3554 198.288 79.4223 205.695 74.8687C213.134 70.2952 217.958 62.9895 216.24 53.4926C215.557 49.713 214.193 46.1726 211.791 43.3694C209.278 40.4367 207.977 36.4766 207.485 32.0847C206.994 27.6988 207.319 22.9656 207.984 18.5796C208.649 14.1989 209.646 10.1999 210.479 7.2938C210.896 5.84186 211.27 4.66546 211.539 3.85388C211.674 3.44815 211.782 3.13378 211.857 2.92193C211.894 2.81601 211.923 2.73574 211.942 2.68251L211.963 2.62312L211.969 2.60897L211.97 2.60584L211.97 2.60536L211.97 2.60527L212.466 1.25952H211.032H7.36886Z" fill="#71D1E6" stroke="white" stroke-width="2"/>
</svg>
