<svg width="242" height="97" viewBox="0 0 242 97" fill="none" xmlns="http://www.w3.org/2000/svg">
<path d="M8.75289 1.23755H5.80389L8.14258 3.02971C8.143 3.03005 8.14363 3.03054 8.14446 3.03119L8.16502 3.04769C8.18542 3.06425 8.21896 3.09198 8.2643 3.13108C8.35498 3.20929 8.49275 3.33292 8.66687 3.5037C9.01517 3.84532 9.5083 4.37499 10.0607 5.10646C11.1648 6.56826 12.5075 8.83821 13.4058 12.0317C15.1966 18.3981 15.2598 28.5824 7.85649 43.5548C2.06584 55.2659 0.66444 64.2793 1.20406 70.9871C1.6606 76.6621 5.07964 80.266 9.659 82.1478C14.1885 84.009 19.8806 84.2133 25.1659 83.2151C37.2688 80.9294 54.717 78.3249 72.4981 78.0324C90.307 77.7394 108.314 79.7695 121.623 86.647C135.174 93.6491 153.241 95.7174 170.895 95.4962C188.575 95.2748 205.971 92.7536 218.264 90.4742C229.535 88.3845 238.997 80.1197 239.857 68.463C240.406 61.0171 239.879 52.081 236.334 43.612C232.344 34.0775 232.331 23.8347 233.34 15.9246C233.844 11.9774 234.6 8.6319 235.229 6.2757C235.544 5.09809 235.826 4.16897 236.029 3.53695C236.13 3.22097 236.212 2.97937 236.268 2.81821C236.295 2.73764 236.317 2.67719 236.331 2.63762L236.346 2.59403L236.35 2.58416L236.351 2.58234L236.351 2.58224L236.351 2.58204L236.845 1.23755H235.412H8.75289Z" fill="#FF7C72" stroke="white" stroke-width="2"/>
</svg>
