<svg width="419" height="118" viewBox="0 0 419 118" fill="none" xmlns="http://www.w3.org/2000/svg">
<path fill-rule="evenodd" clip-rule="evenodd" d="M298.071 81.1494C268.501 82.8093 254.027 119.439 224.456 117.772C195.316 116.13 187.996 80.2552 160.189 73.3792C119.423 63.2987 68.4428 89.331 33.3538 70.5167C2.70975 54.0857 -3.39094 17.2175 2.81349 -11.004C9.00872 -39.1836 55.2375 -52.9621 66.4901 -80.2071C78.2747 -108.74 40.2654 -147.78 68.0116 -168.862C95.7822 -189.963 145.857 -162.717 183.99 -169.486C216.928 -175.332 238.867 -206.871 272.614 -205.18C306.039 -203.505 333.995 -181.926 353.349 -160.999C371.112 -141.791 356.619 -111.799 375.916 -93.4774C399.077 -71.4857 449.713 -74.225 469.731 -50.4961C489.499 -27.0642 488.952 4.33656 481.446 31.6146C473.645 59.9604 462.243 96.7851 426.547 106.428C384.338 117.83 342.721 78.643 298.071 81.1494Z" fill="white"/>
</svg>
