<svg width="224" height="293" viewBox="0 0 224 293" fill="none" xmlns="http://www.w3.org/2000/svg">
<path fill-rule="evenodd" clip-rule="evenodd" d="M209.8 69.5519C236.951 76.8113 264.838 38.4629 290.636 49.6145C316.056 60.603 307.991 104.851 330.085 121.547C362.476 146.026 418.73 131.434 442.48 164.364C463.221 193.122 453.658 238.152 436.602 269.238C419.571 300.277 372.565 302.011 351.387 330.383C329.208 360.096 347.329 417.597 313.895 433.627C280.431 449.671 246.7 402.214 209.8 398.267C177.927 394.857 145.431 424.927 115.905 412.447C86.6604 400.087 70.4239 366.143 61.6243 335.638C53.5478 307.639 78.7467 277.062 68.9361 249.623C57.1606 216.688 10.7081 204.136 2.4552 170.146C-5.6944 136.583 7.59138 100.017 25.4291 70.4407C43.9652 39.7065 69.1808 0.173546 105.072 0.000532575C147.51 -0.204043 168.802 58.5902 209.8 69.5519Z" fill="white"/>
</svg>
