<svg width="15" height="15" viewBox="0 0 15 15" fill="none" xmlns="http://www.w3.org/2000/svg">
<g clip-path="url(#clip0_663_15109)">
<g clip-path="url(#clip1_663_15109)">
<path d="M7.51143 0C4.43951 0 1.94922 2.49028 1.94922 5.56221C1.94922 6.58954 2.1503 7.6506 2.72735 8.41536L7.51143 14.7557L12.2955 8.41536C12.8196 7.72074 13.0736 6.49275 13.0736 5.56221C13.0736 2.49028 10.5833 0 7.51143 0ZM7.51143 3.2215C8.80398 3.2215 9.85213 4.26966 9.85213 5.5622C9.85213 6.85476 8.80398 7.90291 7.51143 7.90291C6.21888 7.90291 5.17073 6.85476 5.17073 5.56221C5.17073 4.26966 6.21888 3.2215 7.51143 3.2215Z" fill="#22496D"/>
</g>
</g>
<defs>
<clipPath id="clip0_663_15109">
<rect width="14.7557" height="14.7557" fill="white" transform="translate(0.132812)"/>
</clipPath>
<clipPath id="clip1_663_15109">
<rect width="14.7557" height="14.7557" fill="white" transform="translate(0.132812)"/>
</clipPath>
</defs>
</svg>
